SplineFontDB: 3.2
FontName: vahid
FullName: vahid
FamilyName: vahid
Weight: Regular
Copyright: Copyright 2015-2022 The Aref Ruqaa Project Authors (https://github.com/aliftype/aref-ruqaa), with Reserved Font Name EURM10.
Version: 1.007
ItalicAngle: 0
UnderlinePosition: -65
UnderlineWidth: 73
Ascent: 800
Descent: 200
InvalidEm: 0
sfntRevision: 0x000101cb
LayerCount: 2
Layer: 0 1 "Back" 1
Layer: 1 1 "Fore" 0
XUID: [1021 569 -1486673895 15276269]
StyleMap: 0x0040
FSType: 0
OS2Version: 4
OS2_WeightWidthSlopeOnly: 0
OS2_UseTypoMetrics: 1
CreationTime: 0
ModificationTime: 1758234081
PfmFamily: 17
TTFWeight: 400
TTFWidth: 5
LineGap: 98
VLineGap: 0
Panose: 2 0 5 3 0 0 0 0 0 0
OS2TypoAscent: 1221
OS2TypoAOffset: 0
OS2TypoDescent: -244
OS2TypoDOffset: 0
OS2TypoLinegap: 98
OS2WinAscent: 1221
OS2WinAOffset: 0
OS2WinDescent: 439
OS2WinDOffset: 0
HheadAscent: 1221
HheadAOffset: 0
HheadDescent: -244
HheadDOffset: 0
OS2SubXSize: 650
OS2SubYSize: 700
OS2SubXOff: 47
OS2SubYOff: 140
OS2SupXSize: 650
OS2SupYSize: 700
OS2SupXOff: -164
OS2SupYOff: 480
OS2StrikeYSize: 49
OS2StrikeYPos: 258
OS2CapHeight: 683
OS2XHeight: 462
OS2Vendor: 'ALIF'
OS2CodePages: 00000041.00000000
OS2UnicodeRanges: 8000206f.8000004b.00000000.00000000
Lookup: 2 0 0 "'ccmp' Glyph Composition/Decomposition in Arabic lookup 0" { "'ccmp' Glyph Composition/Decomposition in Arabic lookup 0 subtable"  } ['ccmp' ('arab' <'KSH ' 'MLY ' 'SND ' 'URD ' 'dflt' > ) ]
Lookup: 2 0 0 "'isol' Isolated Forms in Arabic lookup 1" { "'isol' Isolated Forms in Arabic lookup 1 subtable"  } ['isol' ('arab' <'KSH ' 'MLY ' 'SND ' 'URD ' 'dflt' > ) ]
Lookup: 2 0 0 "'init' Initial Forms in Arabic lookup 2" { "'init' Initial Forms in Arabic lookup 2 subtable"  } ['init' ('arab' <'KSH ' 'MLY ' 'SND ' 'URD ' 'dflt' > ) ]
Lookup: 2 0 0 "'medi' Medial Forms in Arabic lookup 3" { "'medi' Medial Forms in Arabic lookup 3 subtable"  } ['medi' ('arab' <'KSH ' 'MLY ' 'SND ' 'URD ' 'dflt' > ) ]

StartChar: .notdef
Encoding: 65536 -1 0
Width: 500
GlyphClass: 1
Flags: W
LayerCount: 2
Fore
SplineSet
50 -200 m 1,0,-1
 50 800 l 1,1,-1
 450 800 l 1,2,-1
 450 -200 l 1,3,-1
 50 -200 l 1,0,-1
100 -150 m 1,4,-1
 400 -150 l 1,5,-1
 400 750 l 1,6,-1
 100 750 l 1,7,-1
 100 -150 l 1,4,-1
EndSplineSet
EndChar

StartChar: exclam
Encoding: 33 33 4
Width: 253
GlyphClass: 1
Flags: W
LayerCount: 2
Fore
SplineSet
203 464 m 0,0,1
 208 391 208 391 194.5 336.5 c 128,-1,2
 181 282 181 282 159 238 c 0,3,4
 153 226 153 226 147.5 214 c 128,-1,5
 142 202 142 202 132 194 c 0,6,7
 125 189 125 189 124.5 195 c 128,-1,8
 124 201 124 201 124 202 c 0,9,10
 139 292 139 292 130.5 371.5 c 128,-1,11
 122 451 122 451 99 518 c 128,-1,12
 76 585 76 585 48 639 c 0,13,14
 46 643 46 643 40 652.5 c 128,-1,15
 34 662 34 662 29.5 671.5 c 128,-1,16
 25 681 25 681 26 684 c 0,17,18
 40 719 40 719 55.5 753.5 c 128,-1,19
 71 788 71 788 86 824 c 1,20,21
 111 771 111 771 136 717 c 128,-1,22
 161 663 161 663 179.5 602 c 128,-1,23
 198 541 198 541 203 464 c 0,0,1
49 85 m 2,24,-1
 138 177 l 2,25,26
 142 183 142 183 150 177 c 2,27,-1
 223 107 l 2,28,29
 229 103 229 103 223 95 c 2,30,-1
 135 3 l 2,31,32
 130 -3 130 -3 122 3 c 2,33,-1
 50 73 l 2,34,35
 44 78 44 78 49 85 c 2,24,-1
EndSplineSet
Substitution2: "'locl' Localized Forms in Latin lookup 94 subtable" exclam.1
EndChar

StartChar: quotedbl
Encoding: 34 34 5
Width: 333
GlyphClass: 1
Flags: W
LayerCount: 2
Fore
SplineSet
118 432 m 1,0,-1
 97 432 l 1,1,-1
 77 584 l 2,2,3
 75 602 75 602 73.5 620.5 c 128,-1,4
 72 639 72 639 72 657 c 0,5,6
 72 673 72 673 79.5 684 c 128,-1,7
 87 695 87 695 106 695 c 0,8,9
 117 695 117 695 128 690.5 c 128,-1,10
 139 686 139 686 139 675 c 2,11,-1
 139 623 l 1,12,-1
 118 432 l 1,0,-1
239 432 m 1,13,-1
 218 432 l 1,14,-1
 196 625 l 2,15,16
 195 636 195 636 193 650 c 128,-1,17
 191 664 191 664 191 668 c 0,18,19
 191 682 191 682 204 687 c 128,-1,20
 217 692 217 692 230 692 c 0,21,22
 238 692 238 692 248.5 687.5 c 128,-1,23
 259 683 259 683 259 673 c 0,24,25
 259 661 259 661 259 649 c 128,-1,26
 259 637 259 637 258 626 c 2,27,-1
 239 432 l 1,13,-1
EndSplineSet
Substitution2: "'locl' Localized Forms in Latin lookup 94 subtable" quotedbl.1
EndChar

StartChar: numbersign
Encoding: 35 35 6
Width: 715
GlyphClass: 1
Flags: W
LayerCount: 2
Fore
SplineSet
10 228 m 1,0,-1
 6 249 l 1,1,-1
 14 259 l 1,2,-1
 192 259 l 1,3,-1
 251 468 l 1,4,-1
 81 468 l 1,5,-1
 75 478 l 1,6,-1
 71 499 l 1,7,-1
 79 509 l 1,8,-1
 262 509 l 1,9,-1
 316 704 l 1,10,-1
 327 707 l 1,11,-1
 349 705 l 1,12,-1
 356 695 l 1,13,-1
 304 509 l 1,14,-1
 511 509 l 1,15,-1
 565 704 l 1,16,-1
 576 707 l 1,17,-1
 598 705 l 1,18,-1
 605 695 l 1,19,-1
 553 509 l 1,20,-1
 702 509 l 1,21,-1
 708 476 l 1,22,-1
 696 468 l 1,23,-1
 542 468 l 1,24,-1
 484 259 l 1,25,-1
 642 259 l 1,26,-1
 648 226 l 1,27,-1
 636 218 l 1,28,-1
 472 218 l 1,29,-1
 413 6 l 1,30,-1
 380 9 l 1,31,-1
 376 23 l 1,32,-1
 430 218 l 1,33,-1
 223 218 l 1,34,-1
 164 6 l 1,35,-1
 131 9 l 1,36,-1
 127 23 l 1,37,-1
 181 218 l 1,38,-1
 16 218 l 1,39,-1
 10 228 l 1,0,-1
235 259 m 1,40,-1
 441 259 l 1,41,-1
 500 468 l 1,42,-1
 293 468 l 1,43,-1
 235 259 l 1,40,-1
EndSplineSet
EndChar

StartChar: dollar
Encoding: 36 36 7
Width: 476
GlyphClass: 1
Flags: W
LayerCount: 2
Fore
SplineSet
439 593 m 1,0,-1
 379 540 l 1,1,-1
 366 543 l 1,2,3
 355 586 355 586 332 614.5 c 128,-1,4
 309 643 309 643 268 648 c 1,5,-1
 268 397 l 1,6,7
 278 392 278 392 290 387 c 0,8,9
 365 354 365 354 403.5 313.5 c 128,-1,10
 442 273 442 273 442 216 c 0,11,12
 442 168 442 168 418 128.5 c 128,-1,13
 394 89 394 89 354 60.5 c 128,-1,14
 314 32 314 32 268 17 c 1,15,-1
 268 -99 l 1,16,-1
 228 -107 l 1,17,-1
 228 7 l 1,18,19
 205 3 205 3 182 3 c 0,20,21
 133 3 133 3 89 25.5 c 128,-1,22
 45 48 45 48 25 100 c 1,23,-1
 80 163 l 1,24,-1
 96 162 l 1,25,26
 111 113 111 113 141.5 80 c 128,-1,27
 172 47 172 47 222 47 c 0,28,29
 225 47 225 47 228 47 c 1,30,-1
 228 322 l 1,31,32
 149 357 149 357 109 397 c 128,-1,33
 69 437 69 437 69 504 c 0,34,35
 69 555 69 555 90.5 592 c 128,-1,36
 112 629 112 629 148.5 651 c 128,-1,37
 185 673 185 673 228 680 c 1,38,-1
 228 790 l 1,39,-1
 268 798 l 1,40,-1
 268 684 l 1,41,42
 269 684 269 684 271 684 c 0,43,44
 306 684 306 684 336 677.5 c 128,-1,45
 366 671 366 671 392 652 c 128,-1,46
 418 633 418 633 439 593 c 1,0,-1
145 537 m 0,47,48
 145 498 145 498 169 469 c 128,-1,49
 193 440 193 440 228 418 c 1,50,-1
 228 647 l 1,51,52
 191 638 191 638 168 607.5 c 128,-1,53
 145 577 145 577 145 537 c 0,47,48
358 186 m 0,54,55
 358 220 358 220 331 251 c 128,-1,56
 304 282 304 282 268 302 c 1,57,-1
 268 55 l 1,58,59
 307 69 307 69 332.5 104 c 128,-1,60
 358 139 358 139 358 186 c 0,54,55
EndSplineSet
EndChar

StartChar: percent
Encoding: 37 37 8
Width: 827
GlyphClass: 1
Flags: W
LayerCount: 2
Fore
SplineSet
228 795 m 1,0,1
 266 785 266 785 300 761 c 128,-1,2
 334 737 334 737 355.5 703.5 c 128,-1,3
 377 670 377 670 377 632 c 0,4,5
 377 598 377 598 361 564.5 c 128,-1,6
 345 531 345 531 318.5 503 c 128,-1,7
 292 475 292 475 259 458 c 128,-1,8
 226 441 226 441 192 441 c 0,9,10
 148 441 148 441 118.5 463 c 128,-1,11
 89 485 89 485 74.5 519.5 c 128,-1,12
 60 554 60 554 60 589 c 0,13,14
 60 635 60 635 84.5 673.5 c 128,-1,15
 109 712 109 712 147.5 743 c 128,-1,16
 186 774 186 774 228 795 c 1,0,1
703 777 m 1,17,-1
 723 766 l 1,18,-1
 724 753 l 1,19,-1
 103 -1 l 1,20,-1
 75 17 l 1,21,-1
 76 31 l 1,22,-1
 692 777 l 1,23,-1
 703 777 l 1,17,-1
178 743 m 1,24,25
 144 724 144 724 131.5 691 c 128,-1,26
 119 658 119 658 119 624 c 0,27,28
 119 593 119 593 132.5 561 c 128,-1,29
 146 529 146 529 171.5 508 c 128,-1,30
 197 487 197 487 234 487 c 0,31,32
 270 487 270 487 288.5 504.5 c 128,-1,33
 307 522 307 522 313.5 547.5 c 128,-1,34
 320 573 320 573 320 598 c 0,35,36
 320 634 320 634 302 666 c 128,-1,37
 284 698 284 698 252.5 719 c 128,-1,38
 221 740 221 740 178 743 c 1,24,25
624 342 m 1,39,40
 662 332 662 332 696 308 c 128,-1,41
 730 284 730 284 751.5 250.5 c 128,-1,42
 773 217 773 217 773 179 c 0,43,44
 773 145 773 145 757 111.5 c 128,-1,45
 741 78 741 78 714.5 50 c 128,-1,46
 688 22 688 22 655 5 c 128,-1,47
 622 -12 622 -12 588 -12 c 0,48,49
 544 -12 544 -12 514.5 10 c 128,-1,50
 485 32 485 32 470.5 66.5 c 128,-1,51
 456 101 456 101 456 136 c 0,52,53
 456 182 456 182 480.5 220.5 c 128,-1,54
 505 259 505 259 543.5 290 c 128,-1,55
 582 321 582 321 624 342 c 1,39,40
574 290 m 1,56,57
 540 271 540 271 527.5 238 c 128,-1,58
 515 205 515 205 515 171 c 0,59,60
 515 140 515 140 528.5 108 c 128,-1,61
 542 76 542 76 567.5 55 c 128,-1,62
 593 34 593 34 630 34 c 0,63,64
 666 34 666 34 684.5 51.5 c 128,-1,65
 703 69 703 69 709.5 94.5 c 128,-1,66
 716 120 716 120 716 145 c 0,67,68
 716 181 716 181 698 213 c 128,-1,69
 680 245 680 245 648.5 266 c 128,-1,70
 617 287 617 287 574 290 c 1,56,57
EndSplineSet
EndChar

StartChar: ampersand
Encoding: 38 38 9
Width: 738
GlyphClass: 1
Flags: W
LayerCount: 2
Fore
SplineSet
326 356 m 1,0,-1
 328 399 l 1,1,2
 370 397 370 397 424 396.5 c 128,-1,3
 478 396 478 396 528 396 c 0,4,5
 554 396 554 396 584.5 396 c 128,-1,6
 615 396 615 396 642 397 c 128,-1,7
 669 398 669 398 684 399 c 1,8,-1
 681 351 l 1,9,10
 650 356 650 356 610.5 357 c 128,-1,11
 571 358 571 358 534 358 c 1,12,13
 538 342 538 342 540.5 326.5 c 128,-1,14
 543 311 543 311 543 295 c 0,15,16
 543 245 543 245 521.5 200 c 128,-1,17
 500 155 500 155 469 115 c 1,18,-1
 472 112 l 2,19,20
 492 91 492 91 519.5 72 c 128,-1,21
 547 53 547 53 577 53 c 0,22,23
 613 53 613 53 635.5 73.5 c 128,-1,24
 658 94 658 94 672 125.5 c 128,-1,25
 686 157 686 157 693 189 c 1,26,-1
 714 184 l 1,27,28
 708 151 708 151 696 116.5 c 128,-1,29
 684 82 684 82 664.5 53 c 128,-1,30
 645 24 645 24 616 6.5 c 128,-1,31
 587 -11 587 -11 546 -11 c 0,32,33
 509 -11 509 -11 475.5 6 c 128,-1,34
 442 23 442 23 416 48 c 2,35,-1
 411 52 l 1,36,37
 381 28 381 28 341.5 10 c 128,-1,38
 302 -8 302 -8 258 -8 c 0,39,40
 213 -8 213 -8 168 3.5 c 128,-1,41
 123 15 123 15 91 47 c 0,42,43
 62 76 62 76 45.5 115 c 128,-1,44
 29 154 29 154 29 195 c 0,45,46
 29 241 29 241 45.5 273.5 c 128,-1,47
 62 306 62 306 97 334.5 c 128,-1,48
 132 363 132 363 187 397 c 1,49,50
 175 426 175 426 168 457.5 c 128,-1,51
 161 489 161 489 161 520 c 0,52,53
 161 566 161 566 180.5 606.5 c 128,-1,54
 200 647 200 647 236.5 672.5 c 128,-1,55
 273 698 273 698 324 698 c 0,56,57
 349 698 349 698 372.5 686.5 c 128,-1,58
 396 675 396 675 411 654.5 c 128,-1,59
 426 634 426 634 426 606 c 0,60,61
 426 573 426 573 415 545.5 c 128,-1,62
 404 518 404 518 379 495 c 0,63,64
 364 481 364 481 338.5 464 c 128,-1,65
 313 447 313 447 290 433.5 c 128,-1,66
 267 420 267 420 258 416 c 1,67,68
 329 259 329 259 454 131 c 1,69,70
 474 160 474 160 483 195 c 128,-1,71
 492 230 492 230 492 266 c 0,72,73
 492 289 492 289 482 309 c 128,-1,74
 472 329 472 329 456 345 c 0,75,76
 444 357 444 357 428 359 c 128,-1,77
 412 361 412 361 395 361 c 256,78,79
 378 361 378 361 360.5 359.5 c 128,-1,80
 343 358 343 358 326 356 c 1,0,-1
250 435 m 1,81,82
 292 461 292 461 314.5 482 c 128,-1,83
 337 503 337 503 345.5 526.5 c 128,-1,84
 354 550 354 550 354 582 c 0,85,86
 354 600 354 600 344 618.5 c 128,-1,87
 334 637 334 637 318.5 650 c 128,-1,88
 303 663 303 663 287 663 c 0,89,90
 257 663 257 663 243.5 646.5 c 128,-1,91
 230 630 230 630 226 606 c 128,-1,92
 222 582 222 582 222 559 c 0,93,94
 222 527 222 527 229.5 496 c 128,-1,95
 237 465 237 465 250 435 c 1,81,82
396 68 m 1,96,97
 336 135 336 135 283.5 214.5 c 128,-1,98
 231 294 231 294 196 376 c 1,99,100
 145 342 145 342 126 303.5 c 128,-1,101
 107 265 107 265 107 218 c 0,102,103
 107 172 107 172 128 129 c 128,-1,104
 149 86 149 86 186.5 58.5 c 128,-1,105
 224 31 224 31 273 31 c 0,106,107
 350 31 350 31 396 68 c 1,96,97
EndSplineSet
EndChar

StartChar: quotesingle
Encoding: 39 39 10
Width: 210
GlyphClass: 1
Flags: W
LayerCount: 2
Fore
SplineSet
110 436 m 1,0,-1
 94 436 l 1,1,-1
 76 629 l 2,2,3
 75 638 75 638 74.5 647 c 128,-1,4
 74 656 74 656 74 666 c 0,5,6
 74 680 74 680 85 687.5 c 128,-1,7
 96 695 96 695 110 695 c 0,8,9
 126 695 126 695 133 685.5 c 128,-1,10
 140 676 140 676 140 662 c 0,11,12
 140 654 140 654 139 643 c 128,-1,13
 138 632 138 632 136 622 c 2,14,-1
 110 436 l 1,0,-1
EndSplineSet
Substitution2: "'locl' Localized Forms in Latin lookup 94 subtable" quotesingle.1
EndChar

StartChar: parenleft
Encoding: 40 40 11
Width: 257
GlyphClass: 1
Flags: W
LayerCount: 2
Fore
SplineSet
246 -163 m 1,0,-1
 246 -187 l 1,1,2
 207 -184 207 -184 177.5 -162 c 128,-1,3
 148 -140 148 -140 128 -107 c 128,-1,4
 108 -74 108 -74 95 -36 c 128,-1,5
 82 2 82 2 76 38 c 0,6,7
 66 98 66 98 62 158.5 c 128,-1,8
 58 219 58 219 58 280 c 0,9,10
 58 338 58 338 62.5 396 c 128,-1,11
 67 454 67 454 78 510 c 0,12,13
 88 558 88 558 107.5 607.5 c 128,-1,14
 127 657 127 657 160.5 693 c 128,-1,15
 194 729 194 729 246 738 c 1,16,-1
 246 711 l 1,17,18
 208 701 208 701 183 668 c 128,-1,19
 158 635 158 635 143 587 c 128,-1,20
 128 539 128 539 121 483.5 c 128,-1,21
 114 428 114 428 112 373.5 c 128,-1,22
 110 319 110 319 110 274 c 0,23,24
 110 223 110 223 112 166.5 c 128,-1,25
 114 110 114 110 121 54.5 c 128,-1,26
 128 -1 128 -1 142.5 -47.5 c 128,-1,27
 157 -94 157 -94 182 -124.5 c 128,-1,28
 207 -155 207 -155 246 -163 c 1,0,-1
EndSplineSet
Substitution2: "'locl' Localized Forms in Latin lookup 94 subtable" parenleft.1
EndChar

StartChar: parenright
Encoding: 41 41 12
Width: 259
GlyphClass: 1
Flags: W
LayerCount: 2
Fore
SplineSet
11 709 m 1,0,-1
 11 736 l 1,1,2
 62 726 62 726 96 691 c 128,-1,3
 130 656 130 656 151 605.5 c 128,-1,4
 172 555 172 555 183 497 c 128,-1,5
 194 439 194 439 197.5 380.5 c 128,-1,6
 201 322 201 322 201 272 c 0,7,8
 201 221 201 221 198 161.5 c 128,-1,9
 195 102 195 102 185.5 43 c 128,-1,10
 176 -16 176 -16 155.5 -66 c 128,-1,11
 135 -116 135 -116 100 -149 c 128,-1,12
 65 -182 65 -182 11 -189 c 1,13,-1
 11 -165 l 1,14,15
 46 -156 46 -156 73 -134 c 128,-1,16
 100 -112 100 -112 115 -67 c 0,17,18
 142 13 142 13 145.5 102 c 128,-1,19
 149 191 149 191 149 276 c 0,20,21
 149 335 149 335 145 394 c 128,-1,22
 141 453 141 453 130 511 c 0,23,24
 123 549 123 549 110.5 589 c 128,-1,25
 98 629 98 629 75 662 c 128,-1,26
 52 695 52 695 11 709 c 1,0,-1
EndSplineSet
Substitution2: "'locl' Localized Forms in Latin lookup 94 subtable" parenright.1
EndChar

StartChar: asterisk
Encoding: 42 42 13
Width: 301
GlyphClass: 1
Flags: W
LayerCount: 2
Fore
SplineSet
175 448 m 1,0,-1
 135 448 l 1,1,2
 140 477 140 477 141.5 502 c 128,-1,3
 143 527 143 527 144 559 c 1,4,5
 124 543 124 543 104.5 525.5 c 128,-1,6
 85 508 85 508 67 487 c 1,7,-1
 46 522 l 1,8,9
 72 535 72 535 93 548.5 c 128,-1,10
 114 562 114 562 133 575 c 1,11,12
 111 591 111 591 90.5 603.5 c 128,-1,13
 70 616 70 616 48 627 c 1,14,-1
 75 655 l 1,15,16
 92 639 92 639 108 624.5 c 128,-1,17
 124 610 124 610 143 596 c 1,18,19
 143 620 143 620 142 643.5 c 128,-1,20
 141 667 141 667 135 692 c 1,21,-1
 175 692 l 1,22,23
 170 667 170 667 168 644.5 c 128,-1,24
 166 622 166 622 164 597 c 1,25,26
 202 627 202 627 232 659 c 1,27,-1
 257 628 l 1,28,29
 233 617 233 617 211.5 604 c 128,-1,30
 190 591 190 591 169 576 c 1,31,32
 192 559 192 559 214 544.5 c 128,-1,33
 236 530 236 530 257 520 c 1,34,-1
 231 491 l 1,35,36
 204 521 204 521 164 552 c 1,37,38
 165 526 165 526 167 500.5 c 128,-1,39
 169 475 169 475 175 448 c 1,0,-1
EndSplineSet
EndChar

StartChar: plus
Encoding: 43 43 14
Width: 747
GlyphClass: 1
Flags: W
LayerCount: 2
Fore
SplineSet
392 586 m 1,0,-1
 392 276 l 1,1,-1
 705 276 l 1,2,-1
 700 236 l 1,3,-1
 392 236 l 1,4,-1
 392 -67 l 1,5,-1
 352 -74 l 1,6,-1
 352 236 l 1,7,-1
 42 236 l 1,8,-1
 49 276 l 1,9,-1
 352 276 l 1,10,-1
 352 580 l 1,11,-1
 392 586 l 1,0,-1
EndSplineSet
EndChar

StartChar: comma
Encoding: 44 44 15
Width: 233
GlyphClass: 1
Flags: W
LayerCount: 2
Fore
SplineSet
77 -210 m 1,0,-1
 58 -196 l 1,1,2
 84 -161 84 -161 104 -126 c 128,-1,3
 124 -91 124 -91 124 -61 c 0,4,5
 124 -50 124 -50 121 -38.5 c 128,-1,6
 118 -27 118 -27 111 -19 c 2,7,-1
 41 64 l 2,8,9
 34 73 34 73 34 90 c 0,10,11
 34 110 34 110 54 124 c 128,-1,12
 74 138 74 138 93 138 c 0,13,14
 113 138 113 138 129 117.5 c 128,-1,15
 145 97 145 97 156.5 68.5 c 128,-1,16
 168 40 168 40 174.5 13 c 128,-1,17
 181 -14 181 -14 181 -27 c 0,18,19
 181 -64 181 -64 155.5 -106 c 128,-1,20
 130 -148 130 -148 77 -210 c 1,0,-1
EndSplineSet
EndChar

StartChar: hyphen
Encoding: 45 45 16
Width: 353
GlyphClass: 1
Flags: W
LayerCount: 2
Fore
SplineSet
297 276 m 1,0,-1
 291 236 l 1,1,-1
 55 236 l 1,2,-1
 62 276 l 1,3,-1
 297 276 l 1,0,-1
EndSplineSet
EndChar

StartChar: period
Encoding: 46 46 17
Width: 272
GlyphClass: 1
Flags: W
LayerCount: 2
Fore
SplineSet
69 52 m 256,0,1
 69 80 69 80 88.5 99.5 c 128,-1,2
 108 119 108 119 136 119 c 256,3,4
 164 119 164 119 183.5 99.5 c 128,-1,5
 203 80 203 80 203 52 c 256,6,7
 203 24 203 24 183.5 4.5 c 128,-1,8
 164 -15 164 -15 136 -15 c 256,9,10
 108 -15 108 -15 88.5 4.5 c 128,-1,11
 69 24 69 24 69 52 c 256,0,1
EndSplineSet
Substitution2: "'locl' Localized Forms in Latin lookup 94 subtable" period.1
EndChar

StartChar: slash
Encoding: 47 47 18
Width: 390
GlyphClass: 1
Flags: W
LayerCount: 2
Fore
SplineSet
380 720 m 1,0,-1
 402 715 l 1,1,-1
 407 704 l 1,2,-1
 18 -192 l 1,3,-1
 -14 -184 l 1,4,-1
 -17 -170 l 1,5,-1
 369 718 l 1,6,-1
 380 720 l 1,0,-1
EndSplineSet
EndChar

StartChar: zero
Encoding: 48 48 19
Width: 500
GlyphClass: 1
Flags: W
LayerCount: 2
Fore
SplineSet
290 704 m 1,0,1
 351 666 351 666 388 609.5 c 128,-1,2
 425 553 425 553 442.5 488 c 128,-1,3
 460 423 460 423 460 356 c 0,4,5
 460 296 460 296 446 231.5 c 128,-1,6
 432 167 432 167 402.5 111.5 c 128,-1,7
 373 56 373 56 324.5 21 c 128,-1,8
 276 -14 276 -14 207 -14 c 0,9,10
 164 -14 164 -14 133.5 7.5 c 128,-1,11
 103 29 103 29 83.5 64.5 c 128,-1,12
 64 100 64 100 53 142 c 128,-1,13
 42 184 42 184 38 226.5 c 128,-1,14
 34 269 34 269 34 303 c 0,15,16
 34 393 34 393 67 479 c 128,-1,17
 100 565 100 565 164 629 c 0,18,19
 189 654 189 654 223 672.5 c 128,-1,20
 257 691 257 691 290 704 c 1,0,1
234 640 m 1,21,22
 190 613 190 613 160.5 569 c 128,-1,23
 131 525 131 525 116 473.5 c 128,-1,24
 101 422 101 422 101 371 c 0,25,26
 101 328 101 328 105.5 284 c 128,-1,27
 110 240 110 240 122 199 c 0,28,29
 132 165 132 165 150.5 131 c 128,-1,30
 169 97 169 97 194.5 74.5 c 128,-1,31
 220 52 220 52 252 52 c 0,32,33
 298 52 298 52 326.5 74.5 c 128,-1,34
 355 97 355 97 370.5 132.5 c 128,-1,35
 386 168 386 168 392 208.5 c 128,-1,36
 398 249 398 249 398 285 c 0,37,38
 398 353 398 353 380.5 416.5 c 128,-1,39
 363 480 363 480 330 539 c 0,40,41
 327 545 327 545 312.5 566 c 128,-1,42
 298 587 298 587 277.5 609 c 128,-1,43
 257 631 257 631 234 640 c 1,21,22
EndSplineSet
Substitution2: "'dnom' Denominators in Latin lookup 92 subtable" zero.dnom
Substitution2: "'numr' Numerators in Latin lookup 91 subtable" zero.numr
EndChar

StartChar: one
Encoding: 49 49 20
Width: 500
GlyphClass: 1
Flags: W
LayerCount: 2
Fore
SplineSet
92 639 m 1,0,-1
 308 712 l 1,1,-1
 314 700 l 1,2,3
 310 633 310 633 308.5 566 c 128,-1,4
 307 499 307 499 307 432 c 0,5,6
 307 381 307 381 307 321.5 c 128,-1,7
 307 262 307 262 307.5 204.5 c 128,-1,8
 308 147 308 147 308.5 99 c 128,-1,9
 309 51 309 51 310 22 c 1,10,-1
 226 -5 l 1,11,-1
 214 0 l 1,12,13
 218 104 218 104 220 209 c 128,-1,14
 222 314 222 314 222 419 c 0,15,16
 222 475 222 475 223 518.5 c 128,-1,17
 224 562 224 562 215 587 c 128,-1,18
 206 612 206 612 175 612 c 2,19,-1
 92 612 l 1,20,-1
 92 639 l 1,0,-1
EndSplineSet
Substitution2: "'dnom' Denominators in Latin lookup 92 subtable" one.dnom
Substitution2: "'numr' Numerators in Latin lookup 91 subtable" one.numr
EndChar

StartChar: two
Encoding: 50 50 21
Width: 500
GlyphClass: 1
Flags: W
LayerCount: 2
Fore
SplineSet
467 88 m 1,0,-1
 472 80 l 1,1,-1
 449 2 l 1,2,-1
 12 2 l 1,3,-1
 12 18 l 1,4,5
 55 62 55 62 96.5 106.5 c 128,-1,6
 138 151 138 151 178 197 c 0,7,8
 217 243 217 243 252.5 292 c 128,-1,9
 288 341 288 341 311 395 c 128,-1,10
 334 449 334 449 334 508 c 0,11,12
 334 534 334 534 323.5 565 c 128,-1,13
 313 596 313 596 288.5 618 c 128,-1,14
 264 640 264 640 221 640 c 0,15,16
 180 640 180 640 146.5 620 c 128,-1,17
 113 600 113 600 84 576 c 1,18,-1
 64 595 l 1,19,20
 105 640 105 640 158.5 674 c 128,-1,21
 212 708 212 708 275 708 c 0,22,23
 319 708 319 708 353 687.5 c 128,-1,24
 387 667 387 667 406.5 632 c 128,-1,25
 426 597 426 597 426 553 c 0,26,27
 426 513 426 513 412 476.5 c 128,-1,28
 398 440 398 440 378 405 c 0,29,30
 334 325 334 325 272 249 c 128,-1,31
 210 173 210 173 147 99 c 0,32,33
 145 97 145 97 145 95 c 0,34,35
 145 91 145 91 149.5 89.5 c 128,-1,36
 154 88 154 88 158 88 c 2,37,-1
 467 88 l 1,0,-1
EndSplineSet
Substitution2: "'dnom' Denominators in Latin lookup 92 subtable" two.dnom
Substitution2: "'numr' Numerators in Latin lookup 91 subtable" two.numr
EndChar

StartChar: three
Encoding: 51 51 22
Width: 500
GlyphClass: 1
Flags: W
LayerCount: 2
Fore
SplineSet
241 382 m 1,0,-1
 241 374 l 1,1,2
 336 366 336 366 391 328 c 128,-1,3
 446 290 446 290 446 215 c 0,4,5
 446 164 446 164 423.5 121.5 c 128,-1,6
 401 79 401 79 363 48 c 128,-1,7
 325 17 325 17 278 0 c 128,-1,8
 231 -17 231 -17 181 -17 c 0,9,10
 138 -17 138 -17 98.5 -2.5 c 128,-1,11
 59 12 59 12 25 38 c 1,12,-1
 18 49 l 1,13,-1
 60 121 l 1,14,-1
 70 121 l 1,15,16
 93 83 93 83 126.5 53 c 128,-1,17
 160 23 160 23 206 23 c 0,18,19
 251 23 251 23 284 46 c 128,-1,20
 317 69 317 69 334.5 106 c 128,-1,21
 352 143 352 143 352 186 c 0,22,23
 352 218 352 218 338.5 247.5 c 128,-1,24
 325 277 325 277 303 300 c 0,25,26
 284 321 284 321 253.5 330.5 c 128,-1,27
 223 340 223 340 189 342.5 c 128,-1,28
 155 345 155 345 125 345 c 1,29,-1
 126 371 l 1,30,31
 217 392 217 392 267 432.5 c 128,-1,32
 317 473 317 473 317 540 c 0,33,34
 317 587 317 587 285 613 c 128,-1,35
 253 639 253 639 208 639 c 0,36,37
 179 639 179 639 146.5 621.5 c 128,-1,38
 114 604 114 604 86 586 c 1,39,-1
 72 608 l 1,40,41
 98 630 98 630 128 651.5 c 128,-1,42
 158 673 158 673 190 687.5 c 128,-1,43
 222 702 222 702 253 702 c 0,44,45
 314 702 314 702 356.5 667.5 c 128,-1,46
 399 633 399 633 399 568 c 0,47,48
 399 520 399 520 377.5 482.5 c 128,-1,49
 356 445 356 445 320.5 420 c 128,-1,50
 285 395 285 395 241 382 c 1,0,-1
EndSplineSet
Substitution2: "'dnom' Denominators in Latin lookup 92 subtable" three.dnom
Substitution2: "'numr' Numerators in Latin lookup 91 subtable" three.numr
EndChar

StartChar: four
Encoding: 52 52 23
Width: 500
GlyphClass: 1
Flags: W
LayerCount: 2
Fore
SplineSet
285 669 m 1,0,-1
 361 704 l 1,1,-1
 368 698 l 1,2,3
 368 690 368 690 367.5 656 c 128,-1,4
 367 622 367 622 367 571.5 c 128,-1,5
 367 521 367 521 367 463 c 128,-1,6
 367 405 367 405 367 348 c 128,-1,7
 367 291 367 291 367 244 c 1,8,-1
 374 235 l 1,9,-1
 468 235 l 1,10,-1
 473 228 l 1,11,-1
 457 191 l 1,12,-1
 375 191 l 1,13,-1
 367 183 l 1,14,15
 367 156 367 156 367 124 c 128,-1,16
 367 92 367 92 368 65.5 c 128,-1,17
 369 39 369 39 370 28 c 1,18,-1
 290 -5 l 1,19,-1
 285 1 l 1,20,21
 288 19 288 19 289 49.5 c 128,-1,22
 290 80 290 80 290 115.5 c 128,-1,23
 290 151 290 151 290 182 c 1,24,-1
 283 191 l 1,25,-1
 -1 191 l 1,26,-1
 -1 235 l 1,27,-1
 285 669 l 1,0,-1
284 235 m 1,28,-1
 290 243 l 1,29,-1
 290 585 l 2,30,31
 290 593 290 593 285 593 c 0,32,33
 282 593 282 593 280 591 c 0,34,35
 255 562 255 562 232 528.5 c 128,-1,36
 209 495 209 495 187 461 c 0,37,38
 173 439 173 439 152.5 405.5 c 128,-1,39
 132 372 132 372 112 337.5 c 128,-1,40
 92 303 92 303 78 276.5 c 128,-1,41
 64 250 64 250 64 242 c 1,42,-1
 69 235 l 1,43,-1
 284 235 l 1,28,-1
EndSplineSet
Substitution2: "'dnom' Denominators in Latin lookup 92 subtable" four.dnom
Substitution2: "'numr' Numerators in Latin lookup 91 subtable" four.numr
EndChar

StartChar: five
Encoding: 53 53 24
Width: 500
GlyphClass: 1
Flags: W
LayerCount: 2
Fore
SplineSet
125 594 m 2,0,-1
 125 406 l 1,1,2
 156 421 156 421 189.5 432 c 128,-1,3
 223 443 223 443 257 443 c 0,4,5
 316 443 316 443 358.5 418.5 c 128,-1,6
 401 394 401 394 424.5 350.5 c 128,-1,7
 448 307 448 307 448 251 c 0,8,9
 448 175 448 175 410.5 115.5 c 128,-1,10
 373 56 373 56 312 22.5 c 128,-1,11
 251 -11 251 -11 178 -11 c 0,12,13
 131 -11 131 -11 87.5 8 c 128,-1,14
 44 27 44 27 13 64 c 1,15,-1
 12 76 l 1,16,-1
 56 132 l 1,17,-1
 67 132 l 1,18,19
 78 108 78 108 94 83.5 c 128,-1,20
 110 59 110 59 132.5 42.5 c 128,-1,21
 155 26 155 26 186 26 c 0,22,23
 242 26 242 26 279 54 c 128,-1,24
 316 82 316 82 334 127 c 128,-1,25
 352 172 352 172 352 223 c 0,26,27
 352 264 352 264 338.5 303.5 c 128,-1,28
 325 343 325 343 295 369 c 128,-1,29
 265 395 265 395 213 395 c 0,30,31
 180 395 180 395 150 380 c 128,-1,32
 120 365 120 365 96 342 c 1,33,-1
 83 353 l 1,34,-1
 83 680 l 1,35,-1
 90 687 l 1,36,-1
 425 687 l 1,37,-1
 398 609 l 1,38,39
 355 608 355 608 303 607 c 128,-1,40
 251 606 251 606 206 605 c 128,-1,41
 161 604 161 604 137 604 c 0,42,43
 125 604 125 604 125 594 c 2,0,-1
EndSplineSet
Substitution2: "'dnom' Denominators in Latin lookup 92 subtable" five.dnom
Substitution2: "'numr' Numerators in Latin lookup 91 subtable" five.numr
EndChar

StartChar: six
Encoding: 54 54 25
Width: 500
GlyphClass: 1
Flags: W
LayerCount: 2
Fore
SplineSet
471 688 m 1,0,-1
 451 634 l 1,1,-1
 442 630 l 1,2,3
 415 641 415 641 384 641 c 0,4,5
 338 641 338 641 298.5 623 c 128,-1,6
 259 605 259 605 228 576 c 0,7,8
 169 521 169 521 149.5 449.5 c 128,-1,9
 130 378 130 378 129 306 c 1,10,-1
 136 305 l 1,11,12
 176 337 176 337 222.5 357 c 128,-1,13
 269 377 269 377 321 377 c 0,14,15
 367 377 367 377 400.5 353 c 128,-1,16
 434 329 434 329 452.5 291.5 c 128,-1,17
 471 254 471 254 471 211 c 0,18,19
 471 167 471 167 451.5 127 c 128,-1,20
 432 87 432 87 398.5 55.5 c 128,-1,21
 365 24 365 24 323 5.5 c 128,-1,22
 281 -13 281 -13 236 -13 c 0,23,24
 183 -13 183 -13 146.5 10 c 128,-1,25
 110 33 110 33 87.5 70 c 128,-1,26
 65 107 65 107 55 151 c 128,-1,27
 45 195 45 195 45 238 c 0,28,29
 45 332 45 332 78.5 420.5 c 128,-1,30
 112 509 112 509 179 576 c 0,31,32
 210 609 210 609 248 637 c 128,-1,33
 286 665 286 665 329 682.5 c 128,-1,34
 372 700 372 700 416 700 c 0,35,36
 427 700 427 700 443.5 696.5 c 128,-1,37
 460 693 460 693 471 688 c 1,0,-1
132 265 m 1,38,39
 132 231 132 231 137.5 191 c 128,-1,40
 143 151 143 151 157.5 114.5 c 128,-1,41
 172 78 172 78 197.5 55 c 128,-1,42
 223 32 223 32 263 32 c 0,43,44
 327 32 327 32 359.5 73.5 c 128,-1,45
 392 115 392 115 392 172 c 0,46,47
 392 209 392 209 374.5 241.5 c 128,-1,48
 357 274 357 274 326.5 294 c 128,-1,49
 296 314 296 314 256 314 c 0,50,51
 236 314 236 314 211 306 c 128,-1,52
 186 298 186 298 164.5 287 c 128,-1,53
 143 276 143 276 132 265 c 1,38,39
EndSplineSet
Substitution2: "'dnom' Denominators in Latin lookup 92 subtable" six.dnom
Substitution2: "'numr' Numerators in Latin lookup 91 subtable" six.numr
EndChar

StartChar: seven
Encoding: 55 55 26
Width: 500
GlyphClass: 1
Flags: W
LayerCount: 2
Fore
SplineSet
494 686 m 1,0,-1
 494 674 l 1,1,-1
 340 422 l 2,2,3
 282 326 282 326 235.5 224 c 128,-1,4
 189 122 189 122 165 12 c 1,5,-1
 81 -8 l 1,6,-1
 75 0 l 1,7,8
 84 31 84 31 103 72 c 128,-1,9
 122 113 122 113 145.5 158 c 128,-1,10
 169 203 169 203 193.5 246.5 c 128,-1,11
 218 290 218 290 238 324 c 2,12,13
 238 324 238 324 248.5 342 c 128,-1,14
 259 360 259 360 276.5 390 c 128,-1,15
 294 420 294 420 315 456 c 128,-1,16
 336 492 336 492 357.5 528 c 128,-1,17
 379 564 379 564 398 594 c 1,18,-1
 392 606 l 1,19,-1
 56 606 l 1,20,-1
 49 615 l 1,21,-1
 70 694 l 1,22,23
 77 692 77 692 104.5 690.5 c 128,-1,24
 132 689 132 689 168 688 c 128,-1,25
 204 687 204 687 236.5 686.5 c 128,-1,26
 269 686 269 686 286 686 c 2,27,-1
 494 686 l 1,0,-1
EndSplineSet
Substitution2: "'dnom' Denominators in Latin lookup 92 subtable" seven.dnom
Substitution2: "'numr' Numerators in Latin lookup 91 subtable" seven.numr
EndChar

StartChar: eight
Encoding: 56 56 27
Width: 500
GlyphClass: 1
Flags: W
LayerCount: 2
Fore
SplineSet
312 396 m 1,0,-1
 312 385 l 1,1,2
 365 349 365 349 398 321.5 c 128,-1,3
 431 294 431 294 446 265.5 c 128,-1,4
 461 237 461 237 461 197 c 0,5,6
 461 149 461 149 440.5 110.5 c 128,-1,7
 420 72 420 72 385 45 c 128,-1,8
 350 18 350 18 307 4 c 128,-1,9
 264 -10 264 -10 219 -10 c 0,10,11
 183 -10 183 -10 145.5 -0.5 c 128,-1,12
 108 9 108 9 82 35 c 0,13,14
 58 59 58 59 49 91 c 128,-1,15
 40 123 40 123 40 157 c 0,16,17
 40 204 40 204 58 235.5 c 128,-1,18
 76 267 76 267 111.5 294 c 128,-1,19
 147 321 147 321 201 352 c 1,20,-1
 201 363 l 1,21,22
 174 382 174 382 148 407.5 c 128,-1,23
 122 433 122 433 105.5 464 c 128,-1,24
 89 495 89 495 89 530 c 0,25,26
 89 579 89 579 113.5 612 c 128,-1,27
 138 645 138 645 176 667.5 c 128,-1,28
 214 690 214 690 254 706 c 1,29,-1
 263 706 l 2,30,31
 340 706 340 706 387.5 668 c 128,-1,32
 435 630 435 630 435 568 c 0,33,34
 435 532 435 532 417 499.5 c 128,-1,35
 399 467 399 467 370.5 441 c 128,-1,36
 342 415 342 415 312 396 c 1,0,-1
279 412 m 1,37,38
 311 434 311 434 331 468.5 c 128,-1,39
 351 503 351 503 351 543 c 0,40,41
 351 568 351 568 336.5 595 c 128,-1,42
 322 622 322 622 294 640.5 c 128,-1,43
 266 659 266 659 223 659 c 1,44,45
 189 637 189 637 177.5 614 c 128,-1,46
 166 591 166 591 166 562 c 256,47,48
 166 533 166 533 183 505.5 c 128,-1,49
 200 478 200 478 226 454.5 c 128,-1,50
 252 431 252 431 279 412 c 1,37,38
238 334 m 1,51,52
 186 307 186 307 154.5 271 c 128,-1,53
 123 235 123 235 123 177 c 0,54,55
 123 142 123 142 137 108.5 c 128,-1,56
 151 75 151 75 178.5 53.5 c 128,-1,57
 206 32 206 32 245 32 c 0,58,59
 307 32 307 32 340.5 70.5 c 128,-1,60
 374 109 374 109 374 168 c 0,61,62
 374 206 374 206 357 233.5 c 128,-1,63
 340 261 340 261 309.5 284.5 c 128,-1,64
 279 308 279 308 238 334 c 1,51,52
EndSplineSet
Substitution2: "'dnom' Denominators in Latin lookup 92 subtable" eight.dnom
Substitution2: "'numr' Numerators in Latin lookup 91 subtable" eight.numr
EndChar

StartChar: nine
Encoding: 57 57 28
Width: 500
GlyphClass: 1
Flags: W
LayerCount: 2
Fore
SplineSet
214 11 m 1,0,-1
 129 -9 l 1,1,-1
 119 -1 l 1,2,3
 134 34 134 34 166 79 c 128,-1,4
 198 124 198 124 232 167 c 2,5,6
 232 167 232 167 245.5 185 c 128,-1,7
 259 203 259 203 278.5 230.5 c 128,-1,8
 298 258 298 258 317.5 286.5 c 128,-1,9
 337 315 337 315 349 336 c 1,10,-1
 344 342 l 1,11,12
 307 323 307 323 270 311 c 128,-1,13
 233 299 233 299 194 299 c 0,14,15
 160 299 160 299 124 320.5 c 128,-1,16
 88 342 88 342 64 379.5 c 128,-1,17
 40 417 40 417 40 465 c 0,18,19
 40 504 40 504 48.5 537.5 c 128,-1,20
 57 571 57 571 79 598 c 0,21,22
 94 616 94 616 124 636 c 128,-1,23
 154 656 154 656 187.5 673.5 c 128,-1,24
 221 691 221 691 246 702 c 1,25,26
 355 702 355 702 408.5 655 c 128,-1,27
 462 608 462 608 462 528 c 0,28,29
 462 486 462 486 445 441 c 128,-1,30
 428 396 428 396 402 352.5 c 128,-1,31
 376 309 376 309 350 270 c 0,32,33
 323 231 323 231 294 186.5 c 128,-1,34
 265 142 265 142 243 97.5 c 128,-1,35
 221 53 221 53 214 11 c 1,0,-1
351 384 m 0,36,37
 370 403 370 403 376 429.5 c 128,-1,38
 382 456 382 456 382 482 c 0,39,40
 382 524 382 524 364 561 c 128,-1,41
 346 598 346 598 309.5 621 c 128,-1,42
 273 644 273 644 219 644 c 0,43,44
 191 644 191 644 170.5 622.5 c 128,-1,45
 150 601 150 601 139.5 571 c 128,-1,46
 129 541 129 541 129 515 c 0,47,48
 129 477 129 477 144 439 c 128,-1,49
 159 401 159 401 188 376.5 c 128,-1,50
 217 352 217 352 259 352 c 0,51,52
 284 352 284 352 308.5 359 c 128,-1,53
 333 366 333 366 351 384 c 0,36,37
EndSplineSet
Substitution2: "'dnom' Denominators in Latin lookup 92 subtable" nine.dnom
Substitution2: "'numr' Numerators in Latin lookup 91 subtable" nine.numr
EndChar

StartChar: colon
Encoding: 58 58 29
Width: 184
GlyphClass: 1
Flags: W
LayerCount: 2
Fore
SplineSet
35 398 m 256,0,1
 35 421 35 421 52 438 c 128,-1,2
 69 455 69 455 93 455 c 0,3,4
 116 455 116 455 132.5 438 c 128,-1,5
 149 421 149 421 149 398 c 256,6,7
 149 375 149 375 132.5 358 c 128,-1,8
 116 341 116 341 93 341 c 0,9,10
 69 341 69 341 52 358 c 128,-1,11
 35 375 35 375 35 398 c 256,0,1
35 45 m 256,12,13
 35 68 35 68 52 85 c 128,-1,14
 69 102 69 102 93 102 c 0,15,16
 116 102 116 102 132.5 85 c 128,-1,17
 149 68 149 68 149 45 c 256,18,19
 149 22 149 22 132.5 5 c 128,-1,20
 116 -12 116 -12 93 -12 c 0,21,22
 69 -12 69 -12 52 5 c 128,-1,23
 35 22 35 22 35 45 c 256,12,13
EndSplineSet
Substitution2: "'locl' Localized Forms in Latin lookup 94 subtable" colon.1
EndChar

StartChar: semicolon
Encoding: 59 59 30
Width: 193
GlyphClass: 1
Flags: W
LayerCount: 2
Fore
SplineSet
29 400 m 256,0,1
 29 423 29 423 46 440 c 128,-1,2
 63 457 63 457 87 457 c 0,3,4
 110 457 110 457 126.5 440 c 128,-1,5
 143 423 143 423 143 400 c 256,6,7
 143 377 143 377 126.5 360 c 128,-1,8
 110 343 110 343 87 343 c 0,9,10
 63 343 63 343 46 360 c 128,-1,11
 29 377 29 377 29 400 c 256,0,1
70 -190 m 1,12,-1
 55 -177 l 1,13,14
 73 -153 73 -153 87.5 -122 c 128,-1,15
 102 -91 102 -91 102 -64 c 0,16,17
 102 -53 102 -53 98 -44 c 128,-1,18
 94 -35 94 -35 89 -26 c 2,19,-1
 55 25 l 2,20,21
 51 31 51 31 48.5 37.5 c 128,-1,22
 46 44 46 44 46 51 c 0,23,24
 46 60 46 60 47.5 70 c 128,-1,25
 49 80 49 80 55 86 c 2,26,-1
 57 88 l 2,27,28
 71 99 71 99 89 99 c 0,29,30
 102 99 102 99 114.5 86 c 128,-1,31
 127 73 127 73 137.5 53 c 128,-1,32
 148 33 148 33 154 13 c 128,-1,33
 160 -7 160 -7 160 -22 c 0,34,35
 160 -52 160 -52 146 -81.5 c 128,-1,36
 132 -111 132 -111 111 -138 c 128,-1,37
 90 -165 90 -165 70 -190 c 1,12,-1
EndSplineSet
EndChar

StartChar: less
Encoding: 60 60 31
Width: 710
GlyphClass: 1
Flags: W
LayerCount: 2
Fore
SplineSet
653 528 m 1,0,-1
 662 505 l 1,1,-1
 660 496 l 1,2,-1
 138 255 l 1,3,-1
 138 243 l 1,4,-1
 657 2 l 1,5,-1
 662 -8 l 1,6,-1
 651 -31 l 1,7,-1
 641 -36 l 1,8,-1
 41 244 l 1,9,-1
 41 256 l 1,10,-1
 642 531 l 1,11,-1
 653 528 l 1,0,-1
EndSplineSet
EndChar

StartChar: equal
Encoding: 61 61 32
Width: 823
GlyphClass: 1
Flags: W
LayerCount: 2
Fore
SplineSet
745 369 m 1,0,-1
 739 329 l 1,1,-1
 77 329 l 1,2,-1
 84 369 l 1,3,-1
 745 369 l 1,0,-1
745 172 m 1,4,-1
 739 132 l 1,5,-1
 77 132 l 1,6,-1
 84 172 l 1,7,-1
 745 172 l 1,4,-1
EndSplineSet
EndChar

StartChar: greater
Encoding: 62 62 33
Width: 711
GlyphClass: 1
Flags: W
LayerCount: 2
Fore
SplineSet
574 254 m 1,0,-1
 50 494 l 1,1,-1
 48 504 l 1,2,-1
 58 528 l 1,3,-1
 68 531 l 1,4,-1
 670 256 l 1,5,-1
 670 244 l 1,6,-1
 70 -36 l 1,7,-1
 60 -31 l 1,8,-1
 52 -7 l 1,9,-1
 56 2 l 1,10,-1
 574 245 l 1,11,-1
 574 254 l 1,0,-1
EndSplineSet
EndChar

StartChar: question
Encoding: 63 63 34
Width: 353
GlyphClass: 1
Flags: W
LayerCount: 2
Fore
SplineSet
162 222 m 1,0,-1
 162 211 l 1,1,-1
 116 179 l 1,2,3
 99 190 99 190 86.5 209 c 128,-1,4
 74 228 74 228 74 250 c 0,5,6
 74 265 74 265 82 279 c 128,-1,7
 90 293 90 293 100 305 c 0,8,9
 124 336 124 336 152 362 c 128,-1,10
 180 388 180 388 205.5 414 c 128,-1,11
 231 440 231 440 247 471.5 c 128,-1,12
 263 503 263 503 263 545 c 0,13,14
 263 572 263 572 249 599 c 128,-1,15
 235 626 235 626 212.5 643.5 c 128,-1,16
 190 661 190 661 165 661 c 0,17,18
 136 661 136 661 110 642 c 128,-1,19
 84 623 84 623 84 589 c 0,20,21
 84 571 84 571 93 555 c 128,-1,22
 102 539 102 539 116 528 c 1,23,-1
 49 488 l 1,24,25
 36 500 36 500 28.5 519 c 128,-1,26
 21 538 21 538 21 557 c 0,27,28
 21 588 21 588 38.5 613 c 128,-1,29
 56 638 56 638 83.5 656 c 128,-1,30
 111 674 111 674 143 683.5 c 128,-1,31
 175 693 175 693 205 693 c 0,32,33
 262 693 262 693 298 658 c 128,-1,34
 334 623 334 623 334 565 c 0,35,36
 334 540 334 540 325.5 519 c 128,-1,37
 317 498 317 498 304 476 c 0,38,39
 286 446 286 446 258 419.5 c 128,-1,40
 230 393 230 393 202 368.5 c 128,-1,41
 174 344 174 344 154.5 320.5 c 128,-1,42
 135 297 135 297 135 274 c 0,43,44
 135 242 135 242 162 222 c 1,0,-1
82 46 m 256,45,46
 82 69 82 69 98.5 86 c 128,-1,47
 115 103 115 103 138 103 c 0,48,49
 162 103 162 103 179 86 c 128,-1,50
 196 69 196 69 196 46 c 256,51,52
 196 23 196 23 179 6 c 128,-1,53
 162 -11 162 -11 138 -11 c 0,54,55
 115 -11 115 -11 98.5 6 c 128,-1,56
 82 23 82 23 82 46 c 256,45,46
EndSplineSet
EndChar

StartChar: at
Encoding: 64 64 35
Width: 728
GlyphClass: 1
Flags: W
LayerCount: 2
Fore
SplineSet
472 371 m 1,0,-1
 514 393 l 1,1,-1
 518 389 l 1,2,3
 515 350 515 350 514.5 311 c 128,-1,4
 514 272 514 272 514 233 c 0,5,6
 514 213 514 213 514.5 192 c 128,-1,7
 515 171 515 171 515 151 c 0,8,9
 515 138 515 138 519.5 121.5 c 128,-1,10
 524 105 524 105 544 105 c 0,11,12
 576 105 576 105 595 129.5 c 128,-1,13
 614 154 614 154 623 188 c 128,-1,14
 632 222 632 222 634 249 c 0,15,16
 639 316 639 316 614 369 c 128,-1,17
 589 422 589 422 543 457.5 c 128,-1,18
 497 493 497 493 438 507 c 128,-1,19
 379 521 379 521 316 509 c 0,20,21
 276 502 276 502 239.5 483.5 c 128,-1,22
 203 465 203 465 171 439 c 1,23,24
 137 398 137 398 119 345 c 128,-1,25
 101 292 101 292 100.5 236 c 128,-1,26
 100 180 100 180 117.5 127.5 c 128,-1,27
 135 75 135 75 172 36 c 0,28,29
 204 7 204 7 246.5 -12.5 c 128,-1,30
 289 -32 289 -32 339 -36 c 1,31,-1
 353 -51 l 1,32,-1
 310 -93 l 1,33,34
 258 -89 258 -89 213.5 -67 c 128,-1,35
 169 -45 169 -45 134.5 -12 c 128,-1,36
 100 21 100 21 78 59 c 0,37,38
 50 108 50 108 42.5 163 c 128,-1,39
 35 218 35 218 46.5 271.5 c 128,-1,40
 58 325 58 325 86 371 c 0,41,42
 112 414 112 414 152 454.5 c 128,-1,43
 192 495 192 495 241.5 525 c 128,-1,44
 291 555 291 555 345 565 c 0,45,46
 411 578 411 578 474.5 561 c 128,-1,47
 538 544 538 544 589 503.5 c 128,-1,48
 640 463 640 463 668 404.5 c 128,-1,49
 696 346 696 346 691 277 c 0,50,51
 687 230 687 230 668 190.5 c 128,-1,52
 649 151 649 151 620 122 c 0,53,54
 608 109 608 109 586.5 94.5 c 128,-1,55
 565 80 565 80 541.5 70.5 c 128,-1,56
 518 61 518 61 501 61 c 0,57,58
 479 61 479 61 469.5 72.5 c 128,-1,59
 460 84 460 84 457 102 c 1,60,-1
 445 105 l 1,61,62
 416 89 416 89 383.5 75 c 128,-1,63
 351 61 351 61 316 61 c 0,64,65
 272 61 272 61 246.5 82 c 128,-1,66
 221 103 221 103 210 135 c 128,-1,67
 199 167 199 167 199 199 c 0,68,69
 199 249 199 249 218.5 293.5 c 128,-1,70
 238 338 238 338 279.5 366.5 c 128,-1,71
 321 395 321 395 387 395 c 0,72,73
 406 395 406 395 429.5 389 c 128,-1,74
 453 383 453 383 472 371 c 1,0,-1
455 138 m 1,75,-1
 455 299 l 2,76,77
 455 313 455 313 453.5 326 c 128,-1,78
 452 339 452 339 442 348 c 0,79,80
 432 358 432 358 418 364.5 c 128,-1,81
 404 371 404 371 389 371 c 0,82,83
 345 371 345 371 313 344 c 0,84,85
 300 333 300 333 285.5 303 c 128,-1,86
 271 273 271 273 270 220 c 0,87,88
 269 198 269 198 274.5 176 c 128,-1,89
 280 154 280 154 293 136 c 0,90,91
 306 119 306 119 327.5 113 c 128,-1,92
 349 107 349 107 371 107 c 0,93,94
 395 107 395 107 416.5 117 c 128,-1,95
 438 127 438 127 455 138 c 1,75,-1
EndSplineSet
EndChar

StartChar: A
Encoding: 65 65 36
Width: 722
GlyphClass: 2
Flags: W
AnchorPoint: "Anchor-10" 352 680 basechar 0
AnchorPoint: "Anchor-9" 331 0 basechar 0
LayerCount: 2
Fore
SplineSet
572 -10 m 0,0,1
 547 -10 547 -10 535 16.5 c 128,-1,2
 523 43 523 43 514 76 c 2,3,-1
 460 264 l 2,4,5
 456 273 456 273 449 273 c 2,6,-1
 224 273 l 2,7,8
 218 273 218 273 214 265 c 2,9,-1
 97 17 l 1,10,-1
 6 -2 l 1,11,-1
 3 8 l 1,12,13
 92 158 92 158 177.5 311 c 128,-1,14
 263 464 263 464 342 620 c 0,15,16
 343 623 343 623 343 627 c 0,17,18
 343 629 343 629 340.5 633 c 128,-1,19
 338 637 338 637 331 638 c 2,20,-1
 241 653 l 1,21,-1
 241 680 l 1,22,-1
 435 680 l 1,23,24
 443 639 443 639 458.5 576.5 c 128,-1,25
 474 514 474 514 493 445.5 c 128,-1,26
 512 377 512 377 528 317 c 0,27,28
 545 256 545 256 565.5 190 c 128,-1,29
 586 124 586 124 613 79 c 0,30,31
 623 63 623 63 640 56 c 128,-1,32
 657 49 657 49 677 49 c 0,33,34
 688 49 688 49 699 50 c 128,-1,35
 710 51 710 51 720 52 c 1,36,-1
 721 26 l 1,37,-1
 617 -4 l 2,38,39
 595 -10 595 -10 572 -10 c 0,0,1
366 576 m 0,40,41
 360 576 360 576 360 572 c 2,42,-1
 244 328 l 2,43,44
 243 327 243 327 243 323.5 c 128,-1,45
 243 320 243 320 243 319 c 0,46,47
 243 312 243 312 250 312 c 2,48,-1
 438 312 l 2,49,50
 445 312 445 312 445 319 c 2,51,52
 445 319 445 319 444 323 c 128,-1,53
 443 327 443 327 443 328 c 2,54,-1
 373 572 l 2,55,56
 371 576 371 576 366 576 c 0,40,41
EndSplineSet
EndChar

StartChar: B
Encoding: 66 66 37
Width: 559
GlyphClass: 1
Flags: W
LayerCount: 2
Fore
SplineSet
335 378 m 1,0,-1
 334 370 l 1,1,2
 444 356 444 356 486 315.5 c 128,-1,3
 528 275 528 275 528 201 c 0,4,5
 528 143 528 143 504 104 c 128,-1,6
 480 65 480 65 441 42 c 128,-1,7
 402 19 402 19 355 9 c 128,-1,8
 308 -1 308 -1 263 -1 c 0,9,10
 238 -1 238 -1 204.5 -0.5 c 128,-1,11
 171 0 171 0 139.5 0 c 128,-1,12
 108 0 108 0 86.5 0.5 c 128,-1,13
 65 1 65 1 65 1 c 1,14,-1
 64 11 l 1,15,16
 74 26 74 26 79 30.5 c 128,-1,17
 84 35 84 35 85.5 44 c 128,-1,18
 87 53 87 53 87 81 c 2,19,-1
 87 611 l 2,20,21
 87 628 87 628 74 637.5 c 128,-1,22
 61 647 61 647 42 652 c 128,-1,23
 23 657 23 657 4 662 c 1,24,-1
 5 679 l 1,25,-1
 12 686 l 1,26,-1
 259 686 l 2,27,28
 301 686 301 686 342 680.5 c 128,-1,29
 383 675 383 675 416 660.5 c 128,-1,30
 449 646 449 646 468.5 620 c 128,-1,31
 488 594 488 594 488 553 c 0,32,33
 488 504 488 504 466.5 471.5 c 128,-1,34
 445 439 445 439 410.5 417 c 128,-1,35
 376 395 376 395 335 378 c 1,0,-1
169 629 m 2,36,-1
 169 391 l 2,37,38
 171 384 171 384 179.5 382.5 c 128,-1,39
 188 381 188 381 203 381 c 0,40,41
 256 381 256 381 301.5 397.5 c 128,-1,42
 347 414 347 414 375 450 c 128,-1,43
 403 486 403 486 403 545 c 0,44,45
 403 587 403 587 380.5 609 c 128,-1,46
 358 631 358 631 321.5 639.5 c 128,-1,47
 285 648 285 648 242 648 c 0,48,49
 231 648 231 648 214.5 647.5 c 128,-1,50
 198 647 198 647 185 643.5 c 128,-1,51
 172 640 172 640 169 629 c 2,36,-1
169 338 m 1,52,-1
 169 66 l 2,53,54
 169 49 169 49 181.5 44 c 128,-1,55
 194 39 194 39 244 39 c 0,56,57
 295 39 295 39 339 57 c 128,-1,58
 383 75 383 75 410 112.5 c 128,-1,59
 437 150 437 150 437 208 c 0,60,61
 437 253 437 253 419 280 c 128,-1,62
 401 307 401 307 371.5 321.5 c 128,-1,63
 342 336 342 336 305.5 341 c 128,-1,64
 269 346 269 346 231 346 c 0,65,66
 204 346 204 346 188.5 346 c 128,-1,67
 173 346 173 346 169 338 c 1,52,-1
EndSplineSet
EndChar

StartChar: C
Encoding: 67 67 38
Width: 633
GlyphClass: 2
Flags: W
AnchorPoint: "Anchor-10" 317 683 basechar 0
AnchorPoint: "Anchor-9" 357 0 basechar 0
LayerCount: 2
Fore
SplineSet
624 586 m 1,0,-1
 567 528 l 1,1,-1
 553 529 l 1,2,3
 528 597 528 597 482 627.5 c 128,-1,4
 436 658 436 658 374 658 c 0,5,6
 306 658 306 658 259 631 c 128,-1,7
 212 604 212 604 183 558 c 128,-1,8
 154 512 154 512 141 456.5 c 128,-1,9
 128 401 128 401 128 344 c 0,10,11
 128 298 128 298 141.5 253 c 128,-1,12
 155 208 155 208 174 173 c 128,-1,13
 193 138 193 138 209 121 c 0,14,15
 250 80 250 80 288.5 59 c 128,-1,16
 327 38 327 38 388 38 c 0,17,18
 439 38 439 38 486 57.5 c 128,-1,19
 533 77 533 77 575 105 c 1,20,-1
 592 76 l 1,21,22
 538 39 538 39 478 12 c 128,-1,23
 418 -15 418 -15 353 -15 c 0,24,25
 294 -15 294 -15 236 0.5 c 128,-1,26
 178 16 178 16 135 59 c 0,27,28
 83 112 83 112 61 182.5 c 128,-1,29
 39 253 39 253 39 326 c 0,30,31
 39 398 39 398 58.5 468 c 128,-1,32
 78 538 78 538 130 590 c 0,33,34
 185 645 185 645 257.5 672 c 128,-1,35
 330 699 330 699 408 699 c 0,36,37
 474 699 474 699 529.5 674.5 c 128,-1,38
 585 650 585 650 624 586 c 1,0,-1
EndSplineSet
EndChar

StartChar: D
Encoding: 68 68 39
Width: 737
GlyphClass: 1
Flags: W
LayerCount: 2
Fore
SplineSet
295 2 m 2,0,-1
 64 2 l 1,1,-1
 64 12 l 1,2,3
 79 23 79 23 82 37 c 128,-1,4
 85 51 85 51 86 79 c 2,5,-1
 86 573 l 2,6,7
 86 585 86 585 85.5 597 c 128,-1,8
 85 609 85 609 84 620 c 0,9,10
 83 633 83 633 70 640 c 128,-1,11
 57 647 57 647 39.5 651 c 128,-1,12
 22 655 22 655 9 659 c 1,13,-1
 9 678 l 1,14,-1
 16 686 l 1,15,-1
 329 686 l 2,16,17
 445 686 445 686 517.5 664 c 128,-1,18
 590 642 590 642 628.5 602 c 128,-1,19
 667 562 667 562 681.5 506.5 c 128,-1,20
 696 451 696 451 696 385 c 0,21,22
 696 290 696 290 675.5 221.5 c 128,-1,23
 655 153 655 153 597 91 c 0,24,25
 564 55 564 55 512.5 35.5 c 128,-1,26
 461 16 461 16 404 9 c 128,-1,27
 347 2 347 2 295 2 c 2,0,-1
170 575 m 2,28,-1
 170 170 l 2,29,30
 171 150 171 150 172 125.5 c 128,-1,31
 173 101 173 101 177 81 c 128,-1,32
 181 61 181 61 188 53 c 0,33,34
 198 43 198 43 222.5 41.5 c 128,-1,35
 247 40 247 40 267 40 c 0,36,37
 368 40 368 40 433.5 68.5 c 128,-1,38
 499 97 499 97 536 145.5 c 128,-1,39
 573 194 573 194 587.5 254 c 128,-1,40
 602 314 602 314 602 377 c 0,41,42
 602 408 602 408 595.5 447 c 128,-1,43
 589 486 589 486 573 524.5 c 128,-1,44
 557 563 557 563 529 591 c 0,45,46
 493 626 493 626 420.5 635.5 c 128,-1,47
 348 645 348 645 250 645 c 0,48,49
 218 645 218 645 203.5 644 c 128,-1,50
 189 643 189 643 184 641 c 256,51,52
 179 639 179 639 176 637.5 c 128,-1,53
 173 636 173 636 171.5 623.5 c 128,-1,54
 170 611 170 611 170 575 c 2,28,-1
EndSplineSet
EndChar

StartChar: E
Encoding: 69 69 40
Width: 518
GlyphClass: 2
Flags: W
AnchorPoint: "Anchor-10" 270 683 basechar 0
AnchorPoint: "Anchor-9" 259 0 basechar 0
LayerCount: 2
Fore
SplineSet
417 384 m 1,0,-1
 411 336 l 1,1,2
 382 338 382 338 352 340 c 128,-1,3
 322 342 322 342 293 342 c 256,4,5
 264 342 264 342 234 342 c 128,-1,6
 204 342 204 342 184 339 c 128,-1,7
 164 336 164 336 164 327 c 2,8,-1
 164 188 l 2,9,10
 164 160 164 160 166.5 127.5 c 128,-1,11
 169 95 169 95 179 76 c 0,12,13
 190 57 190 57 209.5 50.5 c 128,-1,14
 229 44 229 44 275 44 c 0,15,16
 293 44 293 44 309 44.5 c 128,-1,17
 325 45 325 45 348 46 c 128,-1,18
 371 47 371 47 409.5 50 c 128,-1,19
 448 53 448 53 509 58 c 1,20,-1
 514 53 l 1,21,-1
 501 0 l 1,22,-1
 113 0 l 1,23,24
 98 8 98 8 92.5 27 c 128,-1,25
 87 46 87 46 87 66 c 2,26,-1
 87 558 l 2,27,28
 87 569 87 569 86 588 c 128,-1,29
 85 607 85 607 78 622 c 0,30,31
 74 632 74 632 55.5 640.5 c 128,-1,32
 37 649 37 649 2 654 c 1,33,-1
 1 674 l 1,34,-1
 8 681 l 1,35,-1
 156 682 l 2,36,37
 191 682 191 682 234 683.5 c 128,-1,38
 277 685 277 685 320 686.5 c 128,-1,39
 363 688 363 688 398 688 c 0,40,41
 412 688 412 688 423 688 c 128,-1,42
 434 688 434 688 444 687 c 1,43,-1
 442 637 l 1,44,-1
 438 630 l 1,45,46
 412 632 412 632 377.5 633.5 c 128,-1,47
 343 635 343 635 310 636.5 c 128,-1,48
 277 638 277 638 254.5 639 c 128,-1,49
 232 640 232 640 229 640 c 2,50,-1
 189 640 l 2,51,52
 174 637 174 637 169.5 613.5 c 128,-1,53
 165 590 165 590 165 564 c 2,54,-1
 165 398 l 2,55,56
 165 385 165 385 184 384.5 c 128,-1,57
 203 384 203 384 231 384 c 0,58,59
 271 384 271 384 321 386 c 128,-1,60
 371 388 371 388 411 391 c 1,61,-1
 417 384 l 1,0,-1
EndSplineSet
EndChar

StartChar: F
Encoding: 70 70 41
Width: 441
GlyphClass: 1
Flags: W
LayerCount: 2
Fore
SplineSet
87 360 m 2,0,-1
 89 521 l 2,1,2
 89 543 89 543 89 570.5 c 128,-1,3
 89 598 89 598 82.5 620 c 128,-1,4
 76 642 76 642 56 647 c 2,5,-1
 1 660 l 1,6,-1
 1 681 l 1,7,-1
 8 688 l 1,8,9
 61 688 61 688 123 688 c 128,-1,10
 185 688 185 688 244.5 688 c 128,-1,11
 304 688 304 688 353 688.5 c 128,-1,12
 402 689 402 689 429 690 c 1,13,-1
 429 637 l 1,14,-1
 421 629 l 1,15,16
 367 633 367 633 313 641 c 128,-1,17
 259 649 259 649 205 649 c 0,18,19
 195 649 195 649 186 644 c 128,-1,20
 177 639 177 639 173 626 c 0,21,22
 172 621 172 621 170.5 612.5 c 128,-1,23
 169 604 169 604 168 582 c 128,-1,24
 167 560 167 560 166.5 515 c 128,-1,25
 166 470 166 470 166 391 c 0,26,27
 166 387 166 387 169 382.5 c 128,-1,28
 172 378 172 378 179 378 c 0,29,30
 234 378 234 378 297 383 c 128,-1,31
 360 388 360 388 414 390 c 1,32,-1
 413 341 l 1,33,-1
 408 336 l 1,34,35
 356 339 356 339 294 340 c 128,-1,36
 232 341 232 341 179 341 c 0,37,38
 175 341 175 341 171 338 c 128,-1,39
 167 335 167 335 167 330 c 0,40,41
 167 254 167 254 168 171.5 c 128,-1,42
 169 89 169 89 172 13 c 1,43,-1
 80 -2 l 1,44,45
 83 89 83 89 85 179 c 128,-1,46
 87 269 87 269 87 360 c 2,0,-1
EndSplineSet
EndChar

StartChar: G
Encoding: 71 71 42
Width: 661
GlyphClass: 1
Flags: W
LayerCount: 2
Fore
SplineSet
325 270 m 1,0,-1
 325 296 l 1,1,-1
 601 307 l 1,2,3
 602 273 602 273 602.5 226.5 c 128,-1,4
 603 180 603 180 604 136 c 128,-1,5
 605 92 605 92 605.5 62.5 c 128,-1,6
 606 33 606 33 606 33 c 1,7,8
 562 22 562 22 513.5 10 c 128,-1,9
 465 -2 465 -2 419.5 -9.5 c 128,-1,10
 374 -17 374 -17 337 -17 c 0,11,12
 280 -17 280 -17 226.5 3 c 128,-1,13
 173 23 173 23 132 63 c 0,14,15
 81 114 81 114 60 183.5 c 128,-1,16
 39 253 39 253 39 324 c 0,17,18
 39 398 39 398 59 469.5 c 128,-1,19
 79 541 79 541 131 593 c 0,20,21
 187 649 187 649 262 674 c 128,-1,22
 337 699 337 699 416 699 c 0,23,24
 481 699 481 699 533 673 c 128,-1,25
 585 647 585 647 625 586 c 1,26,-1
 567 529 l 1,27,-1
 555 530 l 1,28,29
 522 596 522 596 477 623 c 128,-1,30
 432 650 432 650 371 650 c 0,31,32
 301 650 301 650 254 623.5 c 128,-1,33
 207 597 207 597 179.5 552 c 128,-1,34
 152 507 152 507 140.5 452 c 128,-1,35
 129 397 129 397 129 340 c 0,36,37
 129 285 129 285 145 231 c 128,-1,38
 161 177 161 177 194.5 132.5 c 128,-1,39
 228 88 228 88 281 61.5 c 128,-1,40
 334 35 334 35 407 35 c 0,41,42
 457 35 457 35 501 45 c 0,43,44
 514 48 514 48 518 63.5 c 128,-1,45
 522 79 522 79 521.5 99 c 128,-1,46
 521 119 521 119 521 134 c 0,47,48
 521 142 521 142 522 160.5 c 128,-1,49
 523 179 523 179 521.5 201 c 128,-1,50
 520 223 520 223 513.5 239 c 128,-1,51
 507 255 507 255 493 256 c 0,52,53
 460 259 460 259 416 261.5 c 128,-1,54
 372 264 372 264 331 265 c 1,55,-1
 325 270 l 1,0,-1
EndSplineSet
EndChar

StartChar: H
Encoding: 72 72 43
Width: 706
GlyphClass: 1
Flags: W
LayerCount: 2
Fore
SplineSet
699 32 m 2,0,-1
 700 14 l 1,1,-1
 694 0 l 1,2,-1
 545 0 l 1,3,-1
 534 21 l 1,4,5
 536 94 536 94 537.5 177.5 c 128,-1,6
 539 261 539 261 539 334 c 0,7,8
 539 338 539 338 536.5 342 c 128,-1,9
 534 346 534 346 527 346 c 2,10,-1
 184 346 l 2,11,12
 171 346 171 346 171 334 c 0,13,14
 171 300 171 300 170.5 259.5 c 128,-1,15
 170 219 170 219 170 178 c 0,16,17
 170 135 170 135 171 99.5 c 128,-1,18
 172 64 172 64 176 26 c 1,19,-1
 84 -2 l 1,20,-1
 78 3 l 1,21,22
 86 88 86 88 87 182 c 128,-1,23
 88 276 88 276 88 367 c 0,24,25
 88 429 88 429 87.5 491.5 c 128,-1,26
 87 554 87 554 82 616 c 0,27,28
 81 630 81 630 74.5 635 c 128,-1,29
 68 640 68 640 53 644.5 c 128,-1,30
 38 649 38 649 9 659 c 1,31,-1
 8 678 l 1,32,-1
 15 685 l 1,33,-1
 177 685 l 1,34,-1
 182 680 l 1,35,36
 176 646 176 646 173 597.5 c 128,-1,37
 170 549 170 549 169.5 496 c 128,-1,38
 169 443 169 443 169 397 c 0,39,40
 169 393 169 393 171.5 389 c 128,-1,41
 174 385 174 385 181 385 c 2,42,-1
 527 385 l 2,43,44
 535 385 535 385 537 389 c 128,-1,45
 539 393 539 393 539 397 c 0,46,47
 539 462 539 462 537.5 535.5 c 128,-1,48
 536 609 536 609 536 673 c 1,49,-1
 624 690 l 1,50,-1
 629 684 l 1,51,52
 622 593 622 593 620 503 c 128,-1,53
 618 413 618 413 618 322 c 0,54,55
 618 261 618 261 619 200.5 c 128,-1,56
 620 140 620 140 622 79 c 0,57,58
 622 66 622 66 632.5 56.5 c 128,-1,59
 643 47 643 47 657.5 42 c 128,-1,60
 672 37 672 37 684 34.5 c 128,-1,61
 696 32 696 32 699 32 c 2,0,-1
EndSplineSet
EndChar

StartChar: I
Encoding: 73 73 44
Width: 280
GlyphClass: 2
Flags: W
AnchorPoint: "Anchor-10" 137 683 basechar 0
AnchorPoint: "Anchor-9" 141 0 basechar 0
LayerCount: 2
Fore
SplineSet
275 23 m 1,0,-1
 273 -1 l 1,1,-1
 8 -1 l 1,2,-1
 8 25 l 1,3,4
 45 32 45 32 63 38.5 c 128,-1,5
 81 45 81 45 87.5 55.5 c 128,-1,6
 94 66 94 66 95 84.5 c 128,-1,7
 96 103 96 103 97 134 c 2,8,-1
 97 497 l 2,9,10
 97 526 97 526 96.5 555 c 128,-1,11
 96 584 96 584 94 612 c 0,12,13
 93 627 93 627 87.5 632.5 c 128,-1,14
 82 638 82 638 63.5 642 c 128,-1,15
 45 646 45 646 5 655 c 1,16,-1
 5 677 l 1,17,-1
 12 683 l 1,18,-1
 262 683 l 1,19,-1
 268 677 l 1,20,-1
 268 656 l 1,21,-1
 201 641 l 2,22,23
 181 636 181 636 179 615 c 0,24,25
 175 586 175 586 174.5 540.5 c 128,-1,26
 174 495 174 495 175 446.5 c 128,-1,27
 176 398 176 398 176 359 c 0,28,29
 176 309 176 309 176.5 262 c 128,-1,30
 177 215 177 215 178 169 c 0,31,32
 179 148 179 148 178 119.5 c 128,-1,33
 177 91 177 91 183 68.5 c 128,-1,34
 189 46 189 46 210 40 c 0,35,36
 221 37 221 37 236 33 c 128,-1,37
 251 29 251 29 263 26 c 128,-1,38
 275 23 275 23 275 23 c 1,0,-1
EndSplineSet
EndChar

StartChar: J
Encoding: 74 74 45
Width: 265
GlyphClass: 1
Flags: W
LayerCount: 2
Fore
SplineSet
175 608 m 2,0,-1
 175 91 l 2,1,2
 175 -25 175 -25 127.5 -103.5 c 128,-1,3
 80 -182 80 -182 -21 -234 c 1,4,-1
 -35 -216 l 1,5,6
 -6 -198 -6 -198 17.5 -175 c 128,-1,7
 41 -152 41 -152 57 -117.5 c 128,-1,8
 73 -83 73 -83 81.5 -31.5 c 128,-1,9
 90 20 90 20 90 96 c 2,10,-1
 90 608 l 2,11,12
 90 616 90 616 86.5 629.5 c 128,-1,13
 83 643 83 643 74 645 c 2,14,-1
 2 663 l 1,15,-1
 2 684 l 1,16,-1
 9 690 l 1,17,-1
 259 690 l 1,18,-1
 266 684 l 1,19,-1
 264 660 l 1,20,-1
 196 646 l 2,21,22
 187 644 187 644 181 633 c 128,-1,23
 175 622 175 622 175 608 c 2,0,-1
EndSplineSet
EndChar

StartChar: K
Encoding: 75 75 46
Width: 593
GlyphClass: 1
Flags: W
LayerCount: 2
Fore
SplineSet
178 319 m 1,0,-1
 169 318 l 1,1,2
 169 245 169 245 170 171.5 c 128,-1,3
 171 98 171 98 175 25 c 1,4,-1
 94 -4 l 1,5,-1
 86 1 l 1,6,-1
 86 595 l 2,7,8
 86 603 86 603 85 611 c 128,-1,9
 84 619 84 619 81 626 c 0,10,11
 77 635 77 635 59.5 642.5 c 128,-1,12
 42 650 42 650 25.5 654.5 c 128,-1,13
 9 659 9 659 6 659 c 1,14,-1
 8 676 l 1,15,-1
 16 683 l 1,16,-1
 174 683 l 1,17,-1
 181 676 l 1,18,19
 176 660 176 660 172.5 623.5 c 128,-1,20
 169 587 169 587 167.5 523 c 128,-1,21
 166 459 166 459 166 358 c 1,22,-1
 174 357 l 1,23,-1
 461 683 l 1,24,-1
 551 683 l 1,25,-1
 550 674 l 1,26,-1
 259 380 l 2,27,28
 257 378 257 378 254 374.5 c 128,-1,29
 251 371 251 371 251 369 c 0,30,31
 251 365 251 365 256 360 c 0,32,33
 296 320 296 320 344 272 c 128,-1,34
 392 224 392 224 439.5 177.5 c 128,-1,35
 487 131 487 131 526.5 93 c 128,-1,36
 566 55 566 55 589 35 c 1,37,-1
 588 24 l 1,38,-1
 503 -7 l 1,39,40
 424 77 424 77 341.5 157 c 128,-1,41
 259 237 259 237 178 319 c 1,0,-1
EndSplineSet
EndChar

StartChar: L
Encoding: 76 76 47
Width: 494
GlyphClass: 1
Flags: W
LayerCount: 2
Fore
SplineSet
482 58 m 2,0,-1
 492 48 l 1,1,-1
 478 -5 l 1,2,3
 450 -2 450 -2 402 -0.5 c 128,-1,4
 354 1 354 1 295.5 1.5 c 128,-1,5
 237 2 237 2 177 2 c 128,-1,6
 117 2 117 2 65 2 c 1,7,-1
 65 16 l 1,8,9
 77 33 77 33 82 68.5 c 128,-1,10
 87 104 87 104 87 143 c 2,11,-1
 87 621 l 2,12,13
 87 632 87 632 82 642 c 128,-1,14
 77 652 77 652 66 654 c 0,15,16
 56 656 56 656 42.5 659 c 128,-1,17
 29 662 29 662 19 664 c 128,-1,18
 9 666 9 666 8 666 c 1,19,-1
 9 683 l 1,20,-1
 16 690 l 1,21,-1
 253 690 l 1,22,-1
 259 684 l 1,23,-1
 259 663 l 1,24,25
 259 663 259 663 247 660.5 c 128,-1,26
 235 658 235 658 220 655 c 128,-1,27
 205 652 205 652 194 649 c 0,28,29
 185 648 185 648 181 640 c 128,-1,30
 177 632 177 632 176 624 c 0,31,32
 170 515 170 515 170 393 c 0,33,34
 170 308 170 308 172 222.5 c 128,-1,35
 174 137 174 137 177 56 c 0,36,37
 178 52 178 52 182 47.5 c 128,-1,38
 186 43 186 43 190 43 c 0,39,40
 229 43 229 43 278 45 c 128,-1,41
 327 47 327 47 373 50 c 128,-1,42
 419 53 419 53 449.5 55.5 c 128,-1,43
 480 58 480 58 482 58 c 2,0,-1
EndSplineSet
EndChar

StartChar: M
Encoding: 77 77 48
Width: 962
GlyphClass: 1
Flags: W
LayerCount: 2
Fore
SplineSet
475 147 m 2,0,-1
 751 690 l 1,1,-1
 854 690 l 1,2,-1
 854 678 l 1,3,4
 834 668 834 668 831.5 642 c 128,-1,5
 829 616 829 616 829 583 c 0,6,7
 829 460 829 460 831.5 342.5 c 128,-1,8
 834 225 834 225 847 102 c 0,9,10
 849 80 849 80 864.5 63 c 128,-1,11
 880 46 880 46 905 46 c 0,12,13
 915 46 915 46 931.5 48.5 c 128,-1,14
 948 51 948 51 961 52 c 1,15,-1
 961 28 l 1,16,17
 928 16 928 16 891.5 5 c 128,-1,18
 855 -6 855 -6 825 -6 c 0,19,20
 803 -6 803 -6 782.5 2 c 128,-1,21
 762 10 762 10 762 29 c 2,22,-1
 762 211 l 2,23,24
 762 219 762 219 761 249 c 128,-1,25
 760 279 760 279 759 321.5 c 128,-1,26
 758 364 758 364 756.5 408.5 c 128,-1,27
 755 453 755 453 754 490.5 c 128,-1,28
 753 528 753 528 752 548 c 0,29,30
 752 563 752 563 744 563 c 0,31,32
 738 563 738 563 733 555 c 2,33,-1
 447 1 l 1,34,-1
 417 1 l 1,35,36
 389 69 389 69 358 142.5 c 128,-1,37
 327 216 327 216 296.5 289 c 128,-1,38
 266 362 266 362 237.5 426 c 128,-1,39
 209 490 209 490 185 538 c 0,40,41
 179 548 179 548 174 548 c 256,42,43
 169 548 169 548 163 516 c 128,-1,44
 157 484 157 484 150.5 432 c 128,-1,45
 144 380 144 380 138 319 c 128,-1,46
 132 258 132 258 126.5 198.5 c 128,-1,47
 121 139 121 139 117.5 92.5 c 128,-1,48
 114 46 114 46 112 23 c 1,49,-1
 37 -3 l 1,50,-1
 30 0 l 1,51,52
 59 147 59 147 84.5 295 c 128,-1,53
 110 443 110 443 130 591 c 0,54,55
 131 594 131 594 131 597 c 128,-1,56
 131 600 131 600 131 603 c 0,57,58
 131 617 131 617 124 627.5 c 128,-1,59
 117 638 117 638 103 642 c 2,60,-1
 35 661 l 1,61,-1
 37 683 l 1,62,-1
 44 690 l 1,63,-1
 220 690 l 1,64,65
 248 610 248 610 286 519 c 128,-1,66
 324 428 324 428 367.5 334.5 c 128,-1,67
 411 241 411 241 452 152 c 0,68,69
 454 149 454 149 457 143.5 c 128,-1,70
 460 138 460 138 463 138 c 0,71,72
 471 138 471 138 475 147 c 2,0,-1
EndSplineSet
EndChar

StartChar: N
Encoding: 78 78 49
Width: 732
GlyphClass: 2
Flags: W
AnchorPoint: "Anchor-10" 395 683 basechar 0
AnchorPoint: "Anchor-9" 366 0 basechar 0
LayerCount: 2
Fore
SplineSet
577 678 m 1,0,-1
 657 694 l 1,1,-1
 663 686 l 1,2,3
 653 516 653 516 650.5 343 c 128,-1,4
 648 170 648 170 648 0 c 1,5,-1
 612 0 l 1,6,7
 595 20 595 20 581.5 36 c 128,-1,8
 568 52 568 52 545 80 c 2,9,-1
 386 278 l 2,10,11
 310 373 310 373 249.5 443 c 128,-1,12
 189 513 189 513 152 555 c 0,13,14
 150 558 150 558 147 561 c 128,-1,15
 144 564 144 564 141 564 c 0,16,17
 136 564 136 564 135 557.5 c 128,-1,18
 134 551 134 551 134 547 c 0,19,20
 134 499 134 499 136 436 c 128,-1,21
 138 373 138 373 141.5 303 c 128,-1,22
 145 233 145 233 149.5 161.5 c 128,-1,23
 154 90 154 90 158 25 c 1,24,-1
 88 -5 l 1,25,-1
 79 4 l 1,26,27
 85 123 85 123 88.5 242 c 128,-1,28
 92 361 92 361 92 479 c 0,29,30
 92 511 92 511 91.5 543.5 c 128,-1,31
 91 576 91 576 91 608 c 0,32,33
 91 619 91 619 89.5 625 c 128,-1,34
 88 631 88 631 71 638 c 128,-1,35
 54 645 54 645 6 656 c 1,36,-1
 2 683 l 1,37,-1
 10 690 l 1,38,-1
 172 690 l 1,39,40
 222 624 222 624 276 553 c 128,-1,41
 330 482 330 482 384 412.5 c 128,-1,42
 438 343 438 343 489 281.5 c 128,-1,43
 540 220 540 220 584 173 c 0,44,45
 586 171 586 171 589 168 c 128,-1,46
 592 165 592 165 595 165 c 0,47,48
 599 165 599 165 600 168.5 c 128,-1,49
 601 172 601 172 601 173 c 0,50,51
 601 211 601 211 600 252.5 c 128,-1,52
 599 294 599 294 596.5 349.5 c 128,-1,53
 594 405 594 405 589.5 484.5 c 128,-1,54
 585 564 585 564 577 678 c 1,0,-1
EndSplineSet
EndChar

StartChar: O
Encoding: 79 79 50
Width: 737
GlyphClass: 2
Flags: W
AnchorPoint: "Anchor-10" 381 693 basechar 0
AnchorPoint: "Anchor-9" 369 0 basechar 0
LayerCount: 2
Fore
SplineSet
320 -18 m 0,0,1
 243 -18 243 -18 189.5 11 c 128,-1,2
 136 40 136 40 103.5 88.5 c 128,-1,3
 71 137 71 137 56 196.5 c 128,-1,4
 41 256 41 256 41 318 c 0,5,6
 41 415 41 415 64 483.5 c 128,-1,7
 87 552 87 552 142 612 c 0,8,9
 174 646 174 646 217 665 c 128,-1,10
 260 684 260 684 308.5 692 c 128,-1,11
 357 700 357 700 403 700 c 0,12,13
 459 700 459 700 515 682.5 c 128,-1,14
 571 665 571 665 611 624 c 0,15,16
 642 593 642 593 660.5 549.5 c 128,-1,17
 679 506 679 506 687 458.5 c 128,-1,18
 695 411 695 411 695 364 c 0,19,20
 695 315 695 315 689.5 264 c 128,-1,21
 684 213 684 213 654 152 c 0,22,23
 630 103 630 103 581 64.5 c 128,-1,24
 532 26 532 26 465.5 4 c 128,-1,25
 399 -18 399 -18 320 -18 c 0,0,1
371 660 m 0,26,27
 306 660 306 660 261 633 c 128,-1,28
 216 606 216 606 188 561 c 128,-1,29
 160 516 160 516 147 460.5 c 128,-1,30
 134 405 134 405 134 348 c 0,31,32
 134 278 134 278 150.5 214.5 c 128,-1,33
 167 151 167 151 213 100 c 0,34,35
 258 50 258 50 301 36.5 c 128,-1,36
 344 23 344 23 373 23 c 0,37,38
 435 23 435 23 478.5 50.5 c 128,-1,39
 522 78 522 78 549 123.5 c 128,-1,40
 576 169 576 169 588.5 224.5 c 128,-1,41
 601 280 601 280 601 336 c 0,42,43
 601 389 601 389 588.5 446 c 128,-1,44
 576 503 576 503 549 551.5 c 128,-1,45
 522 600 522 600 478 630 c 128,-1,46
 434 660 434 660 371 660 c 0,26,27
EndSplineSet
EndChar

StartChar: P
Encoding: 80 80 51
Width: 527
GlyphClass: 1
Flags: W
LayerCount: 2
Fore
SplineSet
172 22 m 1,0,-1
 89 -6 l 1,1,-1
 82 1 l 1,2,3
 84 106 84 106 86.5 211.5 c 128,-1,4
 89 317 89 317 89 423 c 0,5,6
 89 467 89 467 87.5 511.5 c 128,-1,7
 86 556 86 556 84 600 c 0,8,9
 82 630 82 630 60.5 640 c 128,-1,10
 39 650 39 650 10 654 c 1,11,-1
 10 672 l 1,12,-1
 17 679 l 1,13,-1
 274 679 l 2,14,15
 397 679 397 679 451 636.5 c 128,-1,16
 505 594 505 594 505 514 c 0,17,18
 505 422 505 422 441 358 c 0,19,20
 408 324 408 324 358 310.5 c 128,-1,21
 308 297 308 297 259 293 c 0,22,23
 245 292 245 292 222.5 291.5 c 128,-1,24
 200 291 200 291 182.5 287.5 c 128,-1,25
 165 284 165 284 165 274 c 0,26,27
 165 262 165 262 166.5 221 c 128,-1,28
 168 180 168 180 170 126.5 c 128,-1,29
 172 73 172 73 172 22 c 1,0,-1
236 640 m 2,30,-1
 180 640 l 2,31,32
 175 640 175 640 173 636.5 c 128,-1,33
 171 633 171 633 171 629 c 0,34,35
 168 563 168 563 166.5 484.5 c 128,-1,36
 165 406 165 406 165 341 c 0,37,38
 165 334 165 334 169 331.5 c 128,-1,39
 173 329 173 329 176 329 c 0,40,41
 280 329 280 329 344.5 376 c 128,-1,42
 409 423 409 423 409 506 c 0,43,44
 409 558 409 558 385 587 c 128,-1,45
 361 616 361 616 321.5 628 c 128,-1,46
 282 640 282 640 236 640 c 2,30,-1
EndSplineSet
EndChar

StartChar: Q
Encoding: 81 81 52
Width: 740
GlyphClass: 1
Flags: W
LayerCount: 2
Fore
SplineSet
722 -174 m 1,0,-1
 729 -194 l 1,1,2
 700 -206 700 -206 656 -220.5 c 128,-1,3
 612 -235 612 -235 574 -235 c 0,4,5
 531 -235 531 -235 494.5 -215.5 c 128,-1,6
 458 -196 458 -196 427.5 -163.5 c 128,-1,7
 397 -131 397 -131 370.5 -92.5 c 128,-1,8
 344 -54 344 -54 321 -16 c 1,9,10
 269 -16 269 -16 216 0 c 128,-1,11
 163 16 163 16 126 57 c 0,12,13
 84 104 84 104 62.5 168.5 c 128,-1,14
 41 233 41 233 41 300 c 0,15,16
 41 404 41 404 64 478 c 128,-1,17
 87 552 87 552 142 609 c 0,18,19
 193 662 193 662 261 680 c 128,-1,20
 329 698 329 698 400 698 c 0,21,22
 458 698 458 698 514 682 c 128,-1,23
 570 666 570 666 613 622 c 0,24,25
 645 591 645 591 663 546.5 c 128,-1,26
 681 502 681 502 688.5 455 c 128,-1,27
 696 408 696 408 696 366 c 0,28,29
 696 318 696 318 694 291.5 c 128,-1,30
 692 265 692 265 688 248 c 128,-1,31
 684 231 684 231 677 210 c 0,32,33
 666 177 666 177 653.5 149.5 c 128,-1,34
 641 122 641 122 609 87 c 0,35,36
 575 50 575 50 526.5 27 c 128,-1,37
 478 4 478 4 431 -7 c 1,38,-1
 427 -17 l 1,39,40
 439 -39 439 -39 456.5 -70.5 c 128,-1,41
 474 -102 474 -102 489 -122 c 0,42,43
 497 -132 497 -132 514 -148 c 128,-1,44
 531 -164 531 -164 561 -176.5 c 128,-1,45
 591 -189 591 -189 635 -189 c 0,46,47
 643 -189 643 -189 659.5 -186.5 c 128,-1,48
 676 -184 676 -184 693.5 -180.5 c 128,-1,49
 711 -177 711 -177 722 -174 c 1,0,-1
365 22 m 0,50,51
 435 22 435 22 480.5 51 c 128,-1,52
 526 80 526 80 552.5 127.5 c 128,-1,53
 579 175 579 175 590 230.5 c 128,-1,54
 601 286 601 286 601 338 c 0,55,56
 601 397 601 397 587 454 c 128,-1,57
 573 511 573 511 545 557.5 c 128,-1,58
 517 604 517 604 475 632 c 128,-1,59
 433 660 433 660 376 660 c 0,60,61
 304 660 304 660 257 630.5 c 128,-1,62
 210 601 210 601 183 552.5 c 128,-1,63
 156 504 156 504 145 446.5 c 128,-1,64
 134 389 134 389 134 334 c 0,65,66
 134 267 134 267 153.5 203.5 c 128,-1,67
 173 140 173 140 219 92 c 0,68,69
 248 62 248 62 286.5 42 c 128,-1,70
 325 22 325 22 365 22 c 0,50,51
EndSplineSet
EndChar

StartChar: R
Encoding: 82 82 53
Width: 548
GlyphClass: 1
Flags: W
LayerCount: 2
Fore
SplineSet
275 331 m 1,0,-1
 273 323 l 1,1,-1
 536 27 l 1,2,-1
 536 18 l 1,3,-1
 437 -8 l 1,4,5
 402 37 402 37 363 86.5 c 128,-1,6
 324 136 324 136 288.5 181.5 c 128,-1,7
 253 227 253 227 226 259.5 c 128,-1,8
 199 292 199 292 188 303 c 0,9,10
 179 312 179 312 168 312 c 1,11,12
 168 240 168 240 168.5 167.5 c 128,-1,13
 169 95 169 95 173 23 c 1,14,-1
 90 -6 l 1,15,-1
 79 3 l 1,16,17
 85 112 85 112 86.5 221 c 128,-1,18
 88 330 88 330 88 439 c 0,19,20
 88 445 88 445 87.5 464 c 128,-1,21
 87 483 87 483 86.5 509 c 128,-1,22
 86 535 86 535 85.5 562.5 c 128,-1,23
 85 590 85 590 85 611 c 0,24,25
 85 627 85 627 67.5 637 c 128,-1,26
 50 647 50 647 31.5 651.5 c 128,-1,27
 13 656 13 656 8 656 c 1,28,-1
 9 673 l 1,29,-1
 15 679 l 1,30,-1
 287 679 l 2,31,32
 379 679 379 679 434.5 644 c 128,-1,33
 490 609 490 609 490 539 c 0,34,35
 490 470 490 470 461 426 c 128,-1,36
 432 382 432 382 383.5 360 c 128,-1,37
 335 338 335 338 275 331 c 1,0,-1
167 370 m 0,38,39
 167 366 167 366 169 360.5 c 128,-1,40
 171 355 171 355 176 355 c 0,41,42
 231 355 231 355 280.5 372 c 128,-1,43
 330 389 330 389 361 426.5 c 128,-1,44
 392 464 392 464 392 523 c 0,45,46
 392 571 392 571 366.5 596.5 c 128,-1,47
 341 622 341 622 302.5 631 c 128,-1,48
 264 640 264 640 225 640 c 2,49,-1
 185 640 l 2,50,51
 174 640 174 640 173 614 c 0,52,53
 172 595 172 595 171.5 565 c 128,-1,54
 171 535 171 535 170 502 c 128,-1,55
 169 469 169 469 168.5 439.5 c 128,-1,56
 168 410 168 410 167.5 391 c 128,-1,57
 167 372 167 372 167 370 c 0,38,39
EndSplineSet
EndChar

StartChar: S
Encoding: 83 83 54
Width: 484
GlyphClass: 1
Flags: W
LayerCount: 2
Fore
SplineSet
451 606 m 1,0,-1
 388 550 l 1,1,-1
 375 553 l 1,2,3
 362 603 362 603 333 634 c 128,-1,4
 304 665 304 665 253 665 c 0,5,6
 205 665 205 665 173.5 630.5 c 128,-1,7
 142 596 142 596 142 547 c 0,8,9
 142 508 142 508 164 479 c 128,-1,10
 186 450 186 450 221 428 c 128,-1,11
 256 406 256 406 295 389 c 0,12,13
 374 355 374 355 414 312 c 128,-1,14
 454 269 454 269 454 209 c 0,15,16
 454 160 454 160 429.5 118.5 c 128,-1,17
 405 77 405 77 365 47.5 c 128,-1,18
 325 18 325 18 277 1.5 c 128,-1,19
 229 -15 229 -15 181 -15 c 0,20,21
 129 -15 129 -15 83 8.5 c 128,-1,22
 37 32 37 32 16 87 c 1,23,-1
 73 153 l 1,24,-1
 90 152 l 1,25,26
 106 100 106 100 138 65.5 c 128,-1,27
 170 31 170 31 223 31 c 0,28,29
 262 31 262 31 294.5 50.5 c 128,-1,30
 327 70 327 70 346.5 103 c 128,-1,31
 366 136 366 136 366 178 c 0,32,33
 366 206 366 206 348.5 232.5 c 128,-1,34
 331 259 331 259 303 280 c 128,-1,35
 275 301 275 301 245 314 c 0,36,37
 185 340 185 340 144 367 c 128,-1,38
 103 394 103 394 82.5 428.5 c 128,-1,39
 62 463 62 463 62 512 c 0,40,41
 62 575 62 575 92.5 617 c 128,-1,42
 123 659 123 659 171.5 680.5 c 128,-1,43
 220 702 220 702 274 702 c 0,44,45
 311 702 311 702 343 695.5 c 128,-1,46
 375 689 375 689 402 668.5 c 128,-1,47
 429 648 429 648 451 606 c 1,0,-1
EndSplineSet
EndChar

StartChar: T
Encoding: 84 84 55
Width: 551
GlyphClass: 1
Flags: W
LayerCount: 2
Fore
SplineSet
543 696 m 1,0,-1
 549 689 l 1,1,-1
 549 641 l 1,2,-1
 541 634 l 1,3,4
 478 637 478 637 440 639 c 128,-1,5
 402 641 402 641 381 642 c 128,-1,6
 360 643 360 643 349.5 643.5 c 128,-1,7
 339 644 339 644 331 644 c 0,8,9
 321 644 321 644 319.5 586.5 c 128,-1,10
 318 529 318 529 318 438 c 0,11,12
 318 378 318 378 320 303 c 128,-1,13
 322 228 322 228 325 153 c 128,-1,14
 328 78 328 78 331 17 c 1,15,-1
 231 -10 l 1,16,-1
 222 -1 l 1,17,18
 228 94 228 94 231.5 189.5 c 128,-1,19
 235 285 235 285 235 380 c 0,20,21
 235 411 235 411 235 450 c 128,-1,22
 235 489 235 489 234.5 527.5 c 128,-1,23
 234 566 234 566 233.5 595.5 c 128,-1,24
 233 625 233 625 233 636 c 0,25,26
 233 642 233 642 224 642 c 0,27,28
 206 642 206 642 149.5 640 c 128,-1,29
 93 638 93 638 10 635 c 1,30,-1
 2 642 l 1,31,-1
 2 690 l 1,32,-1
 9 697 l 1,33,34
 38 696 38 696 57.5 694.5 c 128,-1,35
 77 693 77 693 95 691.5 c 128,-1,36
 113 690 113 690 136 689 c 128,-1,37
 159 688 159 688 193.5 687 c 128,-1,38
 228 686 228 686 281 686 c 0,39,40
 337 686 337 686 407 689.5 c 128,-1,41
 477 693 477 693 543 696 c 1,0,-1
EndSplineSet
EndChar

StartChar: U
Encoding: 85 85 56
Width: 712
GlyphClass: 2
Flags: W
AnchorPoint: "Anchor-10" 367 683 basechar 0
AnchorPoint: "Anchor-9" 356 0 basechar 0
LayerCount: 2
Fore
SplineSet
183 674 m 1,0,1
 182 669 182 669 180.5 650.5 c 128,-1,2
 179 632 179 632 178 609 c 128,-1,3
 177 586 177 586 176 567 c 128,-1,4
 175 548 175 548 175 542 c 2,5,-1
 167 269 l 2,6,7
 167 185 167 185 191 138 c 128,-1,8
 215 91 215 91 255 71.5 c 128,-1,9
 295 52 295 52 343 52 c 0,10,11
 390 52 390 52 434.5 69.5 c 128,-1,12
 479 87 479 87 519 111 c 1,13,14
 519 248 519 248 520.5 385.5 c 128,-1,15
 522 523 522 523 523 659 c 1,16,-1
 611 694 l 1,17,-1
 617 687 l 1,18,19
 611 644 611 644 608 586 c 128,-1,20
 605 528 605 528 603.5 462.5 c 128,-1,21
 602 397 602 397 601.5 330 c 128,-1,22
 601 263 601 263 601 202 c 0,23,24
 601 161 601 161 603 126 c 128,-1,25
 605 91 605 91 615 69.5 c 128,-1,26
 625 48 625 48 649 48 c 0,27,28
 664 48 664 48 678 51.5 c 128,-1,29
 692 55 692 55 707 56 c 1,30,-1
 711 39 l 1,31,-1
 706 32 l 1,32,33
 681 24 681 24 651 15.5 c 128,-1,34
 621 7 621 7 595 1 c 128,-1,35
 569 -5 569 -5 553 -5 c 0,36,37
 534 -5 534 -5 527 6 c 128,-1,38
 520 17 520 17 520 33 c 128,-1,39
 520 49 520 49 520 64 c 1,40,-1
 512 70 l 1,41,42
 460 36 460 36 400.5 13.5 c 128,-1,43
 341 -9 341 -9 279 -9 c 0,44,45
 210 -9 210 -9 172 12.5 c 128,-1,46
 134 34 134 34 117.5 66 c 128,-1,47
 101 98 101 98 95 127 c 0,48,49
 90 162 90 162 88.5 212 c 128,-1,50
 87 262 87 262 87 308 c 0,51,52
 87 366 87 366 88 425 c 128,-1,53
 89 484 89 484 89 542 c 2,54,-1
 89 601 l 2,55,56
 89 616 89 616 77.5 626 c 128,-1,57
 66 636 66 636 50 642 c 128,-1,58
 34 648 34 648 20 650.5 c 128,-1,59
 6 653 6 653 1 653 c 1,60,-1
 -1 673 l 1,61,-1
 7 680 l 1,62,-1
 176 680 l 1,63,-1
 183 674 l 1,0,1
EndSplineSet
EndChar

StartChar: V
Encoding: 86 86 57
Width: 707
GlyphClass: 1
Flags: W
LayerCount: 2
Fore
SplineSet
614 680 m 1,0,-1
 700 697 l 1,1,-1
 706 678 l 1,2,3
 682 648 682 648 659 615 c 128,-1,4
 636 582 636 582 617 551.5 c 128,-1,5
 598 521 598 521 585 498.5 c 128,-1,6
 572 476 572 476 567 468 c 0,7,8
 513 368 513 368 460.5 251 c 128,-1,9
 408 134 408 134 365 10 c 1,10,-1
 297 -16 l 1,11,-1
 287 -9 l 1,12,-1
 144 473 l 2,13,14
 133 508 133 508 122 542 c 128,-1,15
 111 576 111 576 96 609 c 0,16,17
 84 634 84 634 63.5 641.5 c 128,-1,18
 43 649 43 649 1 655 c 1,19,-1
 0 682 l 1,20,-1
 7 688 l 1,21,-1
 182 698 l 1,22,23
 241 410 241 410 347 138 c 0,24,25
 349 135 349 135 351.5 133.5 c 128,-1,26
 354 132 354 132 355 131 c 0,27,28
 360 133 360 133 377.5 170 c 128,-1,29
 395 207 395 207 426 274 c 2,30,-1
 545 548 l 2,31,32
 559 582 559 582 577 615 c 128,-1,33
 595 648 595 648 614 680 c 1,0,-1
EndSplineSet
EndChar

StartChar: W
Encoding: 87 87 58
Width: 1050
GlyphClass: 1
Flags: W
LayerCount: 2
Fore
SplineSet
965 675 m 1,0,-1
 1046 689 l 1,1,-1
 1046 668 l 1,2,-1
 931 480 l 2,3,4
 913 451 913 451 885 397.5 c 128,-1,5
 857 344 857 344 824 278 c 128,-1,6
 791 212 791 212 759 143.5 c 128,-1,7
 727 75 727 75 703 16 c 1,8,-1
 643 -11 l 1,9,-1
 631 -3 l 1,10,11
 607 133 607 133 579.5 267.5 c 128,-1,12
 552 402 552 402 522 536 c 0,13,14
 521 540 521 540 520 544 c 128,-1,15
 519 548 519 548 515 548 c 0,16,17
 513 548 513 548 510.5 544 c 128,-1,18
 508 540 508 540 506 536 c 2,19,-1
 478 473 l 2,20,21
 451 413 451 413 417.5 336.5 c 128,-1,22
 384 260 384 260 352 178 c 128,-1,23
 320 96 320 96 296 18 c 1,24,-1
 232 -11 l 1,25,-1
 221 -6 l 1,26,27
 204 90 204 90 185 185.5 c 128,-1,28
 166 281 166 281 143 375 c 0,29,30
 128 436 128 436 112 496 c 128,-1,31
 96 556 96 556 73 614 c 0,32,33
 65 635 65 635 44.5 643 c 128,-1,34
 24 651 24 651 1 655 c 1,35,-1
 -1 679 l 1,36,-1
 7 686 l 1,37,-1
 163 689 l 1,38,39
 168 665 168 665 177 620.5 c 128,-1,40
 186 576 186 576 198 519.5 c 128,-1,41
 210 463 210 463 223.5 400.5 c 128,-1,42
 237 338 237 338 250.5 277 c 128,-1,43
 264 216 264 216 276 163 c 0,44,45
 277 157 277 157 283 157 c 0,46,47
 288 157 288 157 290 161 c 0,48,49
 303 186 303 186 324.5 232.5 c 128,-1,50
 346 279 346 279 372 336.5 c 128,-1,51
 398 394 398 394 424.5 454.5 c 128,-1,52
 451 515 451 515 473.5 569 c 128,-1,53
 496 623 496 623 509 661 c 1,54,-1
 585 690 l 1,55,-1
 592 684 l 1,56,57
 592 653 592 653 601 596.5 c 128,-1,58
 610 540 610 540 624.5 469 c 128,-1,59
 639 398 639 398 654 325 c 0,60,61
 659 304 659 304 664.5 273 c 128,-1,62
 670 242 670 242 676.5 211.5 c 128,-1,63
 683 181 683 181 689.5 160 c 128,-1,64
 696 139 696 139 703 139 c 256,65,66
 710 139 710 139 712.5 141.5 c 128,-1,67
 715 144 715 144 716 146 c 2,68,-1
 796 316 l 1,69,-1
 905 558 l 2,70,71
 921 593 921 593 936.5 622 c 128,-1,72
 952 651 952 651 965 675 c 1,0,-1
EndSplineSet
EndChar

StartChar: X
Encoding: 88 88 59
Width: 624
GlyphClass: 1
Flags: W
LayerCount: 2
Fore
SplineSet
612 687 m 1,0,-1
 612 672 l 1,1,-1
 425 466 l 2,2,3
 410 449 410 449 395.5 430 c 128,-1,4
 381 411 381 411 370.5 397.5 c 128,-1,5
 360 384 360 384 358 380 c 0,6,7
 358 376 358 376 370.5 354.5 c 128,-1,8
 383 333 383 333 402 301.5 c 128,-1,9
 421 270 421 270 442.5 236 c 128,-1,10
 464 202 464 202 483 173.5 c 128,-1,11
 502 145 502 145 514 131 c 2,12,-1
 574 59 l 2,13,14
 579 54 579 54 592 46 c 128,-1,15
 605 38 605 38 611 36 c 2,16,-1
 616 32 l 1,17,-1
 616 16 l 1,18,-1
 506 -11 l 1,19,-1
 492 -5 l 1,20,21
 479 9 479 9 467.5 25 c 128,-1,22
 456 41 456 41 446 57 c 2,23,-1
 303 296 l 1,24,-1
 291 296 l 1,25,26
 275 277 275 277 248.5 241 c 128,-1,27
 222 205 222 205 193 162.5 c 128,-1,28
 164 120 164 120 139.5 80 c 128,-1,29
 115 40 115 40 101 11 c 1,30,-1
 7 0 l 1,31,-1
 7 16 l 1,32,-1
 278 345 l 1,33,34
 277 345 277 345 266 362 c 128,-1,35
 255 379 255 379 238.5 407.5 c 128,-1,36
 222 436 222 436 203 468.5 c 128,-1,37
 184 501 184 501 165.5 533 c 128,-1,38
 147 565 147 565 133 590 c 0,39,40
 117 619 117 619 88 630 c 128,-1,41
 59 641 59 641 28 649 c 1,42,-1
 28 674 l 1,43,-1
 35 680 l 1,44,45
 48 681 48 681 74 682 c 128,-1,46
 100 683 100 683 129.5 685 c 128,-1,47
 159 687 159 687 181 688 c 1,48,-1
 328 422 l 1,49,-1
 337 422 l 1,50,51
 347 432 347 432 367 458.5 c 128,-1,52
 387 485 387 485 411.5 519 c 128,-1,53
 436 553 436 553 459 586 c 128,-1,54
 482 619 482 619 498 643.5 c 128,-1,55
 514 668 514 668 517 674 c 1,56,-1
 612 687 l 1,0,-1
EndSplineSet
EndChar

StartChar: Y
Encoding: 89 89 60
Width: 592
GlyphClass: 2
Flags: W
AnchorPoint: "Anchor-10" 336 683 basechar 0
AnchorPoint: "Anchor-9" 296 0 basechar 0
LayerCount: 2
Fore
SplineSet
231 -2 m 1,0,1
 233 73 233 73 233.5 148.5 c 128,-1,2
 234 224 234 224 234 299 c 1,3,-1
 85 594 l 2,4,5
 68 628 68 628 48.5 637.5 c 128,-1,6
 29 647 29 647 -1 651 c 1,7,-1
 -1 679 l 1,8,-1
 6 686 l 1,9,-1
 151 686 l 1,10,-1
 292 361 l 2,11,12
 293 360 293 360 296.5 356.5 c 128,-1,13
 300 353 300 353 304 353 c 0,14,15
 307 353 307 353 318 368.5 c 128,-1,16
 329 384 329 384 344 408.5 c 128,-1,17
 359 433 359 433 374 460 c 0,18,19
 377 465 377 465 392 491 c 128,-1,20
 407 517 407 517 427.5 552 c 128,-1,21
 448 587 448 587 468.5 621 c 128,-1,22
 489 655 489 655 502 676 c 1,23,-1
 587 693 l 1,24,-1
 591 675 l 1,25,26
 536 603 536 603 490.5 543 c 128,-1,27
 445 483 445 483 405 426.5 c 128,-1,28
 365 370 365 370 323 306 c 1,29,-1
 332 18 l 1,30,-1
 242 -11 l 1,31,-1
 231 -2 l 1,0,1
EndSplineSet
EndChar

StartChar: Z
Encoding: 90 90 61
Width: 603
GlyphClass: 1
Flags: W
LayerCount: 2
Fore
SplineSet
552 683 m 1,0,-1
 552 664 l 1,1,2
 501 592 501 592 445.5 508.5 c 128,-1,3
 390 425 390 425 335.5 342 c 128,-1,4
 281 259 281 259 234 186 c 128,-1,5
 187 113 187 113 153 61 c 1,6,-1
 159 68 l 1,7,-1
 588 68 l 1,8,-1
 597 59 l 1,9,-1
 579 -12 l 1,10,11
 531 -7 531 -7 462.5 -5 c 128,-1,12
 394 -3 394 -3 315 -1.5 c 128,-1,13
 236 0 236 0 156 0 c 128,-1,14
 76 0 76 0 4 0 c 1,15,-1
 3 21 l 1,16,-1
 427 627 l 1,17,-1
 420 637 l 1,18,19
 280 637 280 637 202 633.5 c 128,-1,20
 124 630 124 630 104 628 c 1,21,-1
 98 633 l 1,22,-1
 98 687 l 1,23,-1
 107 695 l 1,24,25
 218 688 218 688 329 685.5 c 128,-1,26
 440 683 440 683 552 683 c 1,0,-1
EndSplineSet
EndChar

StartChar: bracketleft
Encoding: 91 91 62
Width: 258
GlyphClass: 1
Flags: W
LayerCount: 2
Fore
SplineSet
247 736 m 1,0,-1
 247 712 l 1,1,-1
 128 699 l 1,2,-1
 128 -83 l 1,3,-1
 247 -96 l 1,4,-1
 247 -120 l 1,5,6
 207 -120 207 -120 167 -120.5 c 128,-1,7
 127 -121 127 -121 88 -125 c 1,8,-1
 88 741 l 1,9,10
 117 737 117 737 162 736.5 c 128,-1,11
 207 736 207 736 247 736 c 1,0,-1
EndSplineSet
Substitution2: "'locl' Localized Forms in Latin lookup 94 subtable" bracketleft.1
EndChar

StartChar: backslash
Encoding: 92 92 63
Width: 390
GlyphClass: 1
Flags: W
LayerCount: 2
Fore
SplineSet
404 -184 m 1,0,-1
 372 -192 l 1,1,-1
 -17 704 l 1,2,-1
 -12 715 l 1,3,-1
 19 722 l 1,4,-1
 407 -171 l 1,5,-1
 404 -184 l 1,0,-1
EndSplineSet
EndChar

StartChar: bracketright
Encoding: 93 93 64
Width: 258
GlyphClass: 1
Flags: W
LayerCount: 2
Fore
SplineSet
130 -83 m 1,0,-1
 130 699 l 1,1,-1
 11 712 l 1,2,-1
 11 736 l 1,3,4
 52 736 52 736 96.5 736.5 c 128,-1,5
 141 737 141 737 170 741 c 1,6,-1
 170 -125 l 1,7,8
 131 -121 131 -121 91.5 -120.5 c 128,-1,9
 52 -120 52 -120 11 -120 c 1,10,-1
 11 -96 l 1,11,-1
 130 -83 l 1,0,-1
EndSplineSet
Substitution2: "'locl' Localized Forms in Latin lookup 94 subtable" bracketright.1
EndChar

StartChar: underscore
Encoding: 95 95 66
Width: 756
GlyphClass: 1
Flags: W
LayerCount: 2
Fore
SplineSet
756 -74 m 1,0,-1
 756 -114 l 1,1,-1
 0 -114 l 1,2,-1
 0 -74 l 1,3,-1
 756 -74 l 1,0,-1
EndSplineSet
EndChar

StartChar: a
Encoding: 97 97 68
Width: 548
GlyphClass: 2
Flags: W
AnchorPoint: "Anchor-10" 274 500 basechar 0
AnchorPoint: "Anchor-9" 274 0 basechar 0
LayerCount: 2
Fore
SplineSet
278 466 m 0,0,1
 302 466 302 466 331.5 457 c 128,-1,2
 361 448 361 448 385 431 c 1,3,-1
 438 462 l 1,4,-1
 443 457 l 1,5,6
 437 348 437 348 437 239 c 0,7,8
 437 216 437 216 435.5 184 c 128,-1,9
 434 152 434 152 436 122 c 128,-1,10
 438 92 438 92 447 72 c 128,-1,11
 456 52 456 52 476 52 c 0,12,13
 487 52 487 52 506 58 c 128,-1,14
 525 64 525 64 541 70 c 1,15,-1
 548 46 l 1,16,17
 528 34 528 34 505 20.5 c 128,-1,18
 482 7 482 7 460 -2.5 c 128,-1,19
 438 -12 438 -12 422 -12 c 0,20,21
 394 -12 394 -12 382 5 c 128,-1,22
 370 22 370 22 365 47 c 1,23,-1
 350 51 l 1,24,25
 313 27 313 27 272 7.5 c 128,-1,26
 231 -12 231 -12 187 -12 c 0,27,28
 145 -12 145 -12 117 6 c 128,-1,29
 89 24 89 24 72 53 c 128,-1,30
 55 82 55 82 47.5 116.5 c 128,-1,31
 40 151 40 151 40 185 c 0,32,33
 40 238 40 238 53.5 288 c 128,-1,34
 67 338 67 338 95.5 378.5 c 128,-1,35
 124 419 124 419 169 442.5 c 128,-1,36
 214 466 214 466 278 466 c 0,0,1
257 54 m 0,37,38
 286 54 286 54 313.5 68 c 128,-1,39
 341 82 341 82 363 99 c 1,40,-1
 363 329 l 2,41,42
 363 349 363 349 361 367 c 128,-1,43
 359 385 359 385 347 398 c 0,44,45
 334 412 334 412 316 421.5 c 128,-1,46
 298 431 298 431 279 431 c 0,47,48
 224 431 224 431 184 393 c 0,49,50
 167 377 167 377 149.5 334 c 128,-1,51
 132 291 132 291 130 215 c 0,52,53
 129 184 129 184 135 152.5 c 128,-1,54
 141 121 141 121 158 95 c 0,55,56
 174 70 174 70 201.5 62 c 128,-1,57
 229 54 229 54 257 54 c 0,37,38
EndSplineSet
EndChar

StartChar: b
Encoding: 98 98 69
Width: 522
GlyphClass: 1
Flags: W
LayerCount: 2
Fore
SplineSet
-14 640 m 1,0,-1
 -14 661 l 1,1,-1
 -8 666 l 1,2,-1
 161 684 l 1,3,-1
 167 677 l 1,4,5
 161 616 161 616 157 555 c 128,-1,6
 153 494 153 494 153 432 c 2,7,-1
 153 399 l 1,8,-1
 162 394 l 1,9,10
 202 424 202 424 246 446 c 128,-1,11
 290 468 290 468 341 468 c 0,12,13
 388 468 388 468 419 445.5 c 128,-1,14
 450 423 450 423 466 386.5 c 128,-1,15
 482 350 482 350 482 308 c 0,16,17
 482 275 482 275 478 242 c 128,-1,18
 474 209 474 209 463 177 c 0,19,20
 446 124 446 124 404.5 81.5 c 128,-1,21
 363 39 363 39 308.5 14.5 c 128,-1,22
 254 -10 254 -10 197 -10 c 0,23,24
 172 -10 172 -10 144.5 0 c 128,-1,25
 117 10 117 10 98.5 39 c 128,-1,26
 80 68 80 68 80 123 c 2,27,-1
 80 599 l 2,28,29
 80 617 80 617 74.5 623 c 128,-1,30
 69 629 69 629 49 631.5 c 128,-1,31
 29 634 29 634 -14 640 c 1,0,-1
157 347 m 1,32,33
 156 322 156 322 154.5 290 c 128,-1,34
 153 258 153 258 153 229 c 0,35,36
 153 173 153 173 159.5 129.5 c 128,-1,37
 166 86 166 86 187 62 c 128,-1,38
 208 38 208 38 252 38 c 0,39,40
 305 38 305 38 337.5 66 c 128,-1,41
 370 94 370 94 384.5 137.5 c 128,-1,42
 399 181 399 181 399 227 c 0,43,44
 399 282 399 282 389.5 314.5 c 128,-1,45
 380 347 380 347 369 363 c 0,46,47
 359 378 359 378 341 392 c 128,-1,48
 323 406 323 406 294 406 c 0,49,50
 254 406 254 406 220 389.5 c 128,-1,51
 186 373 186 373 157 347 c 1,32,33
EndSplineSet
EndChar

StartChar: c
Encoding: 99 99 70
Width: 455
GlyphClass: 2
Flags: W
AnchorPoint: "Anchor-10" 232 462 basechar 0
AnchorPoint: "Anchor-9" 252 -10 basechar 0
LayerCount: 2
Fore
SplineSet
425 116 m 1,0,-1
 434 114 l 1,1,-1
 445 96 l 1,2,3
 399 50 399 50 343.5 15.5 c 128,-1,4
 288 -19 288 -19 221 -19 c 0,5,6
 160 -19 160 -19 125 3.5 c 128,-1,7
 90 26 90 26 73.5 62 c 128,-1,8
 57 98 57 98 52.5 139 c 128,-1,9
 48 180 48 180 48 217 c 0,10,11
 48 292 48 292 80.5 350.5 c 128,-1,12
 113 409 113 409 170 442 c 128,-1,13
 227 475 227 475 301 475 c 0,14,15
 350 475 350 475 381.5 447.5 c 128,-1,16
 413 420 413 420 417 377 c 1,17,-1
 363 324 l 1,18,-1
 346 330 l 1,19,20
 339 380 339 380 316 408 c 128,-1,21
 293 436 293 436 261 436 c 0,22,23
 219 436 219 436 190 407.5 c 128,-1,24
 161 379 161 379 146 335.5 c 128,-1,25
 131 292 131 292 131 248 c 0,26,27
 131 216 131 216 137 181 c 128,-1,28
 143 146 143 146 158 115.5 c 128,-1,29
 173 85 173 85 200.5 66 c 128,-1,30
 228 47 228 47 272 47 c 256,31,32
 316 47 316 47 354 67.5 c 128,-1,33
 392 88 392 88 425 116 c 1,0,-1
EndSplineSet
EndChar

StartChar: d
Encoding: 100 100 71
Width: 551
GlyphClass: 1
Flags: W
LayerCount: 2
Fore
SplineSet
269 638 m 1,0,-1
 268 660 l 1,1,-1
 273 664 l 1,2,-1
 436 684 l 1,3,-1
 444 675 l 1,4,-1
 444 110 l 2,5,6
 446 88 446 88 453 68 c 128,-1,7
 460 48 460 48 482 48 c 0,8,9
 490 48 490 48 509 54.5 c 128,-1,10
 528 61 528 61 543 67 c 1,11,-1
 551 44 l 1,12,13
 522 24 522 24 486.5 2.5 c 128,-1,14
 451 -19 451 -19 422 -19 c 256,15,16
 393 -19 393 -19 379 4.5 c 128,-1,17
 365 28 365 28 363 54 c 1,18,19
 325 28 325 28 279 5 c 128,-1,20
 233 -18 233 -18 189 -18 c 0,21,22
 146 -18 146 -18 117.5 0 c 128,-1,23
 89 18 89 18 72 47.5 c 128,-1,24
 55 77 55 77 47.5 112 c 128,-1,25
 40 147 40 147 40 180 c 0,26,27
 40 233 40 233 54.5 283 c 128,-1,28
 69 333 69 333 98 373.5 c 128,-1,29
 127 414 127 414 171.5 438 c 128,-1,30
 216 462 216 462 277 462 c 0,31,32
 299 462 299 462 319.5 458 c 128,-1,33
 340 454 340 454 360 447 c 1,34,-1
 367 451 l 1,35,36
 367 478 367 478 366.5 508 c 128,-1,37
 366 538 366 538 365 563.5 c 128,-1,38
 364 589 364 589 360 602 c 0,39,40
 355 620 355 620 339.5 627.5 c 128,-1,41
 324 635 324 635 305 636.5 c 128,-1,42
 286 638 286 638 269 638 c 1,0,-1
363 95 m 1,43,-1
 367 310 l 2,44,45
 367 337 367 337 361 364.5 c 128,-1,46
 355 392 355 392 335 410 c 128,-1,47
 315 428 315 428 273 428 c 256,48,49
 231 428 231 428 203 406.5 c 128,-1,50
 175 385 175 385 158 351 c 128,-1,51
 141 317 141 317 134 277.5 c 128,-1,52
 127 238 127 238 127 203 c 256,53,54
 127 168 127 168 138 132 c 128,-1,55
 149 96 149 96 174.5 72 c 128,-1,56
 200 48 200 48 245 48 c 0,57,58
 271 48 271 48 307 61.5 c 128,-1,59
 343 75 343 75 363 95 c 1,43,-1
EndSplineSet
EndChar

StartChar: e
Encoding: 101 101 72
Width: 462
GlyphClass: 2
Flags: W
AnchorPoint: "Anchor-10" 256 462 basechar 0
AnchorPoint: "Anchor-9" 236 0 basechar 0
LayerCount: 2
Fore
SplineSet
438 340 m 0,0,1
 438 331 438 331 431.5 327 c 128,-1,2
 425 323 425 323 417 319 c 2,3,-1
 135 197 l 1,4,5
 138 166 138 166 151.5 133 c 128,-1,6
 165 100 165 100 192.5 78 c 128,-1,7
 220 56 220 56 264 56 c 0,8,9
 305 56 305 56 344.5 77 c 128,-1,10
 384 98 384 98 418 124 c 1,11,-1
 429 122 l 1,12,-1
 442 104 l 1,13,14
 411 75 411 75 374.5 48.5 c 128,-1,15
 338 22 338 22 297.5 5 c 128,-1,16
 257 -12 257 -12 214 -12 c 0,17,18
 164 -12 164 -12 131.5 9 c 128,-1,19
 99 30 99 30 81 64.5 c 128,-1,20
 63 99 63 99 55.5 141.5 c 128,-1,21
 48 184 48 184 48 226 c 0,22,23
 48 270 48 270 59 312 c 128,-1,24
 70 354 70 354 99 388 c 0,25,26
 136 431 136 431 187.5 454.5 c 128,-1,27
 239 478 239 478 296 478 c 0,28,29
 361 478 361 478 399.5 438 c 128,-1,30
 438 398 438 398 438 340 c 0,0,1
261 438 m 0,31,32
 236 438 236 438 214.5 427 c 128,-1,33
 193 416 193 416 177 396 c 0,34,35
 148 365 148 365 139.5 331 c 128,-1,36
 131 297 131 297 131 260 c 0,37,38
 131 256 131 256 131.5 251.5 c 128,-1,39
 132 247 132 247 133 242 c 2,40,-1
 137 238 l 1,41,-1
 339 318 l 2,42,43
 344 320 344 320 348 326 c 128,-1,44
 352 332 352 332 352 344 c 0,45,46
 352 365 352 365 341 387 c 128,-1,47
 330 409 330 409 309.5 423.5 c 128,-1,48
 289 438 289 438 261 438 c 0,31,32
EndSplineSet
EndChar

StartChar: f
Encoding: 102 102 73
Width: 329
GlyphClass: 1
Flags: W
LayerCount: 2
Fore
SplineSet
3 428 m 1,0,-1
 10 434 l 1,1,-1
 115 434 l 1,2,-1
 121 440 l 1,3,4
 121 466 121 466 124 500.5 c 128,-1,5
 127 535 127 535 139 562 c 0,6,7
 162 615 162 615 203.5 642 c 128,-1,8
 245 669 245 669 292 669 c 0,9,10
 333 669 333 669 354 652 c 128,-1,11
 375 635 375 635 385 615 c 1,12,-1
 327 561 l 1,13,-1
 315 565 l 1,14,15
 313 576 313 576 308.5 591 c 128,-1,16
 304 606 304 606 292.5 617.5 c 128,-1,17
 281 629 281 629 257 629 c 0,18,19
 236 629 236 629 222.5 603 c 128,-1,20
 209 577 209 577 203 534 c 128,-1,21
 197 491 197 491 197 440 c 1,22,-1
 201 434 l 1,23,-1
 325 434 l 1,24,-1
 330 427 l 1,25,-1
 323 405 l 1,26,-1
 316 399 l 1,27,-1
 201 399 l 1,28,-1
 195 393 l 1,29,-1
 195 282 l 2,30,31
 195 212 195 212 197.5 142.5 c 128,-1,32
 200 73 200 73 205 12 c 1,33,-1
 126 -12 l 1,34,-1
 109 -1 l 1,35,36
 114 73 114 73 118 144 c 128,-1,37
 122 215 122 215 122 283 c 2,38,-1
 122 391 l 1,39,-1
 116 399 l 1,40,-1
 4 399 l 1,41,-1
 -1 406 l 1,42,-1
 3 428 l 1,0,-1
EndSplineSet
Substitution2: "Single Substitution lookup 90 subtable" f.alt
EndChar

StartChar: g
Encoding: 103 103 74
Width: 511
GlyphClass: 1
Flags: W
LayerCount: 2
Fore
SplineSet
365 45 m 1,0,-1
 356 52 l 1,1,2
 317 30 317 30 274.5 9.5 c 128,-1,3
 232 -11 232 -11 185 -11 c 0,4,5
 144 -11 144 -11 111 13.5 c 128,-1,6
 78 38 78 38 59 82 c 128,-1,7
 40 126 40 126 40 184 c 0,8,9
 40 273 40 273 70.5 336 c 128,-1,10
 101 399 101 399 153 432 c 128,-1,11
 205 465 205 465 269 465 c 0,12,13
 300 465 300 465 330.5 457.5 c 128,-1,14
 361 450 361 450 386 431 c 1,15,-1
 437 460 l 1,16,-1
 451 454 l 1,17,18
 449 420 449 420 447.5 386.5 c 128,-1,19
 446 353 446 353 444.5 312 c 128,-1,20
 443 271 443 271 442.5 215.5 c 128,-1,21
 442 160 442 160 442 82 c 0,22,23
 442 53 442 53 438.5 5.5 c 128,-1,24
 435 -42 435 -42 420 -86 c 0,25,26
 408 -119 408 -119 385 -143.5 c 128,-1,27
 362 -168 362 -168 347 -179 c 0,28,29
 309 -208 309 -208 270 -220.5 c 128,-1,30
 231 -233 231 -233 185 -233 c 0,31,32
 152 -233 152 -233 118 -222 c 128,-1,33
 84 -211 84 -211 47 -177 c 1,34,-1
 96 -115 l 1,35,-1
 110 -115 l 1,36,37
 119 -133 119 -133 136 -150.5 c 128,-1,38
 153 -168 153 -168 172.5 -180 c 128,-1,39
 192 -192 192 -192 210 -192 c 0,40,41
 263 -192 263 -192 296.5 -160 c 128,-1,42
 330 -128 330 -128 346.5 -74 c 128,-1,43
 363 -20 363 -20 365 45 c 1,0,-1
365 99 m 1,44,-1
 365 363 l 2,45,46
 363 398 363 398 335.5 414.5 c 128,-1,47
 308 431 308 431 276 431 c 0,48,49
 232 431 232 431 203 408.5 c 128,-1,50
 174 386 174 386 157 350.5 c 128,-1,51
 140 315 140 315 133 276 c 128,-1,52
 126 237 126 237 126 203 c 0,53,54
 126 158 126 158 144 124 c 128,-1,55
 162 90 162 90 188.5 71 c 128,-1,56
 215 52 215 52 240 52 c 0,57,58
 263 52 263 52 287.5 60 c 128,-1,59
 312 68 312 68 333 79 c 128,-1,60
 354 90 354 90 365 99 c 1,44,-1
EndSplineSet
EndChar

StartChar: h
Encoding: 104 104 75
Width: 592
GlyphClass: 1
Flags: W
LayerCount: 2
Fore
SplineSet
499 62 m 0,0,1
 528 62 528 62 551.5 78 c 128,-1,2
 575 94 575 94 589 107 c 1,3,-1
 602 97 l 1,4,-1
 602 86 l 1,5,6
 569 51 569 51 529.5 20.5 c 128,-1,7
 490 -10 490 -10 445 -10 c 0,8,9
 410 -10 410 -10 394.5 21 c 128,-1,10
 379 52 379 52 379 89 c 0,11,12
 379 116 379 116 380 150.5 c 128,-1,13
 381 185 381 185 382 216.5 c 128,-1,14
 383 248 383 248 383 266 c 0,15,16
 383 304 383 304 377 335.5 c 128,-1,17
 371 367 371 367 352.5 385.5 c 128,-1,18
 334 404 334 404 297 404 c 0,19,20
 256 404 256 404 220 384.5 c 128,-1,21
 184 365 184 365 155 344 c 1,22,23
 155 262 155 262 154 179.5 c 128,-1,24
 153 97 153 97 153 16 c 1,25,-1
 81 -6 l 1,26,-1
 75 4 l 1,27,28
 80 103 80 103 84 202 c 128,-1,29
 88 301 88 301 89 400 c 0,30,31
 89 476 89 476 89 532.5 c 128,-1,32
 89 589 89 589 69 616 c 0,33,34
 62 625 62 625 37 631.5 c 128,-1,35
 12 638 12 638 -8 642 c 1,36,-1
 -8 660 l 1,37,-1
 -3 664 l 1,38,-1
 155 681 l 1,39,-1
 161 674 l 1,40,41
 158 610 158 610 157.5 538.5 c 128,-1,42
 157 467 157 467 157 398 c 1,43,-1
 165 390 l 1,44,45
 209 417 209 417 260 441.5 c 128,-1,46
 311 466 311 466 366 466 c 0,47,48
 377 466 377 466 397 459 c 128,-1,49
 417 452 417 452 431 438 c 0,50,51
 454 417 454 417 454.5 368.5 c 128,-1,52
 455 320 455 320 455 260 c 2,53,-1
 455 186 l 2,54,55
 455 171 455 171 454.5 150 c 128,-1,56
 454 129 454 129 457 109 c 128,-1,57
 460 89 460 89 469.5 75.5 c 128,-1,58
 479 62 479 62 499 62 c 0,0,1
EndSplineSet
EndChar

StartChar: k
Encoding: 107 107 78
Width: 516
GlyphClass: 1
Flags: W
LayerCount: 2
Fore
SplineSet
154 266 m 1,0,-1
 167 266 l 1,1,-1
 301 389 l 2,2,3
 340 425 340 425 360 443 c 128,-1,4
 380 461 380 461 391 469.5 c 128,-1,5
 402 478 402 478 414 485 c 1,6,-1
 460 456 l 1,7,-1
 460 445 l 1,8,9
 404 412 404 412 350.5 374 c 128,-1,10
 297 336 297 336 247 294 c 0,11,12
 242 290 242 290 235.5 284 c 128,-1,13
 229 278 229 278 229 274 c 256,14,15
 229 270 229 270 232 266 c 128,-1,16
 235 262 235 262 237 258 c 0,17,18
 259 230 259 230 286.5 198 c 128,-1,19
 314 166 314 166 342 137.5 c 128,-1,20
 370 109 370 109 394 91 c 128,-1,21
 418 73 418 73 433 73 c 0,22,23
 458 73 458 73 476.5 84 c 128,-1,24
 495 95 495 95 511 112 c 1,25,-1
 530 92 l 1,26,27
 518 76 518 76 498.5 52.5 c 128,-1,28
 479 29 479 29 454.5 11 c 128,-1,29
 430 -7 430 -7 403 -7 c 0,30,31
 381 -7 381 -7 365 3.5 c 128,-1,32
 349 14 349 14 324 42 c 2,33,34
 324 42 324 42 309.5 61.5 c 128,-1,35
 295 81 295 81 271 112 c 128,-1,36
 247 143 247 143 219 177 c 128,-1,37
 191 211 191 211 164 241 c 1,38,-1
 152 234 l 1,39,-1
 152 13 l 1,40,-1
 81 -7 l 1,41,-1
 75 0 l 1,42,43
 78 118 78 118 82.5 234 c 128,-1,44
 87 350 87 350 87 468 c 0,45,46
 87 506 87 506 85 540 c 128,-1,47
 83 574 83 574 78 594 c 0,48,49
 71 617 71 617 51.5 625.5 c 128,-1,50
 32 634 32 634 -8 638 c 1,51,-1
 -8 659 l 1,52,-1
 -3 663 l 1,53,-1
 157 686 l 1,54,-1
 154 679 l 1,55,-1
 154 266 l 1,0,-1
EndSplineSet
EndChar

StartChar: l
Encoding: 108 108 79
Width: 301
GlyphClass: 1
Flags: W
LayerCount: 2
Fore
SplineSet
289 112 m 1,0,-1
 300 112 l 1,1,-1
 311 100 l 1,2,3
 294 74 294 74 271 48 c 128,-1,4
 248 22 248 22 220 5.5 c 128,-1,5
 192 -11 192 -11 159 -11 c 0,6,7
 134 -11 134 -11 115.5 0.5 c 128,-1,8
 97 12 97 12 87 42.5 c 128,-1,9
 77 73 77 73 77 130 c 2,10,-1
 84 508 l 2,11,12
 84 533 84 533 83.5 561.5 c 128,-1,13
 83 590 83 590 79 608 c 0,14,15
 76 624 76 624 61 629.5 c 128,-1,16
 46 635 46 635 27 636 c 128,-1,17
 8 637 8 637 -8 638 c 1,18,-1
 -8 661 l 1,19,-1
 -2 666 l 1,20,-1
 163 686 l 1,21,-1
 169 679 l 1,22,23
 166 574 166 574 160.5 469 c 128,-1,24
 155 364 155 364 155 259 c 0,25,26
 155 210 155 210 154.5 166 c 128,-1,27
 154 122 154 122 163.5 94.5 c 128,-1,28
 173 67 173 67 203 65 c 0,29,30
 228 65 228 65 249 80.5 c 128,-1,31
 270 96 270 96 289 112 c 1,0,-1
EndSplineSet
EndChar

StartChar: m
Encoding: 109 109 80
Width: 873
GlyphClass: 1
Flags: W
LayerCount: 2
Fore
SplineSet
393 -10 m 1,0,-1
 383 -4 l 1,1,2
 383 12 383 12 385.5 55 c 128,-1,3
 388 98 388 98 390.5 155 c 128,-1,4
 393 212 393 212 393 269 c 0,5,6
 393 331 393 331 377 365.5 c 128,-1,7
 361 400 361 400 311 400 c 0,8,9
 288 400 288 400 262.5 390.5 c 128,-1,10
 237 381 237 381 218 370 c 128,-1,11
 199 359 199 359 194 356 c 1,12,13
 192 302 192 302 190.5 248 c 128,-1,14
 189 194 189 194 189 139 c 0,15,16
 189 108 189 108 189.5 76.5 c 128,-1,17
 190 45 190 45 191 14 c 1,18,-1
 124 -10 l 1,19,-1
 110 -2 l 1,20,21
 111 67 111 67 114 136 c 128,-1,22
 117 205 117 205 117 273 c 0,23,24
 117 311 117 311 115.5 342.5 c 128,-1,25
 114 374 114 374 106 393 c 128,-1,26
 98 412 98 412 77 412 c 0,27,28
 65 412 65 412 42 402.5 c 128,-1,29
 19 393 19 393 2 383 c 1,30,-1
 -10 402 l 1,31,32
 20 426 20 426 55 448 c 128,-1,33
 90 470 90 470 127 471 c 0,34,35
 165 471 165 471 177 448 c 128,-1,36
 189 425 189 425 189 397 c 1,37,-1
 197 391 l 1,38,39
 236 412 236 412 280 435.5 c 128,-1,40
 324 459 324 459 369 459 c 0,41,42
 397 459 397 459 421 445 c 128,-1,43
 445 431 445 431 459 407 c 1,44,-1
 475 405 l 1,45,46
 494 415 494 415 520 428 c 128,-1,47
 546 441 546 441 576 450.5 c 128,-1,48
 606 460 606 460 635 460 c 0,49,50
 657 460 657 460 677.5 454.5 c 128,-1,51
 698 449 698 449 714 433 c 0,52,53
 734 413 734 413 734 368 c 128,-1,54
 734 323 734 323 734 248 c 2,55,-1
 734 117 l 2,56,57
 734 104 734 104 737.5 88.5 c 128,-1,58
 741 73 741 73 752 62.5 c 128,-1,59
 763 52 763 52 785 52 c 0,60,61
 801 52 801 52 822.5 65.5 c 128,-1,62
 844 79 844 79 862 92 c 1,63,-1
 876 92 l 1,64,-1
 883 71 l 1,65,66
 861 51 861 51 835 30 c 128,-1,67
 809 9 809 9 781 -4.5 c 128,-1,68
 753 -18 753 -18 723 -18 c 0,69,70
 688 -18 688 -18 671.5 6.5 c 128,-1,71
 655 31 655 31 655 59 c 0,72,73
 655 65 655 65 656 88 c 128,-1,74
 657 111 657 111 657.5 142.5 c 128,-1,75
 658 174 658 174 659 207.5 c 128,-1,76
 660 241 660 241 660 269 c 0,77,78
 660 331 660 331 642 365.5 c 128,-1,79
 624 400 624 400 575 400 c 0,80,81
 538 400 538 400 511 389 c 128,-1,82
 484 378 484 378 463 366 c 1,83,84
 462 332 462 332 461.5 297.5 c 128,-1,85
 461 263 461 263 461 228 c 0,86,87
 461 122 461 122 467 18 c 1,88,-1
 393 -10 l 1,0,-1
EndSplineSet
EndChar

StartChar: n
Encoding: 110 110 81
Width: 631
GlyphClass: 2
Flags: W
AnchorPoint: "Anchor-10" 317 462 basechar 0
AnchorPoint: "Anchor-9" 317 0 basechar 0
LayerCount: 2
Fore
SplineSet
195 18 m 1,0,-1
 125 -6 l 1,1,-1
 110 1 l 1,2,3
 111 20 111 20 112.5 57 c 128,-1,4
 114 94 114 94 115.5 138.5 c 128,-1,5
 117 183 117 183 118 225.5 c 128,-1,6
 119 268 119 268 119 298 c 0,7,8
 119 348 119 348 113 380.5 c 128,-1,9
 107 413 107 413 82 413 c 0,10,11
 66 413 66 413 47.5 402.5 c 128,-1,12
 29 392 29 392 7 378 c 1,13,-1
 -10 400 l 1,14,15
 11 415 11 415 35 431.5 c 128,-1,16
 59 448 59 448 83 459.5 c 128,-1,17
 107 471 107 471 125 471 c 0,18,19
 163 471 163 471 178 451 c 128,-1,20
 193 431 193 431 197 403 c 1,21,-1
 205 397 l 1,22,23
 247 423 247 423 296.5 446 c 128,-1,24
 346 469 346 469 394 469 c 0,25,26
 416 469 416 469 436.5 463 c 128,-1,27
 457 457 457 457 471 440 c 0,28,29
 481 428 481 428 485 396.5 c 128,-1,30
 489 365 489 365 490 326.5 c 128,-1,31
 491 288 491 288 491 256 c 0,32,33
 491 181 491 181 491.5 138 c 128,-1,34
 492 95 492 95 501.5 77.5 c 128,-1,35
 511 60 511 60 539 60 c 0,36,37
 556 60 556 60 578 73 c 128,-1,38
 600 86 600 86 619 100 c 1,39,-1
 632 100 l 1,40,-1
 641 79 l 1,41,42
 607 45 607 45 563.5 17.5 c 128,-1,43
 520 -10 520 -10 484 -10 c 0,44,45
 443 -10 443 -10 427.5 16 c 128,-1,46
 412 42 412 42 412 78 c 2,47,-1
 417 249 l 2,48,49
 417 324 417 324 398.5 367 c 128,-1,50
 380 410 380 410 327 410 c 0,51,52
 293 410 293 410 259 390.5 c 128,-1,53
 225 371 225 371 198 349 c 1,54,55
 196 295 196 295 194 233 c 128,-1,56
 192 171 192 171 192 116 c 0,57,58
 192 95 192 95 193 71.5 c 128,-1,59
 194 48 194 48 195 18 c 1,0,-1
EndSplineSet
EndChar

StartChar: o
Encoding: 111 111 82
Width: 537
GlyphClass: 2
Flags: W
AnchorPoint: "Anchor-10" 269 462 basechar 0
AnchorPoint: "Anchor-9" 269 0 basechar 0
LayerCount: 2
Fore
SplineSet
431 59 m 0,0,1
 396 19 396 19 345.5 2.5 c 128,-1,2
 295 -14 295 -14 242 -14 c 0,3,4
 173 -14 173 -14 131.5 16.5 c 128,-1,5
 90 47 90 47 71 95 c 128,-1,6
 52 143 52 143 48 196 c 0,7,8
 48 248 48 248 57.5 300 c 128,-1,9
 67 352 67 352 103 391 c 0,10,11
 138 430 138 430 188.5 447.5 c 128,-1,12
 239 465 239 465 291 465 c 0,13,14
 365 465 365 465 408 432 c 128,-1,15
 451 399 451 399 470 347 c 128,-1,16
 489 295 489 295 489 239 c 0,17,18
 489 190 489 190 476.5 143 c 128,-1,19
 464 96 464 96 431 59 c 0,0,1
268 426 m 0,20,21
 228 426 228 426 192 399 c 128,-1,22
 156 372 156 372 142 316 c 0,23,24
 138 297 138 297 136 278 c 128,-1,25
 134 259 134 259 134 239 c 0,26,27
 134 208 134 208 140 171 c 128,-1,28
 146 134 146 134 160.5 101.5 c 128,-1,29
 175 69 175 69 201.5 48 c 128,-1,30
 228 27 228 27 269 27 c 256,31,32
 310 27 310 27 335.5 45 c 128,-1,33
 361 63 361 63 375 92 c 128,-1,34
 389 121 389 121 394.5 155 c 128,-1,35
 400 189 400 189 400 220 c 256,36,37
 400 251 400 251 395 286.5 c 128,-1,38
 390 322 390 322 376.5 354 c 128,-1,39
 363 386 363 386 336.5 406 c 128,-1,40
 310 426 310 426 268 426 c 0,20,21
EndSplineSet
EndChar

StartChar: p
Encoding: 112 112 83
Width: 562
GlyphClass: 1
Flags: W
LayerCount: 2
Fore
SplineSet
203 -206 m 1,0,-1
 122 -237 l 1,1,-1
 112 -226 l 1,2,3
 114 -209 114 -209 115 -176.5 c 128,-1,4
 116 -144 116 -144 116.5 -105 c 128,-1,5
 117 -66 117 -66 117.5 -26.5 c 128,-1,6
 118 13 118 13 118 45 c 128,-1,7
 118 77 118 77 118 94 c 2,8,-1
 118 315 l 2,9,10
 118 338 118 338 114.5 360 c 128,-1,11
 111 382 111 382 102.5 397 c 128,-1,12
 94 412 94 412 79 412 c 0,13,14
 63 412 63 412 43.5 403 c 128,-1,15
 24 394 24 394 6 383 c 1,16,-1
 -8 402 l 1,17,18
 22 426 22 426 58.5 448 c 128,-1,19
 95 470 95 470 128 470 c 0,20,21
 162 470 162 470 176 449 c 128,-1,22
 190 428 190 428 193 395 c 1,23,-1
 201 391 l 1,24,25
 242 423 242 423 287.5 444 c 128,-1,26
 333 465 333 465 385 465 c 0,27,28
 436 465 436 465 466 439 c 128,-1,29
 496 413 496 413 509 374.5 c 128,-1,30
 522 336 522 336 522 298 c 0,31,32
 522 243 522 243 503.5 188 c 128,-1,33
 485 133 485 133 450.5 88 c 128,-1,34
 416 43 416 43 368 16 c 128,-1,35
 320 -11 320 -11 262 -11 c 0,36,37
 233 -11 233 -11 203 -3 c 1,38,-1
 193 -11 l 1,39,40
 194 -34 194 -34 195 -70 c 128,-1,41
 196 -106 196 -106 198 -143 c 128,-1,42
 200 -180 200 -180 203 -206 c 1,0,-1
195 66 m 0,43,44
 213 50 213 50 235.5 39.5 c 128,-1,45
 258 29 258 29 283 29 c 0,46,47
 328 29 328 29 358 48 c 128,-1,48
 388 67 388 67 405.5 98.5 c 128,-1,49
 423 130 423 130 430.5 166.5 c 128,-1,50
 438 203 438 203 438 239 c 0,51,52
 438 283 438 283 425.5 320 c 128,-1,53
 413 357 413 357 390 380 c 128,-1,54
 367 403 367 403 335 403 c 0,55,56
 297 403 297 403 264 388 c 128,-1,57
 231 373 231 373 196 345 c 0,58,59
 196 343 196 343 195.5 330 c 128,-1,60
 195 317 195 317 194.5 300.5 c 128,-1,61
 194 284 194 284 193.5 270 c 128,-1,62
 193 256 193 256 193 252 c 0,63,64
 193 211 193 211 193.5 168 c 128,-1,65
 194 125 194 125 194.5 96 c 128,-1,66
 195 67 195 67 195 66 c 0,43,44
EndSplineSet
EndChar

StartChar: q
Encoding: 113 113 84
Width: 508
GlyphClass: 1
Flags: W
LayerCount: 2
Fore
SplineSet
451 -214 m 1,0,-1
 370 -243 l 1,1,-1
 354 -227 l 1,2,3
 355 -212 355 -212 356 -180 c 128,-1,4
 357 -148 357 -148 358 -107 c 128,-1,5
 359 -66 359 -66 360 -24 c 128,-1,6
 361 18 361 18 362 54 c 1,7,-1
 355 59 l 1,8,9
 317 31 317 31 273.5 12 c 128,-1,10
 230 -7 230 -7 183 -7 c 0,11,12
 144 -7 144 -7 116.5 11 c 128,-1,13
 89 29 89 29 72 58 c 128,-1,14
 55 87 55 87 47.5 121 c 128,-1,15
 40 155 40 155 40 186 c 0,16,17
 40 238 40 238 54 288.5 c 128,-1,18
 68 339 68 339 97 380.5 c 128,-1,19
 126 422 126 422 171.5 446.5 c 128,-1,20
 217 471 217 471 280 471 c 0,21,22
 303 471 303 471 330.5 462.5 c 128,-1,23
 358 454 358 454 379 443 c 1,24,-1
 388 445 l 1,25,-1
 432 504 l 1,26,-1
 453 500 l 1,27,28
 446 413 446 413 442.5 312.5 c 128,-1,29
 439 212 439 212 439 113 c 0,30,31
 439 22 439 22 442 -62.5 c 128,-1,32
 445 -147 445 -147 451 -214 c 1,0,-1
362 105 m 1,33,-1
 362 331 l 2,34,35
 362 350 362 350 360 370 c 128,-1,36
 358 390 358 390 346 402 c 0,37,38
 333 416 333 416 316 425 c 128,-1,39
 299 434 299 434 279 434 c 0,40,41
 223 434 223 434 190.5 402 c 128,-1,42
 158 370 158 370 145 319.5 c 128,-1,43
 132 269 132 269 132 213 c 0,44,45
 132 172 132 172 143.5 135.5 c 128,-1,46
 155 99 155 99 180 77 c 128,-1,47
 205 55 205 55 246 55 c 0,48,49
 275 55 275 55 306 69 c 128,-1,50
 337 83 337 83 362 105 c 1,33,-1
EndSplineSet
EndChar

StartChar: r
Encoding: 114 114 85
Width: 416
GlyphClass: 1
Flags: W
LayerCount: 2
Fore
SplineSet
406 388 m 1,0,-1
 352 339 l 1,1,-1
 340 344 l 1,2,3
 336 365 336 365 324 383.5 c 128,-1,4
 312 402 312 402 287 402 c 0,5,6
 256 402 256 402 237 381 c 128,-1,7
 218 360 218 360 210 340 c 0,8,9
 203 324 203 324 202 294 c 128,-1,10
 201 264 201 264 202 230.5 c 128,-1,11
 203 197 203 197 203 170 c 0,12,13
 203 95 203 95 206 18 c 1,14,-1
 136 -3 l 1,15,-1
 121 6 l 1,16,17
 126 59 126 59 129.5 121 c 128,-1,18
 133 183 133 183 133 243 c 0,19,20
 133 282 133 282 132 321 c 128,-1,21
 131 360 131 360 122 386 c 128,-1,22
 113 412 113 412 90 412 c 0,23,24
 73 412 73 412 52 402 c 128,-1,25
 31 392 31 392 12 381 c 1,26,-1
 0 398 l 1,27,28
 20 414 20 414 43.5 431 c 128,-1,29
 67 448 67 448 91 460.5 c 128,-1,30
 115 473 115 473 135 473 c 0,31,32
 169 473 169 473 186 453 c 128,-1,33
 203 433 203 433 207 401 c 1,34,-1
 217 397 l 1,35,36
 232 411 232 411 250.5 427.5 c 128,-1,37
 269 444 269 444 289 455.5 c 128,-1,38
 309 467 309 467 327 467 c 0,39,40
 398 467 398 467 406 388 c 1,0,-1
EndSplineSet
EndChar

StartChar: s
Encoding: 115 115 86
Width: 379
GlyphClass: 1
Flags: W
LayerCount: 2
Fore
SplineSet
342 383 m 1,0,-1
 287 346 l 1,1,-1
 275 353 l 1,2,3
 273 386 273 386 258.5 408.5 c 128,-1,4
 244 431 244 431 210 431 c 0,5,6
 175 431 175 431 151.5 408 c 128,-1,7
 128 385 128 385 128 350 c 0,8,9
 128 320 128 320 155.5 298.5 c 128,-1,10
 183 277 183 277 238 254 c 0,11,12
 296 229 296 229 324.5 201 c 128,-1,13
 353 173 353 173 353 138 c 0,14,15
 353 87 353 87 324.5 52.5 c 128,-1,16
 296 18 296 18 252.5 0.5 c 128,-1,17
 209 -17 209 -17 165 -17 c 0,18,19
 120 -17 120 -17 81.5 1 c 128,-1,20
 43 19 43 19 18 66 c 1,21,-1
 67 137 l 1,22,-1
 81 136 l 1,23,24
 84 90 84 90 116 55.5 c 128,-1,25
 148 21 148 21 195 21 c 0,26,27
 227 21 227 21 253.5 43.5 c 128,-1,28
 280 66 280 66 280 97 c 0,29,30
 280 123 280 123 265 141 c 128,-1,31
 250 159 250 159 227.5 172 c 128,-1,32
 205 185 205 185 181 195 c 0,33,34
 150 208 150 208 121 225 c 128,-1,35
 92 242 92 242 74 266 c 128,-1,36
 56 290 56 290 56 323 c 0,37,38
 56 368 56 368 82 400 c 128,-1,39
 108 432 108 432 148 449 c 128,-1,40
 188 466 188 466 229 466 c 0,41,42
 255 466 255 466 280.5 458 c 128,-1,43
 306 450 306 450 323.5 432 c 128,-1,44
 341 414 341 414 342 383 c 1,0,-1
EndSplineSet
EndChar

StartChar: t
Encoding: 116 116 87
Width: 385
GlyphClass: 1
Flags: W
LayerCount: 2
Fore
SplineSet
121 582 m 1,0,-1
 205 611 l 1,1,-1
 212 606 l 1,2,3
 208 563 208 563 205 523.5 c 128,-1,4
 202 484 202 484 201 440 c 1,5,-1
 207 435 l 1,6,-1
 335 435 l 1,7,-1
 340 431 l 1,8,-1
 332 405 l 1,9,-1
 326 400 l 1,10,-1
 207 400 l 1,11,-1
 201 394 l 1,12,-1
 201 205 l 2,13,14
 201 170 201 170 205.5 135 c 128,-1,15
 210 100 210 100 225.5 77.5 c 128,-1,16
 241 55 241 55 272 55 c 0,17,18
 291 55 291 55 316 68.5 c 128,-1,19
 341 82 341 82 363 96 c 1,20,-1
 375 94 l 1,21,-1
 382 79 l 1,22,23
 348 47 348 47 305 19 c 128,-1,24
 262 -9 262 -9 218 -9 c 0,25,26
 201 -9 201 -9 180.5 -2.5 c 128,-1,27
 160 4 160 4 146 22 c 0,28,29
 136 36 136 36 131 52 c 128,-1,30
 126 68 126 68 124.5 102 c 128,-1,31
 123 136 123 136 123 203 c 2,32,-1
 123 393 l 1,33,-1
 117 400 l 1,34,-1
 5 400 l 1,35,-1
 0 405 l 1,36,-1
 7 429 l 1,37,-1
 13 435 l 1,38,-1
 117 435 l 1,39,-1
 123 441 l 1,40,41
 123 479 123 479 123 521 c 128,-1,42
 123 563 123 563 121 582 c 1,0,-1
EndSplineSet
EndChar

StartChar: u
Encoding: 117 117 88
Width: 638
GlyphClass: 2
Flags: W
AnchorPoint: "Anchor-10" 319 462 basechar 0
AnchorPoint: "Anchor-9" 319 0 basechar 0
LayerCount: 2
Fore
SplineSet
627 107 m 1,0,-1
 635 105 l 1,1,-1
 646 86 l 1,2,3
 623 66 623 66 595 44 c 128,-1,4
 567 22 567 22 539 7 c 128,-1,5
 511 -8 511 -8 485 -8 c 0,6,7
 451 -8 451 -8 435 12.5 c 128,-1,8
 419 33 419 33 416 64 c 1,9,-1
 408 65 l 1,10,11
 380 48 380 48 347.5 30.5 c 128,-1,12
 315 13 315 13 282.5 1.5 c 128,-1,13
 250 -10 250 -10 220 -10 c 0,14,15
 177 -10 177 -10 154.5 9 c 128,-1,16
 132 28 132 28 123.5 56 c 128,-1,17
 115 84 115 84 115 112 c 0,18,19
 115 124 115 124 115.5 147 c 128,-1,20
 116 170 116 170 117 195 c 128,-1,21
 118 220 118 220 118.5 242 c 128,-1,22
 119 264 119 264 119 275 c 0,23,24
 119 321 119 321 117.5 344.5 c 128,-1,25
 116 368 116 368 112.5 378.5 c 128,-1,26
 109 389 109 389 102 396 c 0,27,28
 94 405 94 405 74 405 c 0,29,30
 64 405 64 405 42 395 c 128,-1,31
 20 385 20 385 3 375 c 1,32,-1
 -10 395 l 1,33,34
 10 410 10 410 33.5 427 c 128,-1,35
 57 444 57 444 81 456 c 128,-1,36
 105 468 105 468 126 468 c 0,37,38
 164 468 164 468 177 447 c 128,-1,39
 190 426 190 426 191 377.5 c 128,-1,40
 192 329 192 329 192 244 c 0,41,42
 192 193 192 193 195.5 149 c 128,-1,43
 199 105 199 105 217.5 78 c 128,-1,44
 236 51 236 51 282 51 c 0,45,46
 316 51 316 51 350 68.5 c 128,-1,47
 384 86 384 86 413 104 c 1,48,49
 413 153 413 153 413.5 214.5 c 128,-1,50
 414 276 414 276 414 329 c 0,51,52
 414 364 414 364 414 391.5 c 128,-1,53
 414 419 414 419 413 435 c 1,54,-1
 490 470 l 1,55,-1
 503 459 l 1,56,57
 491 320 491 320 491 181 c 0,58,59
 491 151 491 151 493 124.5 c 128,-1,60
 495 98 495 98 505.5 81.5 c 128,-1,61
 516 65 516 65 540 65 c 0,62,63
 560 65 560 65 584 79 c 128,-1,64
 608 93 608 93 627 107 c 1,0,-1
EndSplineSet
EndChar

StartChar: v
Encoding: 118 118 89
Width: 493
GlyphClass: 1
Flags: W
LayerCount: 2
Fore
SplineSet
363 425 m 2,0,-1
 413 460 l 2,1,2
 416 462 416 462 421 462 c 0,3,4
 435 462 435 462 451 434 c 128,-1,5
 467 406 467 406 467 362 c 0,6,7
 467 321 467 321 450 283.5 c 128,-1,8
 433 246 433 246 412 212 c 0,9,10
 378 158 378 158 337.5 110 c 128,-1,11
 297 62 297 62 253 17 c 0,12,13
 245 9 245 9 236 0 c 128,-1,14
 227 -9 227 -9 223 -11 c 2,15,-1
 199 -11 l 1,16,-1
 130 247 l 2,17,18
 119 290 119 290 106.5 326.5 c 128,-1,19
 94 363 94 363 81 385.5 c 128,-1,20
 68 408 68 408 52 408 c 256,21,22
 36 408 36 408 21 402.5 c 128,-1,23
 6 397 6 397 -11 387 c 1,24,-1
 -20 411 l 1,25,26
 7 430 7 430 41.5 449.5 c 128,-1,27
 76 469 76 469 105 469 c 0,28,29
 131 469 131 469 146 447.5 c 128,-1,30
 161 426 161 426 172.5 386.5 c 128,-1,31
 184 347 184 347 198 293 c 0,32,33
 204 271 204 271 212 235.5 c 128,-1,34
 220 200 220 200 229.5 165 c 128,-1,35
 239 130 239 130 248.5 106 c 128,-1,36
 258 82 258 82 266 82 c 0,37,38
 270 82 270 82 277 90 c 128,-1,39
 284 98 284 98 290 104 c 0,40,41
 315 134 315 134 339.5 168.5 c 128,-1,42
 364 203 364 203 380.5 240 c 128,-1,43
 397 277 397 277 397 312 c 0,44,45
 397 336 397 336 385 362 c 128,-1,46
 373 388 373 388 360 412 c 0,47,48
 359 413 359 413 359 417 c 256,49,50
 359 421 359 421 363 425 c 2,0,-1
EndSplineSet
EndChar

StartChar: w
Encoding: 119 119 90
Width: 801
GlyphClass: 1
Flags: W
LayerCount: 2
Fore
SplineSet
668 416 m 0,0,1
 667 418 667 418 667 422 c 0,2,3
 667 428 667 428 669 429 c 2,4,-1
 726 464 l 2,5,6
 727 465 727 465 732 465 c 0,7,8
 745 465 745 465 754.5 446 c 128,-1,9
 764 427 764 427 769.5 404 c 128,-1,10
 775 381 775 381 775 369 c 0,11,12
 775 328 775 328 757.5 289.5 c 128,-1,13
 740 251 740 251 719 216 c 0,14,15
 685 161 685 161 645 110.5 c 128,-1,16
 605 60 605 60 561 13 c 0,17,18
 554 6 554 6 545 -1 c 128,-1,19
 536 -8 536 -8 526 -8 c 0,20,21
 518 -8 518 -8 510 -1 c 128,-1,22
 502 6 502 6 500 13 c 0,23,24
 494 31 494 31 483 69.5 c 128,-1,25
 472 108 472 108 459 157 c 128,-1,26
 446 206 446 206 433 256.5 c 128,-1,27
 420 307 420 307 409 350 c 0,28,29
 408 353 408 353 406 356.5 c 128,-1,30
 404 360 404 360 400 360 c 0,31,32
 391 360 391 360 389 355 c 0,33,34
 347 278 347 278 299 186 c 128,-1,35
 251 94 251 94 210 5 c 1,36,-1
 168 -8 l 1,37,-1
 161 -2 l 1,38,-1
 137 222 l 2,39,40
 129 294 129 294 119.5 333 c 128,-1,41
 110 372 110 372 100.5 388.5 c 128,-1,42
 91 405 91 405 83.5 408.5 c 128,-1,43
 76 412 76 412 72 412 c 0,44,45
 55 412 55 412 32 402 c 128,-1,46
 9 392 9 392 -11 381 c 1,47,-1
 -20 401 l 1,48,49
 0 415 0 415 23 431 c 128,-1,50
 46 447 46 447 70 458 c 128,-1,51
 94 469 94 469 114 469 c 0,52,53
 141 469 141 469 156.5 453.5 c 128,-1,54
 172 438 172 438 180 416 c 128,-1,55
 188 394 188 394 192 373 c 0,56,57
 203 313 203 313 208.5 252 c 128,-1,58
 214 191 214 191 221 130 c 1,59,-1
 232 128 l 1,60,61
 275 205 275 205 317 283.5 c 128,-1,62
 359 362 359 362 398 441 c 1,63,-1
 450 467 l 1,64,-1
 462 464 l 1,65,66
 482 370 482 370 504 277.5 c 128,-1,67
 526 185 526 185 559 96 c 0,68,69
 561 91 561 91 566 86 c 128,-1,70
 571 81 571 81 577 81 c 0,71,72
 580 81 580 81 585 84.5 c 128,-1,73
 590 88 590 88 592 91 c 0,74,75
 618 123 618 123 644 158.5 c 128,-1,76
 670 194 670 194 688 233 c 128,-1,77
 706 272 706 272 706 312 c 0,78,79
 706 337 706 337 694 365 c 128,-1,80
 682 393 682 393 668 416 c 0,0,1
EndSplineSet
EndChar

StartChar: x
Encoding: 120 120 91
Width: 490
GlyphClass: 1
Flags: W
LayerCount: 2
Fore
SplineSet
410 462 m 2,0,-1
 441 433 l 2,1,2
 444 430 444 430 444 429 c 0,3,4
 444 426 444 426 441 424 c 0,5,6
 399 395 399 395 353.5 350 c 128,-1,7
 308 305 308 305 269 259 c 1,8,9
 290 214 290 214 315 168.5 c 128,-1,10
 340 123 340 123 365.5 93 c 128,-1,11
 391 63 391 63 413 63 c 0,12,13
 431 63 431 63 450 75.5 c 128,-1,14
 469 88 469 88 484 101 c 1,15,-1
 492 101 l 1,16,-1
 500 82 l 1,17,18
 483 63 483 63 461 41 c 128,-1,19
 439 19 439 19 416 3.5 c 128,-1,20
 393 -12 393 -12 372 -12 c 0,21,22
 334 -12 334 -12 302.5 41 c 128,-1,23
 271 94 271 94 221 191 c 1,24,-1
 214 191 l 1,25,26
 185 146 185 146 156.5 98 c 128,-1,27
 128 50 128 50 105 -8 c 1,28,-1
 89 -12 l 1,29,-1
 61 13 l 1,30,-1
 61 21 l 1,31,32
 93 73 93 73 129.5 124 c 128,-1,33
 166 175 166 175 203 223 c 1,34,35
 189 252 189 252 173 284 c 128,-1,36
 157 316 157 316 139.5 344 c 128,-1,37
 122 372 122 372 104 389.5 c 128,-1,38
 86 407 86 407 68 407 c 0,39,40
 52 407 52 407 35 399 c 128,-1,41
 18 391 18 391 4 382 c 1,42,-1
 -10 400 l 1,43,44
 8 414 8 414 29 428.5 c 128,-1,45
 50 443 50 443 71 453.5 c 128,-1,46
 92 464 92 464 108 464 c 0,47,48
 121 464 121 464 136.5 460 c 128,-1,49
 152 456 152 456 162 445 c 0,50,51
 173 434 173 434 188.5 408.5 c 128,-1,52
 204 383 204 383 221.5 352.5 c 128,-1,53
 239 322 239 322 253 294 c 1,54,-1
 259 293 l 1,55,56
 277 317 277 317 301 346.5 c 128,-1,57
 325 376 325 376 350.5 406.5 c 128,-1,58
 376 437 376 437 398 462 c 0,59,60
 399 464 399 464 404 464 c 0,61,62
 408 464 408 464 410 462 c 2,0,-1
EndSplineSet
EndChar

StartChar: y
Encoding: 121 121 92
Width: 572
GlyphClass: 2
Flags: W
AnchorPoint: "Anchor-10" 277 462 basechar 0
AnchorPoint: "Anchor-9" 277 0 basechar 0
LayerCount: 2
Fore
SplineSet
104 -182 m 1,0,-1
 102 -171 l 1,1,-1
 146 -115 l 1,2,-1
 159 -115 l 1,3,4
 175 -143 175 -143 202 -167.5 c 128,-1,5
 229 -192 229 -192 263 -192 c 0,6,7
 303 -192 303 -192 329 -175.5 c 128,-1,8
 355 -159 355 -159 370 -134 c 128,-1,9
 385 -109 385 -109 392.5 -82 c 128,-1,10
 400 -55 400 -55 404 -34 c 0,11,12
 409 -9 409 -9 410 15.5 c 128,-1,13
 411 40 411 40 412 64 c 1,14,-1
 406 69 l 1,15,16
 364 43 364 43 315 17.5 c 128,-1,17
 266 -8 266 -8 218 -8 c 0,18,19
 182 -8 182 -8 161 8 c 128,-1,20
 140 24 140 24 130 49.5 c 128,-1,21
 120 75 120 75 117 103.5 c 128,-1,22
 114 132 114 132 114 157 c 0,23,24
 114 191 114 191 116 224 c 128,-1,25
 118 257 118 257 118 294 c 0,26,27
 118 348 118 348 110.5 379 c 128,-1,28
 103 410 103 410 72 410 c 0,29,30
 59 410 59 410 38.5 400.5 c 128,-1,31
 18 391 18 391 1 382 c 1,32,-1
 -10 401 l 1,33,34
 -5 405 -5 405 11 415.5 c 128,-1,35
 27 426 27 426 47.5 438 c 128,-1,36
 68 450 68 450 90 459 c 128,-1,37
 112 468 112 468 129 468 c 0,38,39
 161 468 161 468 176.5 447 c 128,-1,40
 192 426 192 426 192 398 c 0,41,42
 192 356 192 356 190 313 c 128,-1,43
 188 270 188 270 188 226 c 0,44,45
 190 180 190 180 193.5 152 c 128,-1,46
 197 124 197 124 202.5 108.5 c 128,-1,47
 208 93 208 93 216 82 c 0,48,49
 227 68 227 68 244 62 c 128,-1,50
 261 56 261 56 279 56 c 0,51,52
 315 56 315 56 350 74 c 128,-1,53
 385 92 385 92 413 108 c 1,54,55
 414 134 414 134 414.5 161 c 128,-1,56
 415 188 415 188 415 215 c 0,57,58
 415 269 415 269 413 322.5 c 128,-1,59
 411 376 411 376 407 428 c 1,60,-1
 486 466 l 1,61,-1
 498 462 l 1,62,63
 493 386 493 386 492 310 c 128,-1,64
 491 234 491 234 490.5 165.5 c 128,-1,65
 490 97 490 97 487.5 42 c 128,-1,66
 485 -13 485 -13 477 -49 c 0,67,68
 459 -114 459 -114 421.5 -154.5 c 128,-1,69
 384 -195 384 -195 334.5 -214 c 128,-1,70
 285 -233 285 -233 231 -233 c 0,71,72
 196 -233 196 -233 160 -218 c 128,-1,73
 124 -203 124 -203 104 -182 c 1,0,-1
EndSplineSet
EndChar

StartChar: z
Encoding: 122 122 93
Width: 463
GlyphClass: 1
Flags: W
LayerCount: 2
Fore
SplineSet
402 462 m 1,0,-1
 408 462 l 1,1,-1
 422 449 l 1,2,3
 381 405 381 405 332.5 348 c 128,-1,4
 284 291 284 291 233 226 c 128,-1,5
 182 161 182 161 132 94 c 1,6,-1
 137 86 l 1,7,8
 186 81 186 81 231.5 78 c 128,-1,9
 277 75 277 75 307.5 74 c 128,-1,10
 338 73 338 73 342 73 c 0,11,12
 385 73 385 73 409.5 98.5 c 128,-1,13
 434 124 434 124 451 151 c 1,14,-1
 473 139 l 1,15,-1
 432 59 l 2,16,17
 417 29 417 29 395 10 c 128,-1,18
 373 -9 373 -9 335 -8 c 0,19,20
 330 -8 330 -8 307 -6 c 128,-1,21
 284 -4 284 -4 256 -0.5 c 128,-1,22
 228 3 228 3 206 5 c 2,23,-1
 89 16 l 2,24,25
 71 16 71 16 55 3 c 128,-1,26
 39 -10 39 -10 27 -27 c 1,27,-1
 21 -27 l 1,28,-1
 6 -8 l 1,29,-1
 301 373 l 1,30,31
 294 372 294 372 286.5 371.5 c 128,-1,32
 279 371 279 371 271 371 c 0,33,34
 246 371 246 371 212 380.5 c 128,-1,35
 178 390 178 390 151 390 c 0,36,37
 123 390 123 390 104 370.5 c 128,-1,38
 85 351 85 351 62 319 c 1,39,-1
 42 332 l 1,40,-1
 92 421 l 2,41,42
 107 444 107 444 119.5 453 c 128,-1,43
 132 462 132 462 154 462 c 0,44,45
 180 462 180 462 209.5 454.5 c 128,-1,46
 239 447 239 447 270 439 c 128,-1,47
 301 431 301 431 329 431 c 0,48,49
 351 431 351 431 368.5 440 c 128,-1,50
 386 449 386 449 402 462 c 1,0,-1
EndSplineSet
EndChar

StartChar: braceleft
Encoding: 123 123 94
Width: 313
GlyphClass: 1
Flags: W
LayerCount: 2
Fore
SplineSet
303 -154 m 1,0,-1
 303 -178 l 1,1,2
 274 -178 274 -178 239.5 -177 c 128,-1,3
 205 -176 205 -176 187 -172 c 0,4,5
 150 -162 150 -162 136 -132.5 c 128,-1,6
 122 -103 122 -103 121 -59.5 c 128,-1,7
 120 -16 120 -16 120 34 c 0,8,9
 120 69 120 69 119 110.5 c 128,-1,10
 118 152 118 152 113 187 c 128,-1,11
 108 222 108 222 95 236 c 0,12,13
 81 252 81 252 56 255.5 c 128,-1,14
 31 259 31 259 8 259 c 1,15,-1
 8 285 l 1,16,17
 37 285 37 285 57 288 c 128,-1,18
 77 291 77 291 93 305 c 256,19,20
 109 319 109 319 114 350.5 c 128,-1,21
 119 382 119 382 119 425 c 128,-1,22
 119 468 119 468 119 514 c 0,23,24
 119 595 119 595 125.5 639 c 128,-1,25
 132 683 132 683 151 702.5 c 128,-1,26
 170 722 170 722 206.5 726 c 128,-1,27
 243 730 243 730 303 730 c 1,28,-1
 303 706 l 1,29,30
 281 706 281 706 258.5 704.5 c 128,-1,31
 236 703 236 703 216 698 c 0,32,33
 197 693 197 693 187.5 674 c 128,-1,34
 178 655 178 655 174.5 628 c 128,-1,35
 171 601 171 601 170.5 572 c 128,-1,36
 170 543 170 543 170 518 c 0,37,38
 170 418 170 418 151.5 354.5 c 128,-1,39
 133 291 133 291 85 274 c 1,40,-1
 85 273 l 1,41,42
 120 261 120 261 137.5 234.5 c 128,-1,43
 155 208 155 208 162 173.5 c 128,-1,44
 169 139 169 139 169.5 101.5 c 128,-1,45
 170 64 170 64 170 30 c 0,46,47
 170 -38 170 -38 177 -76 c 128,-1,48
 184 -114 184 -114 200 -130.5 c 128,-1,49
 216 -147 216 -147 241.5 -150.5 c 128,-1,50
 267 -154 267 -154 303 -154 c 1,0,-1
EndSplineSet
Substitution2: "'locl' Localized Forms in Latin lookup 94 subtable" braceleft.1
EndChar

StartChar: bar
Encoding: 124 124 95
Width: 216
GlyphClass: 1
Flags: W
LayerCount: 2
Fore
SplineSet
128 738 m 1,0,-1
 128 -159 l 1,1,-1
 88 -167 l 1,2,-1
 88 730 l 1,3,-1
 128 738 l 1,0,-1
EndSplineSet
EndChar

StartChar: braceright
Encoding: 125 125 96
Width: 313
GlyphClass: 1
Flags: W
LayerCount: 2
Fore
SplineSet
10 -175 m 1,0,-1
 10 -151 l 1,1,2
 30 -151 30 -151 51.5 -150 c 128,-1,3
 73 -149 73 -149 90 -145 c 0,4,5
 111 -140 111 -140 122 -121.5 c 128,-1,6
 133 -103 133 -103 137.5 -76.5 c 128,-1,7
 142 -50 142 -50 142.5 -21 c 128,-1,8
 143 8 143 8 143 33 c 0,9,10
 143 66 143 66 143.5 103 c 128,-1,11
 144 140 144 140 151 175 c 128,-1,12
 158 210 158 210 176 237 c 128,-1,13
 194 264 194 264 228 276 c 1,14,-1
 228 277 l 1,15,16
 200 287 200 287 178.5 317 c 128,-1,17
 157 347 157 347 150 398 c 0,18,19
 142 459 142 459 144 519.5 c 128,-1,20
 146 580 146 580 137 639 c 0,21,22
 130 676 130 676 111.5 690.5 c 128,-1,23
 93 705 93 705 67 707 c 128,-1,24
 41 709 41 709 10 709 c 1,25,-1
 10 733 l 1,26,27
 69 732 69 732 108.5 729.5 c 128,-1,28
 148 727 148 727 168 701 c 0,29,30
 184 681 184 681 189 660.5 c 128,-1,31
 194 640 194 640 194 607 c 128,-1,32
 194 574 194 574 194 517 c 0,33,34
 194 445 194 445 196.5 399.5 c 128,-1,35
 199 354 199 354 209.5 330 c 128,-1,36
 220 306 220 306 242.5 297 c 128,-1,37
 265 288 265 288 305 288 c 1,38,-1
 305 262 l 1,39,40
 279 263 279 263 251 257 c 0,41,42
 221 250 221 250 209 217 c 128,-1,43
 197 184 197 184 195 136.5 c 128,-1,44
 193 89 193 89 193 37 c 0,45,46
 193 -43 193 -43 185 -86.5 c 128,-1,47
 177 -130 177 -130 157 -149 c 128,-1,48
 137 -168 137 -168 101.5 -171.5 c 128,-1,49
 66 -175 66 -175 10 -175 c 1,0,-1
EndSplineSet
Substitution2: "'locl' Localized Forms in Latin lookup 94 subtable" braceright.1
EndChar

StartChar: asciitilde
Encoding: 126 126 97
Width: 672
GlyphClass: 1
Flags: W
LayerCount: 2
Fore
SplineSet
342 291 m 2,0,-1
 416 245 l 2,1,2
 433 235 433 235 451.5 227 c 128,-1,3
 470 219 470 219 490 219 c 0,4,5
 520 219 520 219 537.5 238.5 c 128,-1,6
 555 258 555 258 570 286 c 1,7,-1
 591 275 l 1,8,9
 576 239 576 239 548 208.5 c 128,-1,10
 520 178 520 178 479 178 c 0,11,12
 451 178 451 178 424 188.5 c 128,-1,13
 397 199 397 199 374 214 c 2,14,-1
 275 277 l 2,15,16
 257 288 257 288 237 296.5 c 128,-1,17
 217 305 217 305 195 305 c 0,18,19
 165 305 165 305 146 286.5 c 128,-1,20
 127 268 127 268 105 228 c 1,21,-1
 83 240 l 1,22,23
 105 284 105 284 134 315.5 c 128,-1,24
 163 347 163 347 207 347 c 0,25,26
 240 347 240 347 275.5 328.5 c 128,-1,27
 311 310 311 310 342 291 c 2,0,-1
EndSplineSet
EndChar

StartChar: exclamdown
Encoding: 161 161 98
Width: 216
GlyphClass: 1
Flags: W
LayerCount: 2
Fore
SplineSet
54 442 m 256,0,1
 54 465 54 465 71 482 c 128,-1,2
 88 499 88 499 112 499 c 0,3,4
 135 499 135 499 151.5 482 c 128,-1,5
 168 465 168 465 168 442 c 256,6,7
 168 419 168 419 151.5 402 c 128,-1,8
 135 385 135 385 112 385 c 0,9,10
 88 385 88 385 71 402 c 128,-1,11
 54 419 54 419 54 442 c 256,0,1
112 302 m 1,12,-1
 148 -69 l 2,13,14
 150 -91 150 -91 151.5 -112.5 c 128,-1,15
 153 -134 153 -134 153 -156 c 0,16,17
 153 -171 153 -171 146 -186.5 c 128,-1,18
 139 -202 139 -202 116 -202 c 0,19,20
 92 -202 92 -202 79 -188.5 c 128,-1,21
 66 -175 66 -175 66 -137 c 0,22,23
 65 -124 65 -124 66.5 -108.5 c 128,-1,24
 68 -93 68 -93 69 -79 c 2,25,-1
 96 304 l 1,26,-1
 112 302 l 1,12,-1
EndSplineSet
EndChar

StartChar: cent
Encoding: 162 162 99
Width: 461
GlyphClass: 1
Flags: W
LayerCount: 2
Fore
SplineSet
418 116 m 1,0,-1
 427 114 l 1,1,-1
 438 96 l 1,2,3
 400 59 400 59 356.5 28.5 c 128,-1,4
 313 -2 313 -2 263 -13 c 1,5,-1
 263 -159 l 1,6,-1
 223 -167 l 1,7,-1
 223 -19 l 1,8,9
 219 -19 219 -19 214 -19 c 0,10,11
 153 -19 153 -19 118 3.5 c 128,-1,12
 83 26 83 26 66.5 62 c 128,-1,13
 50 98 50 98 45.5 139 c 128,-1,14
 41 180 41 180 41 217 c 0,15,16
 41 311 41 311 91 378 c 128,-1,17
 141 445 141 445 223 466 c 1,18,-1
 223 634 l 1,19,-1
 263 642 l 1,20,-1
 263 473 l 1,21,22
 278 475 278 475 294 475 c 0,23,24
 343 475 343 475 374.5 447.5 c 128,-1,25
 406 420 406 420 410 377 c 1,26,-1
 356 324 l 1,27,-1
 339 330 l 1,28,29
 333 377 333 377 312.5 404.5 c 128,-1,30
 292 432 292 432 263 435 c 1,31,-1
 263 47 l 1,32,-1
 265 47 l 2,33,34
 309 47 309 47 347 67.5 c 128,-1,35
 385 88 385 88 418 116 c 1,0,-1
124 248 m 0,36,37
 124 211 124 211 132 170 c 128,-1,38
 140 129 140 129 161.5 97 c 128,-1,39
 183 65 183 65 223 53 c 1,40,-1
 223 431 l 1,41,42
 191 421 191 421 168.5 392 c 128,-1,43
 146 363 146 363 135 324.5 c 128,-1,44
 124 286 124 286 124 248 c 0,36,37
EndSplineSet
EndChar

StartChar: sterling
Encoding: 163 163 100
Width: 649
GlyphClass: 1
Flags: W
LayerCount: 2
Fore
SplineSet
301 134 m 2,0,1
 328 116 328 116 362.5 102 c 128,-1,2
 397 88 397 88 430 80 c 128,-1,3
 463 72 463 72 485 72 c 0,4,5
 517 72 517 72 539 90 c 128,-1,6
 561 108 561 108 572.5 137.5 c 128,-1,7
 584 167 584 167 584 200 c 0,8,9
 584 213 584 213 583 229 c 128,-1,10
 582 245 582 245 580 255 c 1,11,-1
 604 260 l 1,12,13
 607 247 607 247 608 228.5 c 128,-1,14
 609 210 609 210 609 202 c 0,15,16
 609 160 609 160 601.5 119.5 c 128,-1,17
 594 79 594 79 565 48 c 0,18,19
 543 26 543 26 521.5 9.5 c 128,-1,20
 500 -7 500 -7 468 -7 c 0,21,22
 407 -7 407 -7 363 11 c 128,-1,23
 319 29 319 29 292 51 c 0,24,25
 243 83 243 83 205.5 99 c 128,-1,26
 168 115 168 115 148 115 c 0,27,28
 115 115 115 115 94 94.5 c 128,-1,29
 73 74 73 74 61.5 45.5 c 128,-1,30
 50 17 50 17 42 -6 c 1,31,-1
 22 11 l 1,32,33
 26 59 26 59 60 116 c 0,34,35
 77 144 77 144 104 160 c 128,-1,36
 131 176 131 176 154 199 c 0,37,38
 169 214 169 214 181 246 c 128,-1,39
 193 278 193 278 202 316 c 1,40,41
 176 315 176 315 149.5 314.5 c 128,-1,42
 123 314 123 314 96 313 c 1,43,-1
 104 358 l 1,44,45
 136 357 136 357 159.5 356 c 128,-1,46
 183 355 183 355 210 353 c 1,47,48
 215 379 215 379 218 403 c 0,49,50
 235 533 235 533 294.5 609 c 128,-1,51
 354 685 354 685 460 685 c 0,52,53
 498 685 498 685 529.5 666.5 c 128,-1,54
 561 648 561 648 561 607 c 0,55,56
 561 577 561 577 549.5 564 c 128,-1,57
 538 551 538 551 526.5 548.5 c 128,-1,58
 515 546 515 546 515 546 c 2,59,60
 498 546 498 546 488.5 554 c 128,-1,61
 479 562 479 562 479 590 c 0,62,63
 479 614 479 614 460.5 632.5 c 128,-1,64
 442 651 442 651 416 651 c 0,65,66
 376 651 376 651 353.5 624 c 128,-1,67
 331 597 331 597 319.5 553 c 128,-1,68
 308 509 308 509 300 456.5 c 128,-1,69
 292 404 292 404 280 354 c 1,70,-1
 458 360 l 1,71,-1
 454 312 l 1,72,73
 409 313 409 313 379 314 c 128,-1,74
 349 315 349 315 324 315.5 c 128,-1,75
 299 316 299 316 270 317 c 1,76,77
 267 310 267 310 265 303 c 0,78,79
 257 273 257 273 239.5 247 c 128,-1,80
 222 221 222 221 203 202.5 c 128,-1,81
 184 184 184 184 168 176 c 1,82,-1
 171 170 l 1,83,84
 211 170 211 170 240 161 c 128,-1,85
 269 152 269 152 285 143 c 128,-1,86
 301 134 301 134 301 134 c 2,0,1
EndSplineSet
EndChar

StartChar: currency
Encoding: 164 164 101
Width: 590
GlyphClass: 1
Flags: W
LayerCount: 2
Fore
SplineSet
75 484 m 1,0,-1
 122 531 l 1,1,-1
 170 483 l 1,2,3
 224 524 224 524 295 524 c 0,4,5
 364 524 364 524 420 483 c 1,6,-1
 468 531 l 1,7,-1
 515 484 l 1,8,-1
 466 435 l 1,9,10
 489 410 489 410 498.5 381 c 128,-1,11
 508 352 508 352 508 313 c 0,12,13
 508 276 508 276 498.5 247.5 c 128,-1,14
 489 219 489 219 466 190 c 1,15,-1
 515 141 l 1,16,-1
 470 96 l 1,17,-1
 422 144 l 1,18,19
 394 122 394 122 364.5 112 c 128,-1,20
 335 102 335 102 295 102 c 256,21,22
 255 102 255 102 225.5 112 c 128,-1,23
 196 122 196 122 168 144 c 1,24,-1
 120 96 l 1,25,-1
 75 141 l 1,26,-1
 124 190 l 1,27,28
 102 219 102 219 92 247.5 c 128,-1,29
 82 276 82 276 82 313 c 0,30,31
 82 352 82 352 92 381 c 128,-1,32
 102 410 102 410 124 435 c 1,33,-1
 75 484 l 1,0,-1
298 465 m 0,34,35
 255 465 255 465 219 444.5 c 128,-1,36
 183 424 183 424 162 390 c 128,-1,37
 141 356 141 356 141 314 c 256,38,39
 141 272 141 272 162 237 c 128,-1,40
 183 202 183 202 218 181.5 c 128,-1,41
 253 161 253 161 295 161 c 0,42,43
 338 161 338 161 372.5 181.5 c 128,-1,44
 407 202 407 202 428 236.5 c 128,-1,45
 449 271 449 271 449 313 c 0,46,47
 449 354 449 354 428 388.5 c 128,-1,48
 407 423 407 423 373 444 c 128,-1,49
 339 465 339 465 298 465 c 0,34,35
EndSplineSet
EndChar

StartChar: yen
Encoding: 165 165 102
Width: 623
GlyphClass: 1
Flags: W
LayerCount: 2
Fore
SplineSet
250 299 m 1,0,-1
 235 329 l 1,1,-1
 92 329 l 1,2,-1
 99 369 l 1,3,-1
 215 369 l 1,4,-1
 101 594 l 2,5,6
 84 628 84 628 64.5 637.5 c 128,-1,7
 45 647 45 647 15 651 c 1,8,-1
 15 679 l 1,9,-1
 22 686 l 1,10,-1
 167 686 l 1,11,-1
 308 361 l 2,12,13
 309 360 309 360 312.5 356.5 c 128,-1,14
 316 353 316 353 320 353 c 0,15,16
 323 353 323 353 334 368.5 c 128,-1,17
 345 384 345 384 360 408.5 c 128,-1,18
 375 433 375 433 390 460 c 0,19,20
 393 465 393 465 408 491 c 128,-1,21
 423 517 423 517 443.5 552 c 128,-1,22
 464 587 464 587 484.5 621 c 128,-1,23
 505 655 505 655 518 676 c 1,24,-1
 603 693 l 1,25,-1
 607 675 l 1,26,27
 538 585 538 585 484.5 514 c 128,-1,28
 431 443 431 443 381 369 c 1,29,-1
 512 369 l 1,30,-1
 506 329 l 1,31,-1
 354 329 l 1,32,33
 347 318 347 318 339 306 c 1,34,-1
 341 237 l 1,35,-1
 514 237 l 1,36,-1
 508 197 l 1,37,-1
 342 197 l 1,38,-1
 348 18 l 1,39,-1
 258 -11 l 1,40,-1
 247 -2 l 1,41,42
 248 48 248 48 249 97.5 c 128,-1,43
 250 147 250 147 250 197 c 1,44,-1
 94 197 l 1,45,-1
 101 237 l 1,46,-1
 250 237 l 1,47,48
 250 253 250 253 250 268.5 c 128,-1,49
 250 284 250 284 250 299 c 1,0,-1
EndSplineSet
EndChar

StartChar: brokenbar
Encoding: 166 166 103
Width: 208
GlyphClass: 1
Flags: W
LayerCount: 2
Fore
SplineSet
124 738 m 1,0,-1
 124 335 l 1,1,-1
 84 327 l 1,2,-1
 84 730 l 1,3,-1
 124 738 l 1,0,-1
124 244 m 1,4,-1
 124 -159 l 1,5,-1
 84 -167 l 1,6,-1
 84 236 l 1,7,-1
 124 244 l 1,4,-1
EndSplineSet
EndChar

StartChar: section
Encoding: 167 167 104
Width: 465
GlyphClass: 1
Flags: W
LayerCount: 2
Fore
SplineSet
35 23 m 1,0,-1
 105 50 l 1,1,-1
 113 45 l 1,2,3
 115 -6 115 -6 146.5 -43.5 c 128,-1,4
 178 -81 178 -81 231 -81 c 0,5,6
 262 -81 262 -81 285.5 -63 c 128,-1,7
 309 -45 309 -45 322.5 -15.5 c 128,-1,8
 336 14 336 14 336 48 c 0,9,10
 336 79 336 79 317.5 100 c 128,-1,11
 299 121 299 121 267 138.5 c 128,-1,12
 235 156 235 156 194 176 c 0,13,14
 151 195 151 195 118.5 216 c 128,-1,15
 86 237 86 237 68 266 c 128,-1,16
 50 295 50 295 50 338 c 0,17,18
 50 373 50 373 64.5 404.5 c 128,-1,19
 79 436 79 436 98 464 c 1,20,21
 94 479 94 479 91 494 c 128,-1,22
 88 509 88 509 88 525 c 0,23,24
 88 574 88 574 109 613.5 c 128,-1,25
 130 653 130 653 168.5 677 c 128,-1,26
 207 701 207 701 258 701 c 0,27,28
 283 701 283 701 310 694 c 128,-1,29
 337 687 337 687 356.5 670 c 128,-1,30
 376 653 376 653 376 622 c 0,31,32
 376 617 376 617 374 605.5 c 128,-1,33
 372 594 372 594 370 585 c 1,34,-1
 311 564 l 1,35,-1
 296 575 l 1,36,37
 296 620 296 620 278.5 645.5 c 128,-1,38
 261 671 261 671 228 671 c 0,39,40
 190 671 190 671 167.5 638 c 128,-1,41
 145 605 145 605 145 561 c 0,42,43
 145 524 145 524 163 503.5 c 128,-1,44
 181 483 181 483 212 468 c 128,-1,45
 243 453 243 453 280 431 c 0,46,47
 304 418 304 418 330 405 c 128,-1,48
 356 392 356 392 378.5 376.5 c 128,-1,49
 401 361 401 361 415.5 339 c 128,-1,50
 430 317 430 317 430 285 c 0,51,52
 430 207 430 207 378 149 c 1,53,54
 388 133 388 133 392 114 c 128,-1,55
 396 95 396 95 396 75 c 0,56,57
 396 26 396 26 371.5 -15.5 c 128,-1,58
 347 -57 347 -57 306.5 -82 c 128,-1,59
 266 -107 266 -107 216 -107 c 0,60,61
 176 -107 176 -107 136 -95 c 128,-1,62
 96 -83 96 -83 68 -54.5 c 128,-1,63
 40 -26 40 -26 35 23 c 1,0,-1
364 166 m 1,64,-1
 367 170 l 2,65,66
 377 184 377 184 381 200 c 128,-1,67
 385 216 385 216 385 232 c 0,68,69
 385 254 385 254 374.5 272 c 128,-1,70
 364 290 364 290 349 305 c 0,71,72
 330 325 330 325 297 341 c 128,-1,73
 264 357 264 357 227.5 372.5 c 128,-1,74
 191 388 191 388 159.5 404.5 c 128,-1,75
 128 421 128 421 113 442 c 1,76,77
 103 429 103 429 96 410 c 128,-1,78
 89 391 89 391 89 373 c 0,79,80
 89 341 89 341 111 316.5 c 128,-1,81
 133 292 133 292 167.5 272.5 c 128,-1,82
 202 253 202 253 240 236.5 c 128,-1,83
 278 220 278 220 311.5 203 c 128,-1,84
 345 186 345 186 364 166 c 1,64,-1
EndSplineSet
EndChar

StartChar: copyright
Encoding: 169 169 106
Width: 632
GlyphClass: 1
Flags: W
LayerCount: 2
Fore
SplineSet
45 437 m 256,0,1
 45 493 45 493 66 542.5 c 128,-1,2
 87 592 87 592 124 629 c 128,-1,3
 161 666 161 666 210.5 687 c 128,-1,4
 260 708 260 708 316 708 c 256,5,6
 372 708 372 708 421.5 687 c 128,-1,7
 471 666 471 666 508 629 c 128,-1,8
 545 592 545 592 566 542.5 c 128,-1,9
 587 493 587 493 587 437 c 256,10,11
 587 381 587 381 566 331.5 c 128,-1,12
 545 282 545 282 508 245 c 128,-1,13
 471 208 471 208 421.5 187 c 128,-1,14
 372 166 372 166 316 166 c 256,15,16
 260 166 260 166 210.5 187 c 128,-1,17
 161 208 161 208 124 245 c 128,-1,18
 87 282 87 282 66 331.5 c 128,-1,19
 45 381 45 381 45 437 c 256,0,1
70 437 m 256,20,21
 70 369 70 369 103 313 c 128,-1,22
 136 257 136 257 192 224 c 128,-1,23
 248 191 248 191 316 191 c 256,24,25
 384 191 384 191 440 224 c 128,-1,26
 496 257 496 257 529 313 c 128,-1,27
 562 369 562 369 562 437 c 256,28,29
 562 505 562 505 529 561 c 128,-1,30
 496 617 496 617 440 650 c 128,-1,31
 384 683 384 683 316 683 c 256,32,33
 248 683 248 683 192 650 c 128,-1,34
 136 617 136 617 103 561 c 128,-1,35
 70 505 70 505 70 437 c 256,20,21
483 563 m 1,36,-1
 449 534 l 1,37,-1
 441 534 l 1,38,39
 426 568 426 568 398 583.5 c 128,-1,40
 370 599 370 599 333 599 c 0,41,42
 306 599 306 599 279.5 591 c 128,-1,43
 253 583 253 583 233 566 c 0,44,45
 206 543 206 543 196 509 c 128,-1,46
 186 475 186 475 186 442 c 0,47,48
 186 408 186 408 202.5 375 c 128,-1,49
 219 342 219 342 234 330 c 0,50,51
 259 309 259 309 282 298.5 c 128,-1,52
 305 288 305 288 342 288 c 0,53,54
 373 288 373 288 401 298 c 128,-1,55
 429 308 429 308 454 322 c 1,56,-1
 464 308 l 1,57,58
 432 290 432 290 396 276 c 128,-1,59
 360 262 360 262 321 262 c 0,60,61
 285 262 285 262 250.5 270.5 c 128,-1,62
 216 279 216 279 190 300 c 0,63,64
 159 326 159 326 145.5 361 c 128,-1,65
 132 396 132 396 132 433 c 0,66,67
 132 469 132 469 144 504 c 128,-1,68
 156 539 156 539 187 565 c 0,69,70
 220 592 220 592 263.5 605.5 c 128,-1,71
 307 619 307 619 354 619 c 0,72,73
 393 619 393 619 426.5 607 c 128,-1,74
 460 595 460 595 483 563 c 1,36,-1
EndSplineSet
EndChar

StartChar: ordfeminine
Encoding: 170 170 107
Width: 366
GlyphClass: 1
Flags: W
LayerCount: 2
Fore
SplineSet
269 550 m 1,0,-1
 308 570 l 1,1,-1
 312 567 l 1,2,3
 310 531 310 531 308.5 494.5 c 128,-1,4
 307 458 307 458 307 422 c 0,5,6
 307 403 307 403 308 384 c 128,-1,7
 309 365 309 365 309 346 c 0,8,9
 309 334 309 334 313 319 c 128,-1,10
 317 304 317 304 336 304 c 0,11,12
 344 304 344 304 358 308 c 128,-1,13
 372 312 372 312 384 316 c 1,14,-1
 389 300 l 1,15,16
 367 288 367 288 340 275 c 128,-1,17
 313 262 313 262 296 262 c 0,18,19
 276 262 276 262 267 273.5 c 128,-1,20
 258 285 258 285 255 301 c 1,21,-1
 244 303 l 1,22,23
 217 287 217 287 186.5 274.5 c 128,-1,24
 156 262 156 262 124 262 c 0,25,26
 84 262 84 262 60 282 c 128,-1,27
 36 302 36 302 25.5 332 c 128,-1,28
 15 362 15 362 15 391 c 0,29,30
 15 437 15 437 33 478.5 c 128,-1,31
 51 520 51 520 90 546.5 c 128,-1,32
 129 573 129 573 190 573 c 0,33,34
 207 573 207 573 229.5 567 c 128,-1,35
 252 561 252 561 269 550 c 1,0,-1
253 334 m 1,36,-1
 253 484 l 2,37,38
 253 497 253 497 251.5 509 c 128,-1,39
 250 521 250 521 241 529 c 0,40,41
 231 538 231 538 218.5 544 c 128,-1,42
 206 550 206 550 192 550 c 0,43,44
 152 550 152 550 121 525 c 0,45,46
 108 515 108 515 95.5 487.5 c 128,-1,47
 83 460 83 460 82 410 c 0,48,49
 81 390 81 390 85.5 369.5 c 128,-1,50
 90 349 90 349 103 332 c 0,51,52
 115 316 115 316 135 310.5 c 128,-1,53
 155 305 155 305 175 305 c 0,54,55
 197 305 197 305 217 314.5 c 128,-1,56
 237 324 237 324 253 334 c 1,36,-1
EndSplineSet
EndChar

StartChar: logicalnot
Encoding: 172 172 109
Width: 777
GlyphClass: 1
Flags: W
LayerCount: 2
Fore
SplineSet
57 409 m 1,0,-1
 660 409 l 1,1,-1
 660 206 l 1,2,-1
 620 206 l 1,3,-1
 620 369 l 1,4,-1
 57 369 l 1,5,-1
 57 409 l 1,0,-1
EndSplineSet
EndChar

StartChar: registered
Encoding: 174 174 111
Width: 632
GlyphClass: 1
Flags: W
LayerCount: 2
Fore
SplineSet
45 437 m 256,0,1
 45 493 45 493 66 542.5 c 128,-1,2
 87 592 87 592 124 629 c 128,-1,3
 161 666 161 666 210.5 687 c 128,-1,4
 260 708 260 708 316 708 c 256,5,6
 372 708 372 708 421.5 687 c 128,-1,7
 471 666 471 666 508 629 c 128,-1,8
 545 592 545 592 566 542.5 c 128,-1,9
 587 493 587 493 587 437 c 256,10,11
 587 381 587 381 566 331.5 c 128,-1,12
 545 282 545 282 508 245 c 128,-1,13
 471 208 471 208 421.5 187 c 128,-1,14
 372 166 372 166 316 166 c 256,15,16
 260 166 260 166 210.5 187 c 128,-1,17
 161 208 161 208 124 245 c 128,-1,18
 87 282 87 282 66 331.5 c 128,-1,19
 45 381 45 381 45 437 c 256,0,1
70 437 m 256,20,21
 70 369 70 369 103 313 c 128,-1,22
 136 257 136 257 192 224 c 128,-1,23
 248 191 248 191 316 191 c 256,24,25
 384 191 384 191 440 224 c 128,-1,26
 496 257 496 257 529 313 c 128,-1,27
 562 369 562 369 562 437 c 256,28,29
 562 505 562 505 529 561 c 128,-1,30
 496 617 496 617 440 650 c 128,-1,31
 384 683 384 683 316 683 c 256,32,33
 248 683 248 683 192 650 c 128,-1,34
 136 617 136 617 103 561 c 128,-1,35
 70 505 70 505 70 437 c 256,20,21
327 436 m 1,36,-1
 326 432 l 1,37,-1
 484 284 l 1,38,-1
 484 279 l 1,39,-1
 424 266 l 1,40,41
 396 296 396 296 365 329.5 c 128,-1,42
 334 363 334 363 309 389 c 128,-1,43
 284 415 284 415 275 422 c 0,44,45
 272 424 272 424 269 425 c 128,-1,46
 266 426 266 426 263 426 c 1,47,48
 263 390 263 390 263.5 354 c 128,-1,49
 264 318 264 318 266 282 c 1,50,-1
 216 267 l 1,51,-1
 210 272 l 1,52,53
 214 326 214 326 214.5 381 c 128,-1,54
 215 436 215 436 215 490 c 0,55,56
 215 494 215 494 214.5 509.5 c 128,-1,57
 214 525 214 525 213.5 543.5 c 128,-1,58
 213 562 213 562 213 576 c 0,59,60
 213 584 213 584 202.5 589 c 128,-1,61
 192 594 192 594 181 596 c 128,-1,62
 170 598 170 598 167 598 c 1,63,-1
 168 606 l 1,64,-1
 172 610 l 1,65,-1
 334 610 l 2,66,67
 387 610 387 610 421.5 593 c 128,-1,68
 456 576 456 576 456 540 c 0,69,70
 456 488 456 488 418.5 464.5 c 128,-1,71
 381 441 381 441 327 436 c 1,36,-1
262 455 m 0,72,73
 262 448 262 448 268 448 c 0,74,75
 301 448 301 448 330.5 456.5 c 128,-1,76
 360 465 360 465 379 483.5 c 128,-1,77
 398 502 398 502 398 532 c 0,78,79
 398 557 398 557 382 569.5 c 128,-1,80
 366 582 366 582 342.5 586 c 128,-1,81
 319 590 319 590 297 590 c 2,82,-1
 273 590 l 2,83,84
 266 590 266 590 266 577 c 0,85,86
 265 565 265 565 264.5 545 c 128,-1,87
 264 525 264 525 263.5 504.5 c 128,-1,88
 263 484 263 484 262.5 470 c 128,-1,89
 262 456 262 456 262 455 c 0,72,73
EndSplineSet
EndChar

StartChar: plusminus
Encoding: 177 177 114
Width: 763
GlyphClass: 1
Flags: W
LayerCount: 2
Fore
SplineSet
399 586 m 1,0,-1
 399 276 l 1,1,-1
 712 276 l 1,2,-1
 707 236 l 1,3,-1
 399 236 l 1,4,-1
 399 -35 l 1,5,-1
 713 -35 l 1,6,-1
 707 -75 l 1,7,-1
 49 -75 l 1,8,-1
 56 -35 l 1,9,-1
 359 -35 l 1,10,-1
 359 236 l 1,11,-1
 49 236 l 1,12,-1
 56 276 l 1,13,-1
 359 276 l 1,14,-1
 359 580 l 1,15,-1
 399 586 l 1,0,-1
EndSplineSet
EndChar

StartChar: twosuperior
Encoding: 178 178 115
Width: 304
GlyphClass: 1
Flags: W
LayerCount: 2
Fore
SplineSet
308 327 m 1,0,-1
 312 322 l 1,1,-1
 295 271 l 1,2,-1
 -26 271 l 1,3,-1
 -26 282 l 1,4,5
 6 311 6 311 36.5 339.5 c 128,-1,6
 67 368 67 368 96 398 c 256,7,8
 125 428 125 428 151 459.5 c 128,-1,9
 177 491 177 491 193.5 526 c 128,-1,10
 210 561 210 561 210 600 c 0,11,12
 210 618 210 618 202 638 c 128,-1,13
 194 658 194 658 176 672 c 128,-1,14
 158 686 158 686 128 686 c 256,15,16
 98 686 98 686 72.5 673 c 128,-1,17
 47 660 47 660 26 644 c 1,18,-1
 12 657 l 1,19,20
 42 686 42 686 81.5 708 c 128,-1,21
 121 730 121 730 167 730 c 0,22,23
 214 730 214 730 246 701.5 c 128,-1,24
 278 673 278 673 278 629 c 0,25,26
 278 595 278 595 258.5 557.5 c 128,-1,27
 239 520 239 520 208.5 481.5 c 128,-1,28
 178 443 178 443 142 405.5 c 128,-1,29
 106 368 106 368 73 334 c 0,30,31
 72 333 72 333 72 332 c 0,32,33
 72 327 72 327 81 327 c 2,34,-1
 308 327 l 1,0,-1
EndSplineSet
EndChar

StartChar: threesuperior
Encoding: 179 179 116
Width: 299
GlyphClass: 1
Flags: W
LayerCount: 2
Fore
SplineSet
144 518 m 1,0,-1
 144 513 l 1,1,2
 212 508 212 508 253.5 484 c 128,-1,3
 295 460 295 460 295 410 c 0,4,5
 295 365 295 365 266.5 331 c 128,-1,6
 238 297 238 297 193 278 c 128,-1,7
 148 259 148 259 100 259 c 0,8,9
 37 259 37 259 -15 295 c 1,10,-1
 -20 302 l 1,11,-1
 11 349 l 1,12,-1
 19 349 l 1,13,14
 37 324 37 324 61.5 304.5 c 128,-1,15
 86 285 86 285 119 285 c 0,16,17
 168 285 168 285 197 316.5 c 128,-1,18
 226 348 226 348 226 391 c 0,19,20
 226 412 226 412 215.5 431 c 128,-1,21
 205 450 205 450 189 465 c 0,22,23
 167 485 167 485 129.5 489.5 c 128,-1,24
 92 494 92 494 59 494 c 1,25,-1
 59 511 l 1,26,27
 125 525 125 525 162.5 551 c 128,-1,28
 200 577 200 577 200 621 c 0,29,30
 200 651 200 651 177 668 c 128,-1,31
 154 685 154 685 120 685 c 0,32,33
 98 685 98 685 74.5 674 c 128,-1,34
 51 663 51 663 30 651 c 1,35,-1
 20 665 l 1,36,37
 49 687 49 687 84 706.5 c 128,-1,38
 119 726 119 726 153 726 c 0,39,40
 196 726 196 726 228 704.5 c 128,-1,41
 260 683 260 683 260 639 c 0,42,43
 260 593 260 593 226 561.5 c 128,-1,44
 192 530 192 530 144 518 c 1,0,-1
EndSplineSet
EndChar

StartChar: mu
Encoding: 181 181 118
Width: 682
GlyphClass: 1
Flags: W
LayerCount: 2
Fore
SplineSet
415 434 m 1,0,-1
 492 466 l 1,1,-1
 500 455 l 1,2,3
 498 424 498 424 496 389.5 c 128,-1,4
 494 355 494 355 494 332 c 2,5,-1
 494 165 l 2,6,7
 494 148 494 148 497 124.5 c 128,-1,8
 500 101 500 101 511.5 83.5 c 128,-1,9
 523 66 523 66 546 66 c 0,10,11
 563 66 563 66 584 77 c 128,-1,12
 605 88 605 88 623 99 c 1,13,-1
 634 97 l 1,14,-1
 642 83 l 1,15,16
 622 64 622 64 597 44.5 c 128,-1,17
 572 25 572 25 545 12 c 128,-1,18
 518 -1 518 -1 490 -1 c 0,19,20
 451 -1 451 -1 438.5 18 c 128,-1,21
 426 37 426 37 421 68 c 1,22,-1
 413 73 l 1,23,24
 384 57 384 57 351 39 c 128,-1,25
 318 21 318 21 286.5 9 c 128,-1,26
 255 -3 255 -3 230 -3 c 0,27,28
 206 -3 206 -3 193.5 4.5 c 128,-1,29
 181 12 181 12 168 27 c 1,30,-1
 162 25 l 1,31,32
 162 -24 162 -24 166.5 -78 c 128,-1,33
 171 -132 171 -132 181 -179 c 1,34,-1
 128 -199 l 1,35,-1
 116 -193 l 1,36,37
 118 -124 118 -124 119 -55 c 128,-1,38
 120 14 120 14 120 83 c 2,39,-1
 120 272 l 2,40,41
 120 300 120 300 116.5 333.5 c 128,-1,42
 113 367 113 367 109 395.5 c 128,-1,43
 105 424 105 424 103 436 c 1,44,-1
 186 462 l 1,45,-1
 195 455 l 1,46,-1
 195 186 l 2,47,48
 195 158 195 158 200.5 128 c 128,-1,49
 206 98 206 98 226 77.5 c 128,-1,50
 246 57 246 57 288 57 c 0,51,52
 315 57 315 57 352 74 c 128,-1,53
 389 91 389 91 416 120 c 1,54,55
 417 144 417 144 417.5 173 c 128,-1,56
 418 202 418 202 418.5 227 c 128,-1,57
 419 252 419 252 419 262 c 0,58,59
 419 306 419 306 418 348.5 c 128,-1,60
 417 391 417 391 415 434 c 1,0,-1
EndSplineSet
EndChar

StartChar: paragraph
Encoding: 182 182 119
Width: 453
GlyphClass: 1
Flags: W
LayerCount: 2
Fore
SplineSet
294 13 m 1,0,1
 294 51 294 51 295.5 92.5 c 128,-1,2
 297 134 297 134 298 172 c 128,-1,3
 299 210 299 210 300 237.5 c 128,-1,4
 301 265 301 265 301 274 c 0,5,6
 301 284 301 284 283 287.5 c 128,-1,7
 265 291 265 291 242.5 291.5 c 128,-1,8
 220 292 220 292 205 293 c 0,9,10
 141 298 141 298 101.5 328 c 128,-1,11
 62 358 62 358 44.5 400 c 128,-1,12
 27 442 27 442 29 484 c 0,13,14
 32 537 32 537 63 582.5 c 128,-1,15
 94 628 94 628 149 656 c 128,-1,16
 204 684 204 684 278 682 c 2,17,-1
 428 679 l 1,18,-1
 435 672 l 1,19,-1
 435 654 l 1,20,21
 407 650 407 650 385 640 c 128,-1,22
 363 630 363 630 361 600 c 0,23,24
 359 556 359 556 357.5 511.5 c 128,-1,25
 356 467 356 467 356 423 c 0,26,27
 356 317 356 317 359 211.5 c 128,-1,28
 362 106 362 106 363 1 c 1,29,-1
 356 -6 l 1,30,-1
 294 13 l 1,0,1
EndSplineSet
EndChar

StartChar: periodcentered
Encoding: 183 183 120
Width: 272
GlyphClass: 1
Flags: W
LayerCount: 2
Fore
SplineSet
69 257 m 256,0,1
 69 285 69 285 88.5 304.5 c 128,-1,2
 108 324 108 324 136 324 c 256,3,4
 164 324 164 324 183.5 304.5 c 128,-1,5
 203 285 203 285 203 257 c 256,6,7
 203 229 203 229 183.5 209.5 c 128,-1,8
 164 190 164 190 136 190 c 256,9,10
 108 190 108 190 88.5 209.5 c 128,-1,11
 69 229 69 229 69 257 c 256,0,1
EndSplineSet
EndChar

StartChar: onesuperior
Encoding: 185 185 122
Width: 178
GlyphClass: 1
Flags: W
LayerCount: 2
Fore
SplineSet
-28 685 m 1,0,-1
 130 733 l 1,1,-1
 135 725 l 1,2,3
 132 682 132 682 131 638.5 c 128,-1,4
 130 595 130 595 130 551 c 256,5,6
 130 507 130 507 130 454 c 128,-1,7
 130 401 130 401 130.5 355 c 128,-1,8
 131 309 131 309 132 284 c 1,9,-1
 70 267 l 1,10,-1
 61 270 l 1,11,12
 63 338 63 338 65 406 c 128,-1,13
 67 474 67 474 67 542 c 0,14,15
 67 579 67 579 68 607 c 128,-1,16
 69 635 69 635 62.5 651.5 c 128,-1,17
 56 668 56 668 33 668 c 2,18,-1
 -28 668 l 1,19,-1
 -28 685 l 1,0,-1
EndSplineSet
EndChar

StartChar: ordmasculine
Encoding: 186 186 123
Width: 356
GlyphClass: 1
Flags: W
LayerCount: 2
Fore
SplineSet
159 261 m 0,0,1
 109 261 109 261 78.5 280 c 128,-1,2
 48 299 48 299 33.5 330.5 c 128,-1,3
 19 362 19 362 16 397 c 0,4,5
 16 431 16 431 23 465 c 128,-1,6
 30 499 30 499 56 524 c 0,7,8
 82 550 82 550 119.5 561 c 128,-1,9
 157 572 157 572 195 572 c 0,10,11
 221 572 221 572 246 567 c 128,-1,12
 271 562 271 562 290 546 c 0,13,14
 318 524 318 524 329 490.5 c 128,-1,15
 340 457 340 457 340 425 c 0,16,17
 340 394 340 394 331 363 c 128,-1,18
 322 332 322 332 298 308 c 0,19,20
 272 283 272 283 234.5 272 c 128,-1,21
 197 261 197 261 159 261 c 0,0,1
85 475 m 0,22,23
 79 451 79 451 79 425 c 0,24,25
 79 398 79 398 87 366 c 128,-1,26
 95 334 95 334 117 311 c 128,-1,27
 139 288 139 288 179 288 c 256,28,29
 219 288 219 288 239.5 308 c 128,-1,30
 260 328 260 328 267.5 357 c 128,-1,31
 275 386 275 386 275 413 c 256,32,33
 275 440 275 440 268 471 c 128,-1,34
 261 502 261 502 240.5 524.5 c 128,-1,35
 220 547 220 547 178 547 c 0,36,37
 149 547 149 547 122 528.5 c 128,-1,38
 95 510 95 510 85 475 c 0,22,23
EndSplineSet
EndChar

StartChar: onequarter
Encoding: 188 188 125
Width: 790
GlyphClass: 1
Flags: W
LayerCount: 2
Fore
SplineSet
593 704 m 1,0,-1
 614 695 l 1,1,-1
 617 684 l 1,2,-1
 180 -4 l 1,3,-1
 149 9 l 1,4,-1
 149 23 l 1,5,-1
 582 703 l 1,6,-1
 593 704 l 1,0,-1
23 659 m 1,7,-1
 179 703 l 1,8,-1
 184 695 l 1,9,10
 178 616 178 616 178 535 c 0,11,12
 178 494 178 494 178.5 445.5 c 128,-1,13
 179 397 179 397 179.5 354.5 c 128,-1,14
 180 312 180 312 181 289 c 1,15,-1
 120 272 l 1,16,-1
 112 275 l 1,17,18
 115 337 115 337 116 400.5 c 128,-1,19
 117 464 117 464 117 527 c 0,20,21
 117 561 117 561 117.5 587 c 128,-1,22
 118 613 118 613 111.5 628 c 128,-1,23
 105 643 105 643 83 643 c 2,24,-1
 23 643 l 1,25,-1
 23 659 l 1,7,-1
614 399 m 1,26,-1
 668 420 l 1,27,-1
 674 417 l 1,28,29
 674 411 674 411 673.5 381 c 128,-1,30
 673 351 673 351 672.5 309 c 128,-1,31
 672 267 672 267 672 223 c 128,-1,32
 672 179 672 179 672 144 c 1,33,-1
 678 139 l 1,34,-1
 746 139 l 1,35,-1
 749 135 l 1,36,-1
 737 112 l 1,37,-1
 678 112 l 1,38,-1
 672 108 l 1,39,40
 672 84 672 84 673 54.5 c 128,-1,41
 674 25 674 25 675 15 c 1,42,-1
 617 -5 l 1,43,-1
 614 -2 l 1,44,45
 617 14 617 14 617 46.5 c 128,-1,46
 617 79 617 79 617 107 c 1,47,-1
 612 112 l 1,48,-1
 408 112 l 1,49,-1
 408 139 l 1,50,-1
 614 399 l 1,26,-1
613 139 m 1,51,-1
 617 144 l 1,52,-1
 617 349 l 2,53,54
 617 354 617 354 614 354 c 0,55,56
 612 354 612 354 610 352 c 0,57,58
 591 335 591 335 575 314.5 c 128,-1,59
 559 294 559 294 543 274 c 0,60,61
 533 261 533 261 518.5 241 c 128,-1,62
 504 221 504 221 489.5 200.5 c 128,-1,63
 475 180 475 180 465 164 c 128,-1,64
 455 148 455 148 455 143 c 2,65,-1
 458 139 l 1,66,-1
 613 139 l 1,51,-1
EndSplineSet
EndChar

StartChar: onehalf
Encoding: 189 189 126
Width: 790
GlyphClass: 1
Flags: W
LayerCount: 2
Fore
SplineSet
589 704 m 1,0,-1
 610 695 l 1,1,-1
 613 684 l 1,2,-1
 176 -4 l 1,3,-1
 145 9 l 1,4,-1
 145 23 l 1,5,-1
 578 703 l 1,6,-1
 589 704 l 1,0,-1
23 659 m 1,7,-1
 179 703 l 1,8,-1
 184 695 l 1,9,10
 178 616 178 616 178 535 c 0,11,12
 178 494 178 494 178.5 445.5 c 128,-1,13
 179 397 179 397 179.5 354.5 c 128,-1,14
 180 312 180 312 181 289 c 1,15,-1
 120 272 l 1,16,-1
 112 275 l 1,17,18
 115 337 115 337 116 400.5 c 128,-1,19
 117 464 117 464 117 527 c 0,20,21
 117 561 117 561 117.5 587 c 128,-1,22
 118 613 118 613 111.5 628 c 128,-1,23
 105 643 105 643 83 643 c 2,24,-1
 23 643 l 1,25,-1
 23 659 l 1,7,-1
745 52 m 1,26,-1
 749 47 l 1,27,-1
 732 0 l 1,28,-1
 417 0 l 1,29,-1
 417 10 l 1,30,31
 448 36 448 36 478.5 62.5 c 128,-1,32
 509 89 509 89 537 117 c 256,33,34
 565 145 565 145 591 174.5 c 128,-1,35
 617 204 617 204 633.5 236.5 c 128,-1,36
 650 269 650 269 650 304 c 0,37,38
 650 321 650 321 642 339.5 c 128,-1,39
 634 358 634 358 616 370.5 c 128,-1,40
 598 383 598 383 568 383 c 256,41,42
 538 383 538 383 514 371 c 128,-1,43
 490 359 490 359 469 345 c 1,44,-1
 455 356 l 1,45,46
 484 382 484 382 522.5 403 c 128,-1,47
 561 424 561 424 607 424 c 0,48,49
 654 424 654 424 685 398 c 128,-1,50
 716 372 716 372 716 331 c 0,51,52
 716 299 716 299 697 264 c 128,-1,53
 678 229 678 229 647.5 193.5 c 128,-1,54
 617 158 617 158 582 123.5 c 128,-1,55
 547 89 547 89 515 58 c 0,56,57
 513 56 513 56 513 56 c 2,58,59
 513 53 513 53 516.5 52.5 c 128,-1,60
 520 52 520 52 523 52 c 2,61,-1
 745 52 l 1,26,-1
EndSplineSet
EndChar

StartChar: threequarters
Encoding: 190 190 127
Width: 790
GlyphClass: 1
Flags: W
LayerCount: 2
Fore
SplineSet
633 704 m 1,0,-1
 654 695 l 1,1,-1
 657 684 l 1,2,-1
 220 -4 l 1,3,-1
 189 9 l 1,4,-1
 189 23 l 1,5,-1
 622 703 l 1,6,-1
 633 704 l 1,0,-1
179 507 m 1,7,-1
 179 502 l 1,8,9
 250 497 250 497 288 474 c 128,-1,10
 326 451 326 451 326 407 c 0,11,12
 326 366 326 366 298.5 334.5 c 128,-1,13
 271 303 271 303 227.5 285.5 c 128,-1,14
 184 268 184 268 136 268 c 0,15,16
 73 268 73 268 23 301 c 1,17,-1
 19 307 l 1,18,-1
 49 351 l 1,19,-1
 56 351 l 1,20,21
 73 328 73 328 97.5 310 c 128,-1,22
 122 292 122 292 154 292 c 0,23,24
 203 292 203 292 231 321.5 c 128,-1,25
 259 351 259 351 259 390 c 0,26,27
 259 409 259 409 249 427 c 128,-1,28
 239 445 239 445 224 458 c 0,29,30
 203 477 203 477 165 481 c 128,-1,31
 127 485 127 485 95 485 c 1,32,-1
 96 501 l 1,33,34
 161 514 161 514 197 537.5 c 128,-1,35
 233 561 233 561 233 602 c 0,36,37
 233 631 233 631 209.5 646 c 128,-1,38
 186 661 186 661 155 661 c 0,39,40
 133 661 133 661 110 651 c 128,-1,41
 87 641 87 641 67 630 c 1,42,-1
 57 643 l 1,43,44
 85 662 85 662 119.5 680.5 c 128,-1,45
 154 699 154 699 188 699 c 0,46,47
 230 699 230 699 261.5 679 c 128,-1,48
 293 659 293 659 293 619 c 0,49,50
 293 576 293 576 259.5 547 c 128,-1,51
 226 518 226 518 179 507 c 1,7,-1
614 399 m 1,52,-1
 668 420 l 1,53,-1
 674 417 l 1,54,55
 674 411 674 411 673.5 381 c 128,-1,56
 673 351 673 351 672.5 309 c 128,-1,57
 672 267 672 267 672 223 c 128,-1,58
 672 179 672 179 672 144 c 1,59,-1
 678 139 l 1,60,-1
 746 139 l 1,61,-1
 749 135 l 1,62,-1
 737 112 l 1,63,-1
 678 112 l 1,64,-1
 672 108 l 1,65,66
 672 84 672 84 673 54.5 c 128,-1,67
 674 25 674 25 675 15 c 1,68,-1
 617 -5 l 1,69,-1
 614 -2 l 1,70,71
 617 14 617 14 617 46.5 c 128,-1,72
 617 79 617 79 617 107 c 1,73,-1
 612 112 l 1,74,-1
 408 112 l 1,75,-1
 408 139 l 1,76,-1
 614 399 l 1,52,-1
613 139 m 1,77,-1
 617 144 l 1,78,-1
 617 349 l 2,79,80
 617 354 617 354 614 354 c 0,81,82
 612 354 612 354 610 352 c 0,83,84
 591 335 591 335 575 314.5 c 128,-1,85
 559 294 559 294 543 274 c 0,86,87
 533 261 533 261 518.5 241 c 128,-1,88
 504 221 504 221 489.5 200.5 c 128,-1,89
 475 180 475 180 465 164 c 128,-1,90
 455 148 455 148 455 143 c 2,91,-1
 458 139 l 1,92,-1
 613 139 l 1,77,-1
EndSplineSet
EndChar

StartChar: questiondown
Encoding: 191 191 128
Width: 353
GlyphClass: 1
Flags: W
LayerCount: 2
Fore
SplineSet
271 442 m 256,0,1
 271 419 271 419 254.5 402 c 128,-1,2
 238 385 238 385 215 385 c 0,3,4
 191 385 191 385 174 402 c 128,-1,5
 157 419 157 419 157 442 c 256,6,7
 157 465 157 465 174 482 c 128,-1,8
 191 499 191 499 215 499 c 0,9,10
 238 499 238 499 254.5 482 c 128,-1,11
 271 465 271 465 271 442 c 256,0,1
191 266 m 1,12,-1
 191 277 l 1,13,-1
 237 309 l 1,14,15
 254 299 254 299 266.5 280 c 128,-1,16
 279 261 279 261 279 238 c 0,17,18
 279 223 279 223 271 209 c 128,-1,19
 263 195 263 195 253 183 c 0,20,21
 229 152 229 152 201 126 c 128,-1,22
 173 100 173 100 147.5 74 c 128,-1,23
 122 48 122 48 106 16.5 c 128,-1,24
 90 -15 90 -15 90 -57 c 0,25,26
 90 -84 90 -84 104 -110.5 c 128,-1,27
 118 -137 118 -137 140.5 -155 c 128,-1,28
 163 -173 163 -173 188 -173 c 0,29,30
 217 -173 217 -173 243 -154 c 128,-1,31
 269 -135 269 -135 269 -101 c 0,32,33
 269 -83 269 -83 260 -67 c 128,-1,34
 251 -51 251 -51 237 -40 c 1,35,-1
 304 0 l 1,36,37
 318 -12 318 -12 325 -30.5 c 128,-1,38
 332 -49 332 -49 332 -69 c 0,39,40
 332 -100 332 -100 314.5 -125 c 128,-1,41
 297 -150 297 -150 269.5 -168 c 128,-1,42
 242 -186 242 -186 210 -195.5 c 128,-1,43
 178 -205 178 -205 148 -205 c 0,44,45
 91 -205 91 -205 55 -170 c 128,-1,46
 19 -135 19 -135 19 -77 c 0,47,48
 19 -52 19 -52 27.5 -31 c 128,-1,49
 36 -10 36 -10 49 12 c 0,50,51
 67 42 67 42 95 68.5 c 128,-1,52
 123 95 123 95 151 119.5 c 128,-1,53
 179 144 179 144 198.5 167.5 c 128,-1,54
 218 191 218 191 218 214 c 0,55,56
 218 246 218 246 191 266 c 1,12,-1
EndSplineSet
EndChar

StartChar: AE
Encoding: 198 198 135
Width: 797
GlyphClass: 1
Flags: W
LayerCount: 2
Fore
SplineSet
366 66 m 2,0,-1
 366 273 l 1,1,-1
 224 273 l 2,2,3
 218 273 218 273 214 265 c 2,4,-1
 97 17 l 1,5,-1
 6 -2 l 1,6,-1
 3 8 l 1,7,8
 92 158 92 158 178 312 c 128,-1,9
 264 466 264 466 343 622 c 0,10,11
 344 625 344 625 344 629 c 0,12,13
 344 631 344 631 341.5 635 c 128,-1,14
 339 639 339 639 332 640 c 2,15,-1
 241 655 l 1,16,-1
 241 682 l 1,17,-1
 435 682 l 2,18,19
 470 682 470 682 513 683.5 c 128,-1,20
 556 685 556 685 599 686.5 c 128,-1,21
 642 688 642 688 677 688 c 0,22,23
 691 688 691 688 702 688 c 128,-1,24
 713 688 713 688 723 687 c 1,25,-1
 721 637 l 1,26,-1
 717 630 l 1,27,28
 691 632 691 632 656.5 633.5 c 128,-1,29
 622 635 622 635 589 636.5 c 128,-1,30
 556 638 556 638 533.5 639 c 128,-1,31
 511 640 511 640 508 640 c 2,32,-1
 468 640 l 2,33,34
 453 637 453 637 448.5 613.5 c 128,-1,35
 444 590 444 590 444 564 c 2,36,-1
 444 398 l 2,37,38
 444 385 444 385 463 384.5 c 128,-1,39
 482 384 482 384 510 384 c 0,40,41
 550 384 550 384 600 386 c 128,-1,42
 650 388 650 388 690 391 c 1,43,-1
 696 384 l 1,44,-1
 690 336 l 1,45,46
 661 338 661 338 631 340 c 128,-1,47
 601 342 601 342 572 342 c 256,48,49
 543 342 543 342 513 342 c 128,-1,50
 483 342 483 342 463 339 c 128,-1,51
 443 336 443 336 443 327 c 2,52,-1
 443 188 l 2,53,54
 443 160 443 160 445.5 127.5 c 128,-1,55
 448 95 448 95 458 76 c 0,56,57
 469 57 469 57 488.5 50.5 c 128,-1,58
 508 44 508 44 554 44 c 0,59,60
 572 44 572 44 588 44.5 c 128,-1,61
 604 45 604 45 627 46 c 128,-1,62
 650 47 650 47 688.5 50 c 128,-1,63
 727 53 727 53 788 58 c 1,64,-1
 793 53 l 1,65,-1
 780 0 l 1,66,-1
 392 0 l 1,67,68
 377 8 377 8 371.5 27 c 128,-1,69
 366 46 366 46 366 66 c 2,0,-1
366 312 m 1,70,-1
 366 568 l 2,71,72
 366 575 366 575 364 575.5 c 128,-1,73
 362 576 362 576 360 572 c 2,74,-1
 244 328 l 2,75,76
 243 327 243 327 243 323.5 c 128,-1,77
 243 320 243 320 243 319 c 0,78,79
 243 312 243 312 250 312 c 2,80,-1
 366 312 l 1,70,-1
EndSplineSet
EndChar

StartChar: Eth
Encoding: 208 208 145
Width: 746
GlyphClass: 1
Flags: W
LayerCount: 2
Fore
SplineSet
304 2 m 2,0,-1
 73 2 l 1,1,-1
 73 12 l 1,2,3
 88 23 88 23 91 37 c 128,-1,4
 94 51 94 51 95 79 c 2,5,-1
 95 340 l 1,6,-1
 19 340 l 1,7,-1
 26 380 l 1,8,-1
 95 380 l 1,9,-1
 95 573 l 2,10,11
 95 585 95 585 94.5 597 c 128,-1,12
 94 609 94 609 93 620 c 0,13,14
 92 633 92 633 79 640 c 128,-1,15
 66 647 66 647 48.5 651 c 128,-1,16
 31 655 31 655 18 659 c 1,17,-1
 18 678 l 1,18,-1
 25 686 l 1,19,-1
 338 686 l 2,20,21
 454 686 454 686 526.5 664 c 128,-1,22
 599 642 599 642 637.5 602 c 128,-1,23
 676 562 676 562 690.5 506.5 c 128,-1,24
 705 451 705 451 705 385 c 0,25,26
 705 290 705 290 684.5 221.5 c 128,-1,27
 664 153 664 153 606 91 c 0,28,29
 573 55 573 55 521.5 35.5 c 128,-1,30
 470 16 470 16 413 9 c 128,-1,31
 356 2 356 2 304 2 c 2,0,-1
320 380 m 1,32,-1
 314 340 l 1,33,-1
 179 340 l 1,34,-1
 179 170 l 2,35,36
 180 150 180 150 181 125.5 c 128,-1,37
 182 101 182 101 186 81 c 128,-1,38
 190 61 190 61 197 53 c 0,39,40
 207 43 207 43 231.5 41.5 c 128,-1,41
 256 40 256 40 276 40 c 0,42,43
 377 40 377 40 442.5 68.5 c 128,-1,44
 508 97 508 97 545 145.5 c 128,-1,45
 582 194 582 194 596.5 254 c 128,-1,46
 611 314 611 314 611 377 c 0,47,48
 611 408 611 408 604.5 447 c 128,-1,49
 598 486 598 486 582 524.5 c 128,-1,50
 566 563 566 563 538 591 c 0,51,52
 502 626 502 626 429.5 635.5 c 128,-1,53
 357 645 357 645 259 645 c 0,54,55
 227 645 227 645 212.5 644 c 128,-1,56
 198 643 198 643 193 641 c 256,57,58
 188 639 188 639 185 637.5 c 128,-1,59
 182 636 182 636 180.5 623.5 c 128,-1,60
 179 611 179 611 179 575 c 2,61,-1
 179 380 l 1,62,-1
 320 380 l 1,32,-1
EndSplineSet
EndChar

StartChar: multiply
Encoding: 215 215 152
Width: 603
GlyphClass: 1
Flags: W
LayerCount: 2
Fore
SplineSet
81 502 m 1,0,-1
 301 283 l 1,1,-1
 522 504 l 1,2,-1
 547 472 l 1,3,-1
 329 255 l 1,4,-1
 543 40 l 1,5,-1
 520 7 l 1,6,-1
 301 226 l 1,7,-1
 81 7 l 1,8,-1
 58 40 l 1,9,-1
 272 255 l 1,10,-1
 57 470 l 1,11,-1
 81 502 l 1,0,-1
EndSplineSet
EndChar

StartChar: Oslash
Encoding: 216 216 153
Width: 737
GlyphClass: 2
Flags: W
AnchorPoint: "Anchor-10" 381 693 basechar 0
AnchorPoint: "Anchor-9" 369 0 basechar 0
LayerCount: 2
Fore
SplineSet
320 -18 m 0,0,1
 279 -18 279 -18 243 -9 c 1,2,-1
 193 -123 l 1,3,-1
 161 -115 l 1,4,-1
 158 -101 l 1,5,-1
 204 5 l 1,6,7
 145 30 145 30 109 79.5 c 128,-1,8
 73 129 73 129 57 191.5 c 128,-1,9
 41 254 41 254 41 318 c 0,10,11
 41 415 41 415 64 483.5 c 128,-1,12
 87 552 87 552 142 612 c 0,13,14
 174 646 174 646 217 665 c 128,-1,15
 260 684 260 684 308.5 692 c 128,-1,16
 357 700 357 700 403 700 c 0,17,18
 427 700 427 700 452 697 c 128,-1,19
 477 694 477 694 500 687 c 1,20,-1
 544 787 l 1,21,-1
 555 789 l 1,22,-1
 577 784 l 1,23,-1
 582 773 l 1,24,-1
 539 673 l 1,25,26
 581 654 581 654 611 624 c 0,27,28
 642 593 642 593 660.5 549.5 c 128,-1,29
 679 506 679 506 687 458.5 c 128,-1,30
 695 411 695 411 695 364 c 0,31,32
 695 315 695 315 689.5 264 c 128,-1,33
 684 213 684 213 654 152 c 0,34,35
 630 103 630 103 581 64.5 c 128,-1,36
 532 26 532 26 465.5 4 c 128,-1,37
 399 -18 399 -18 320 -18 c 0,0,1
371 660 m 0,38,39
 306 660 306 660 261 633 c 128,-1,40
 216 606 216 606 188 561 c 128,-1,41
 160 516 160 516 147 460.5 c 128,-1,42
 134 405 134 405 134 348 c 0,43,44
 134 278 134 278 150.5 214.5 c 128,-1,45
 167 151 167 151 213 100 c 0,46,47
 224 88 224 88 236 77 c 1,48,-1
 476 631 l 1,49,50
 454 645 454 645 428 652.5 c 128,-1,51
 402 660 402 660 371 660 c 0,38,39
601 336 m 0,52,53
 601 383 601 383 591.5 432.5 c 128,-1,54
 582 482 582 482 562 527 c 128,-1,55
 542 572 542 572 509 605 c 1,56,-1
 269 52 l 1,57,58
 299 34 299 34 326 28.5 c 128,-1,59
 353 23 353 23 373 23 c 0,60,61
 435 23 435 23 478.5 50.5 c 128,-1,62
 522 78 522 78 549 123.5 c 128,-1,63
 576 169 576 169 588.5 224.5 c 128,-1,64
 601 280 601 280 601 336 c 0,52,53
EndSplineSet
EndChar

StartChar: Thorn
Encoding: 222 222 159
Width: 527
GlyphClass: 1
Flags: W
LayerCount: 2
Fore
SplineSet
168 679 m 1,0,-1
 175 673 l 1,1,2
 173 664 173 664 172 645.5 c 128,-1,3
 171 627 171 627 170.5 607.5 c 128,-1,4
 170 588 170 588 169 574 c 1,5,-1
 274 574 l 2,6,7
 397 574 397 574 451 531.5 c 128,-1,8
 505 489 505 489 505 409 c 0,9,10
 505 317 505 317 441 253 c 0,11,12
 408 219 408 219 358 205.5 c 128,-1,13
 308 192 308 192 259 188 c 0,14,15
 245 187 245 187 222.5 186.5 c 128,-1,16
 200 186 200 186 182.5 182.5 c 128,-1,17
 165 179 165 179 165 169 c 0,18,19
 165 157 165 157 166.5 142.5 c 128,-1,20
 168 128 168 128 170 100.5 c 128,-1,21
 172 73 172 73 172 22 c 1,22,-1
 89 -6 l 1,23,-1
 82 1 l 1,24,25
 84 106 84 106 86.5 211.5 c 128,-1,26
 89 317 89 317 89 423 c 0,27,28
 89 467 89 467 87.5 511.5 c 128,-1,29
 86 556 86 556 84 600 c 0,30,31
 82 630 82 630 60.5 640 c 128,-1,32
 39 650 39 650 10 654 c 1,33,-1
 10 672 l 1,34,-1
 17 679 l 1,35,-1
 168 679 l 1,0,-1
236 535 m 2,36,-1
 178 535 l 2,37,38
 173 535 173 535 171 531.5 c 128,-1,39
 169 528 169 528 169 524 c 0,40,41
 166 458 166 458 164.5 379.5 c 128,-1,42
 163 301 163 301 163 236 c 0,43,44
 163 229 163 229 167 226.5 c 128,-1,45
 171 224 171 224 174 224 c 0,46,47
 244 224 244 224 296.5 245 c 128,-1,48
 349 266 349 266 379 306 c 128,-1,49
 409 346 409 346 409 401 c 0,50,51
 409 453 409 453 385 482 c 128,-1,52
 361 511 361 511 321.5 523 c 128,-1,53
 282 535 282 535 236 535 c 2,36,-1
EndSplineSet
EndChar

StartChar: germandbls
Encoding: 223 223 160
Width: 453
GlyphClass: 1
Flags: W
LayerCount: 2
Fore
SplineSet
3 428 m 1,0,-1
 10 434 l 1,1,-1
 71 434 l 1,2,-1
 77 440 l 1,3,4
 77 466 77 466 80 500.5 c 128,-1,5
 83 535 83 535 95 562 c 0,6,7
 118 615 118 615 159.5 642 c 128,-1,8
 201 669 201 669 248 669 c 0,9,10
 289 669 289 669 310 652 c 128,-1,11
 331 635 331 635 341 615 c 1,12,-1
 283 561 l 1,13,-1
 271 565 l 1,14,15
 269 576 269 576 264.5 591 c 128,-1,16
 260 606 260 606 248.5 617.5 c 128,-1,17
 237 629 237 629 213 629 c 0,18,19
 192 629 192 629 178.5 603 c 128,-1,20
 165 577 165 577 159 534 c 128,-1,21
 153 491 153 491 153 440 c 1,22,-1
 157 434 l 1,23,-1
 399 434 l 1,24,-1
 404 427 l 1,25,-1
 397 405 l 1,26,-1
 314 259 l 1,27,28
 340 239 340 239 368 212.5 c 128,-1,29
 396 186 396 186 415.5 150.5 c 128,-1,30
 435 115 435 115 435 68 c 0,31,32
 435 4 435 4 402 -47.5 c 128,-1,33
 369 -99 369 -99 309.5 -129.5 c 128,-1,34
 250 -160 250 -160 169 -160 c 1,35,-1
 164 -136 l 1,36,37
 207 -128 207 -128 244.5 -107 c 128,-1,38
 282 -86 282 -86 310 -56.5 c 128,-1,39
 338 -27 338 -27 349 6 c 0,40,41
 371 70 371 70 339 127 c 0,42,43
 318 164 318 164 287 194.5 c 128,-1,44
 256 225 256 225 234 242 c 1,45,-1
 234 266 l 1,46,-1
 310 399 l 1,47,-1
 157 399 l 1,48,-1
 151 393 l 1,49,-1
 151 282 l 2,50,51
 151 212 151 212 153.5 142.5 c 128,-1,52
 156 73 156 73 161 12 c 1,53,-1
 82 -12 l 1,54,-1
 65 -1 l 1,55,56
 70 73 70 73 74 144 c 128,-1,57
 78 215 78 215 78 283 c 2,58,-1
 78 391 l 1,59,-1
 72 399 l 1,60,-1
 4 399 l 1,61,-1
 -1 406 l 1,62,-1
 3 428 l 1,0,-1
EndSplineSet
EndChar

StartChar: ae
Encoding: 230 230 167
Width: 752
GlyphClass: 1
Flags: W
LayerCount: 2
Fore
SplineSet
707 319 m 2,0,-1
 425 197 l 1,1,2
 428 166 428 166 441.5 133 c 128,-1,3
 455 100 455 100 482.5 78 c 128,-1,4
 510 56 510 56 554 56 c 0,5,6
 595 56 595 56 634.5 77 c 128,-1,7
 674 98 674 98 708 124 c 1,8,-1
 719 122 l 1,9,-1
 732 104 l 1,10,11
 701 75 701 75 664.5 48.5 c 128,-1,12
 628 22 628 22 587.5 5 c 128,-1,13
 547 -12 547 -12 504 -12 c 0,14,15
 453 -12 453 -12 421 10 c 128,-1,16
 389 32 389 32 370 66 c 1,17,18
 332 38 332 38 284.5 13 c 128,-1,19
 237 -12 237 -12 187 -12 c 0,20,21
 145 -12 145 -12 117 6 c 128,-1,22
 89 24 89 24 72 53 c 128,-1,23
 55 82 55 82 47.5 116.5 c 128,-1,24
 40 151 40 151 40 185 c 0,25,26
 40 238 40 238 53.5 288 c 128,-1,27
 67 338 67 338 95.5 378.5 c 128,-1,28
 124 419 124 419 169 442.5 c 128,-1,29
 214 466 214 466 278 466 c 0,30,31
 299 466 299 466 325 459.5 c 128,-1,32
 351 453 351 453 373.5 440 c 128,-1,33
 396 427 396 427 407 407 c 1,34,35
 443 442 443 442 489.5 460 c 128,-1,36
 536 478 536 478 586 478 c 0,37,38
 651 478 651 478 689.5 438 c 128,-1,39
 728 398 728 398 728 340 c 0,40,41
 728 331 728 331 721.5 327 c 128,-1,42
 715 323 715 323 707 319 c 2,0,-1
467 396 m 0,43,44
 438 365 438 365 429.5 331 c 128,-1,45
 421 297 421 297 421 260 c 0,46,47
 421 256 421 256 421.5 251.5 c 128,-1,48
 422 247 422 247 423 242 c 2,49,-1
 427 238 l 1,50,-1
 629 318 l 2,51,52
 634 320 634 320 638 326 c 128,-1,53
 642 332 642 332 642 344 c 0,54,55
 642 365 642 365 631 387 c 128,-1,56
 620 409 620 409 599.5 423.5 c 128,-1,57
 579 438 579 438 551 438 c 0,58,59
 526 438 526 438 504.5 427 c 128,-1,60
 483 416 483 416 467 396 c 0,43,44
363 348 m 1,61,62
 362 362 362 362 359 375 c 128,-1,63
 356 388 356 388 347 398 c 0,64,65
 334 412 334 412 316 421.5 c 128,-1,66
 298 431 298 431 279 431 c 0,67,68
 224 431 224 431 184 393 c 0,69,70
 167 377 167 377 149.5 334 c 128,-1,71
 132 291 132 291 130 215 c 0,72,73
 129 184 129 184 135 152.5 c 128,-1,74
 141 121 141 121 158 95 c 0,75,76
 174 70 174 70 201.5 62 c 128,-1,77
 229 54 229 54 257 54 c 256,78,79
 285 54 285 54 310 66.5 c 128,-1,80
 335 79 335 79 357 95 c 1,81,82
 347 125 347 125 342.5 158.5 c 128,-1,83
 338 192 338 192 338 226 c 0,84,85
 338 258 338 258 344 289 c 128,-1,86
 350 320 350 320 363 348 c 1,61,62
EndSplineSet
EndChar

StartChar: eth
Encoding: 240 240 177
Width: 461
GlyphClass: 1
Flags: W
LayerCount: 2
Fore
SplineSet
144 662 m 1,0,-1
 158 684 l 1,1,2
 207 667 207 667 254 629 c 1,3,-1
 366 688 l 1,4,-1
 379 649 l 1,5,-1
 287 600 l 1,6,7
 334 554 334 554 369 491 c 128,-1,8
 404 428 404 428 415 356 c 0,9,10
 423 306 423 306 424 253.5 c 128,-1,11
 425 201 425 201 411.5 151.5 c 128,-1,12
 398 102 398 102 363 61 c 0,13,14
 319 9 319 9 256 -2 c 0,15,16
 213 -9 213 -9 174 -5.5 c 128,-1,17
 135 -2 135 -2 104 25 c 0,18,19
 84 43 84 43 69 69 c 128,-1,20
 54 95 54 95 45 123.5 c 128,-1,21
 36 152 36 152 32 175 c 0,22,23
 22 239 22 239 37.5 300 c 128,-1,24
 53 361 53 361 97.5 405 c 128,-1,25
 142 449 142 449 217 461 c 0,26,27
 233 463 233 463 251.5 463.5 c 128,-1,28
 270 464 270 464 298 461 c 1,29,-1
 301 466 l 1,30,31
 273 532 273 532 241 576 c 1,32,-1
 119 511 l 1,33,-1
 106 550 l 1,34,-1
 214 607 l 1,35,36
 184 639 184 639 144 662 c 1,0,-1
345 145 m 0,37,38
 353 185 353 185 351.5 226.5 c 128,-1,39
 350 268 350 268 344 308 c 0,40,41
 335 369 335 369 314 424 c 1,42,43
 295 429 295 429 274 431.5 c 128,-1,44
 253 434 253 434 233 431 c 0,45,46
 190 424 190 424 163.5 398.5 c 128,-1,47
 137 373 137 373 125 337.5 c 128,-1,48
 113 302 113 302 111.5 263 c 128,-1,49
 110 224 110 224 115 190 c 0,50,51
 118 172 118 172 127.5 145 c 128,-1,52
 137 118 137 118 154.5 91.5 c 128,-1,53
 172 65 172 65 198.5 49 c 128,-1,54
 225 33 225 33 262 39 c 0,55,56
 301 45 301 45 320 77.5 c 128,-1,57
 339 110 339 110 345 145 c 0,37,38
EndSplineSet
EndChar

StartChar: divide
Encoding: 247 247 184
Width: 824
GlyphClass: 1
Flags: W
LayerCount: 2
Fore
SplineSet
471 514 m 0,0,1
 470 489 470 489 452.5 473.5 c 128,-1,2
 435 458 435 458 411 458 c 256,3,4
 387 458 387 458 370 475 c 128,-1,5
 353 492 353 492 353 516 c 0,6,7
 353 542 353 542 374 557 c 128,-1,8
 395 572 395 572 417 572 c 0,9,10
 443 572 443 572 457 554.5 c 128,-1,11
 471 537 471 537 471 514 c 0,0,1
744 276 m 1,12,-1
 738 236 l 1,13,-1
 80 236 l 1,14,-1
 87 276 l 1,15,-1
 744 276 l 1,12,-1
471 -2 m 0,16,17
 470 -27 470 -27 452.5 -42.5 c 128,-1,18
 435 -58 435 -58 411 -58 c 256,19,20
 387 -58 387 -58 370 -41 c 128,-1,21
 353 -24 353 -24 353 0 c 0,22,23
 353 26 353 26 374 41 c 128,-1,24
 395 56 395 56 417 56 c 0,25,26
 443 56 443 56 457 38.5 c 128,-1,27
 471 21 471 21 471 -2 c 0,16,17
EndSplineSet
EndChar

StartChar: oslash
Encoding: 248 248 185
Width: 520
GlyphClass: 2
Flags: W
AnchorPoint: "Anchor-10" 269 462 basechar 0
AnchorPoint: "Anchor-9" 269 0 basechar 0
LayerCount: 2
Fore
SplineSet
431 59 m 0,0,1
 396 19 396 19 345.5 2.5 c 128,-1,2
 295 -14 295 -14 242 -14 c 0,3,4
 206 -14 206 -14 177 -5 c 1,5,-1
 140 -90 l 1,6,-1
 108 -82 l 1,7,-1
 106 -68 l 1,8,-1
 140 11 l 1,9,10
 94 39 94 39 73 89.5 c 128,-1,11
 52 140 52 140 48 196 c 0,12,13
 48 248 48 248 57.5 300 c 128,-1,14
 67 352 67 352 103 391 c 0,15,16
 138 430 138 430 188.5 447.5 c 128,-1,17
 239 465 239 465 291 465 c 0,18,19
 314 465 314 465 335 461 c 1,20,-1
 364 529 l 1,21,-1
 374 531 l 1,22,-1
 396 526 l 1,23,-1
 402 515 l 1,24,-1
 374 450 l 1,25,26
 416 433 416 433 441 400 c 128,-1,27
 466 367 466 367 477.5 325 c 128,-1,28
 489 283 489 283 489 239 c 0,29,30
 489 190 489 190 476.5 143 c 128,-1,31
 464 96 464 96 431 59 c 0,0,1
268 426 m 0,32,33
 228 426 228 426 192 399 c 128,-1,34
 156 372 156 372 142 316 c 0,35,36
 138 297 138 297 136 278 c 128,-1,37
 134 259 134 259 134 239 c 0,38,39
 134 203 134 203 142 159.5 c 128,-1,40
 150 116 150 116 171 83 c 1,41,-1
 316 417 l 1,42,43
 294 426 294 426 268 426 c 0,32,33
400 220 m 0,44,45
 400 248 400 248 396 280.5 c 128,-1,46
 392 313 392 313 381 343 c 128,-1,47
 370 373 370 373 350 394 c 1,48,-1
 200 49 l 1,49,50
 214 39 214 39 231 33 c 128,-1,51
 248 27 248 27 269 27 c 0,52,53
 310 27 310 27 335.5 45 c 128,-1,54
 361 63 361 63 375 92 c 128,-1,55
 389 121 389 121 394.5 155 c 128,-1,56
 400 189 400 189 400 220 c 0,44,45
EndSplineSet
EndChar

StartChar: thorn
Encoding: 254 254 191
Width: 543
GlyphClass: 1
Flags: W
LayerCount: 2
Fore
SplineSet
199 -206 m 1,0,-1
 118 -237 l 1,1,-1
 108 -226 l 1,2,3
 110 -209 110 -209 111 -176.5 c 128,-1,4
 112 -144 112 -144 112.5 -105 c 128,-1,5
 113 -66 113 -66 113.5 -26.5 c 128,-1,6
 114 13 114 13 114 45 c 128,-1,7
 114 77 114 77 114 94 c 2,8,-1
 114 315 l 2,9,10
 114 338 114 338 110.5 360 c 128,-1,11
 107 382 107 382 98.5 397 c 128,-1,12
 90 412 90 412 75 412 c 0,13,14
 59 412 59 412 39.5 403 c 128,-1,15
 20 394 20 394 2 383 c 1,16,-1
 -12 402 l 1,17,18
 18 426 18 426 54.5 448 c 128,-1,19
 91 470 91 470 124 470 c 0,20,21
 151 470 151 470 170 451 c 128,-1,22
 189 432 189 432 190 380 c 0,23,24
 191 357 191 357 191 338 c 128,-1,25
 191 319 191 319 191 311 c 1,26,-1
 199 307 l 1,27,28
 240 339 240 339 284.5 360 c 128,-1,29
 329 381 329 381 381 381 c 0,30,31
 432 381 432 381 462 355 c 128,-1,32
 492 329 492 329 505 290.5 c 128,-1,33
 518 252 518 252 518 214 c 0,34,35
 518 159 518 159 499.5 104 c 128,-1,36
 481 49 481 49 446.5 4 c 128,-1,37
 412 -41 412 -41 364 -68 c 128,-1,38
 316 -95 316 -95 258 -95 c 0,39,40
 243 -95 243 -95 229.5 -93 c 128,-1,41
 216 -91 216 -91 202 -87 c 1,42,-1
 192 -95 l 1,43,44
 193 -118 193 -118 193.5 -133 c 128,-1,45
 194 -148 194 -148 195.5 -164 c 128,-1,46
 197 -180 197 -180 199 -206 c 1,0,-1
191 -18 m 0,47,48
 209 -34 209 -34 231.5 -44.5 c 128,-1,49
 254 -55 254 -55 279 -55 c 0,50,51
 324 -55 324 -55 354 -36 c 128,-1,52
 384 -17 384 -17 401.5 14.5 c 128,-1,53
 419 46 419 46 426.5 82.5 c 128,-1,54
 434 119 434 119 434 155 c 0,55,56
 434 199 434 199 421.5 236 c 128,-1,57
 409 273 409 273 386 296 c 128,-1,58
 363 319 363 319 331 319 c 0,59,60
 293 319 293 319 260 304 c 128,-1,61
 227 289 227 289 192 261 c 0,62,63
 192 259 192 259 191.5 242.5 c 128,-1,64
 191 226 191 226 191 205 c 128,-1,65
 191 184 191 184 190.5 167 c 128,-1,66
 190 150 190 150 190 146 c 0,67,68
 190 105 190 105 190.5 67.5 c 128,-1,69
 191 30 191 30 191 6.5 c 128,-1,70
 191 -17 191 -17 191 -18 c 0,47,48
EndSplineSet
EndChar

StartChar: dotlessi
Encoding: 305 305 229
Width: 323
GlyphClass: 2
Flags: W
AnchorPoint: "Anchor-10" 130 462 basechar 0
AnchorPoint: "Anchor-9" 165 0 basechar 0
LayerCount: 2
Fore
SplineSet
192 392 m 2,0,-1
 184 182 l 2,1,2
 184 127 184 127 193 96 c 128,-1,3
 202 65 202 65 228 65 c 0,4,5
 257 65 257 65 278.5 78.5 c 128,-1,6
 300 92 300 92 320 110 c 1,7,-1
 333 100 l 1,8,-1
 333 89 l 1,9,10
 316 67 316 67 293.5 44.5 c 128,-1,11
 271 22 271 22 245.5 7 c 128,-1,12
 220 -8 220 -8 192 -8 c 0,13,14
 171 -8 171 -8 152.5 -0.5 c 128,-1,15
 134 7 134 7 123 31 c 128,-1,16
 112 55 112 55 112 104 c 2,17,-1
 118 325 l 2,18,19
 118 364 118 364 110.5 387 c 128,-1,20
 103 410 103 410 83 410 c 0,21,22
 67 410 67 410 44 399.5 c 128,-1,23
 21 389 21 389 3 378 c 1,24,-1
 -10 396 l 1,25,26
 24 423 24 423 62.5 447 c 128,-1,27
 101 471 101 471 130 471 c 0,28,29
 164 471 164 471 178 448 c 128,-1,30
 192 425 192 425 192 392 c 2,0,-1
EndSplineSet
EndChar

StartChar: OE
Encoding: 338 338 244
Width: 997
GlyphClass: 1
Flags: W
LayerCount: 2
Fore
SplineSet
896 384 m 1,0,-1
 890 336 l 1,1,2
 861 338 861 338 831 340 c 128,-1,3
 801 342 801 342 772 342 c 256,4,5
 743 342 743 342 713 342 c 128,-1,6
 683 342 683 342 663 339 c 128,-1,7
 643 336 643 336 643 327 c 2,8,-1
 643 188 l 2,9,10
 643 160 643 160 645.5 127.5 c 128,-1,11
 648 95 648 95 658 76 c 0,12,13
 669 57 669 57 688.5 50.5 c 128,-1,14
 708 44 708 44 754 44 c 0,15,16
 772 44 772 44 788 44.5 c 128,-1,17
 804 45 804 45 827 46 c 128,-1,18
 850 47 850 47 888.5 50 c 128,-1,19
 927 53 927 53 988 58 c 1,20,-1
 993 53 l 1,21,-1
 980 0 l 1,22,-1
 452 0 l 1,23,24
 389 -18 389 -18 320 -18 c 0,25,26
 243 -18 243 -18 189.5 11 c 128,-1,27
 136 40 136 40 103.5 88.5 c 128,-1,28
 71 137 71 137 56 196.5 c 128,-1,29
 41 256 41 256 41 318 c 0,30,31
 41 415 41 415 64 483.5 c 128,-1,32
 87 552 87 552 142 612 c 0,33,34
 174 646 174 646 217 665 c 128,-1,35
 260 684 260 684 308.5 692 c 128,-1,36
 357 700 357 700 403 700 c 0,37,38
 432 700 432 700 461 695.5 c 128,-1,39
 490 691 490 691 518 681 c 1,40,-1
 635 682 l 2,41,42
 670 682 670 682 713 683.5 c 128,-1,43
 756 685 756 685 799 686.5 c 128,-1,44
 842 688 842 688 877 688 c 0,45,46
 891 688 891 688 902 688 c 128,-1,47
 913 688 913 688 923 687 c 1,48,-1
 921 637 l 1,49,-1
 917 630 l 1,50,51
 891 632 891 632 856.5 633.5 c 128,-1,52
 822 635 822 635 789 636.5 c 128,-1,53
 756 638 756 638 733.5 639 c 128,-1,54
 711 640 711 640 708 640 c 2,55,-1
 668 640 l 2,56,57
 653 637 653 637 648.5 613.5 c 128,-1,58
 644 590 644 590 644 564 c 2,59,-1
 644 398 l 2,60,61
 644 385 644 385 663 384.5 c 128,-1,62
 682 384 682 384 710 384 c 0,63,64
 750 384 750 384 800 386 c 128,-1,65
 850 388 850 388 890 391 c 1,66,-1
 896 384 l 1,0,-1
134 348 m 0,67,68
 134 278 134 278 150.5 214.5 c 128,-1,69
 167 151 167 151 213 100 c 0,70,71
 258 50 258 50 301 36.5 c 128,-1,72
 344 23 344 23 373 23 c 0,73,74
 446 23 446 23 493 60.5 c 128,-1,75
 540 98 540 98 566 155 c 1,76,-1
 566 518 l 1,77,78
 540 578 540 578 492.5 619 c 128,-1,79
 445 660 445 660 371 660 c 0,80,81
 306 660 306 660 261 633 c 128,-1,82
 216 606 216 606 188 561 c 128,-1,83
 160 516 160 516 147 460.5 c 128,-1,84
 134 405 134 405 134 348 c 0,67,68
EndSplineSet
EndChar

StartChar: oe
Encoding: 339 339 245
Width: 815
GlyphClass: 1
Flags: W
LayerCount: 2
Fore
SplineSet
770 319 m 2,0,-1
 488 197 l 1,1,2
 491 166 491 166 504.5 133 c 128,-1,3
 518 100 518 100 545.5 78 c 128,-1,4
 573 56 573 56 617 56 c 0,5,6
 658 56 658 56 697.5 77 c 128,-1,7
 737 98 737 98 771 124 c 1,8,-1
 782 122 l 1,9,-1
 795 104 l 1,10,11
 764 75 764 75 727.5 48.5 c 128,-1,12
 691 22 691 22 650.5 5 c 128,-1,13
 610 -12 610 -12 567 -12 c 0,14,15
 517 -12 517 -12 485 9 c 128,-1,16
 453 30 453 30 435 63 c 1,17,18
 433 61 433 61 431 59 c 0,19,20
 396 19 396 19 345.5 2.5 c 128,-1,21
 295 -14 295 -14 242 -14 c 0,22,23
 173 -14 173 -14 131.5 16.5 c 128,-1,24
 90 47 90 47 71 95 c 128,-1,25
 52 143 52 143 48 196 c 0,26,27
 48 248 48 248 57.5 300 c 128,-1,28
 67 352 67 352 103 391 c 0,29,30
 138 430 138 430 188.5 447.5 c 128,-1,31
 239 465 239 465 291 465 c 0,32,33
 350 465 350 465 388.5 443 c 128,-1,34
 427 421 427 421 450 386 c 1,35,-1
 452 388 l 1,36,37
 489 431 489 431 540.5 454.5 c 128,-1,38
 592 478 592 478 649 478 c 0,39,40
 714 478 714 478 752.5 438 c 128,-1,41
 791 398 791 398 791 340 c 0,42,43
 791 331 791 331 784.5 327 c 128,-1,44
 778 323 778 323 770 319 c 2,0,-1
530 396 m 0,45,46
 501 365 501 365 492.5 331 c 128,-1,47
 484 297 484 297 484 260 c 0,48,49
 484 256 484 256 484.5 251.5 c 128,-1,50
 485 247 485 247 486 242 c 2,51,-1
 490 238 l 1,52,-1
 692 318 l 2,53,54
 697 320 697 320 701 326 c 128,-1,55
 705 332 705 332 705 344 c 0,56,57
 705 365 705 365 694 387 c 128,-1,58
 683 409 683 409 662.5 423.5 c 128,-1,59
 642 438 642 438 614 438 c 0,60,61
 589 438 589 438 567.5 427 c 128,-1,62
 546 416 546 416 530 396 c 0,45,46
142 316 m 0,63,64
 138 297 138 297 136 278 c 128,-1,65
 134 259 134 259 134 239 c 0,66,67
 134 208 134 208 140 171 c 128,-1,68
 146 134 146 134 160.5 101.5 c 128,-1,69
 175 69 175 69 201.5 48 c 128,-1,70
 228 27 228 27 269 27 c 256,71,72
 310 27 310 27 335.5 45 c 128,-1,73
 361 63 361 63 375 92 c 128,-1,74
 389 121 389 121 394.5 155 c 128,-1,75
 400 189 400 189 400 220 c 256,76,77
 400 251 400 251 395 286.5 c 128,-1,78
 390 322 390 322 376.5 354 c 128,-1,79
 363 386 363 386 336.5 406 c 128,-1,80
 310 426 310 426 268 426 c 0,81,82
 228 426 228 426 192 399 c 128,-1,83
 156 372 156 372 142 316 c 0,63,64
EndSplineSet
EndChar

StartChar: uni018F
Encoding: 399 399 280
Width: 608
GlyphClass: 2
Flags: W
LayerCount: 2
Fore
SplineSet
22 196 m 0,0,1
 22 210 22 210 32 216 c 0,2,3
 46.8876404494 224.93258427 46.8876404494 224.93258427 54 228 c 2,4,-1
 476 410 l 1,5,6
 472 457 472 457 452 506.5 c 128,-1,7
 432 556 432 556 390.5 589 c 128,-1,8
 349 622 349 622 283 622 c 0,9,10
 222 622 222 622 162.5 590.5 c 128,-1,11
 103 559 103 559 52 520 c 1,12,-1
 36 523 l 1,13,-1
 16 550 l 1,14,15
 62 594 62 594 117 633.5 c 128,-1,16
 172 673 172 673 230.25 696.25 c 0,17,18
 249 704 249 704 328.5 704.5 c 0,19,20
 404 705 404 705 452 673 c 128,-1,21
 500 641 500 641 527.5 590 c 0,22,23
 554 539 554 539 566 474.5 c 0,24,25
 577 417 577 417 577.5 347.5 c 0,26,27
 578 286 578 286 557 220 c 128,-1,28
 536 154 536 154 515 130 c 0,29,30
 460 66 460 66 390 27.5 c 128,-1,31
 320 -11 320 -11 235 -11 c 0,32,33
 138 -11 138 -11 80 49 c 128,-1,34
 22 109 22 109 22 196 c 0,0,1
288 49 m 0,35,36
 325 49 325 49 357.5 65.5 c 128,-1,37
 390 82 390 82 414 112 c 0,38,39
 457 158 457 158 469.5 209 c 128,-1,40
 482 260 482 260 482 316 c 0,41,42
 482 322 482 322 481.5 329 c 128,-1,43
 481 336 481 336 480 343 c 1,44,-1
 474 349 l 1,45,-1
 170 229 l 2,46,47
 163 226 163 226 157 217 c 128,-1,48
 151 208 151 208 151 190 c 0,49,50
 151 158 151 158 167.5 125 c 128,-1,51
 184 92 184 92 215 70.5 c 128,-1,52
 246 49 246 49 288 49 c 0,35,36
EndSplineSet
EndChar

StartChar: dotlessj
Encoding: 567 567 338
Width: 288
GlyphClass: 1
Flags: W
LayerCount: 2
Fore
SplineSet
18 375 m 1,0,-1
 5 393 l 1,1,2
 26 409 26 409 50.5 426.5 c 128,-1,3
 75 444 75 444 99.5 456 c 128,-1,4
 124 468 124 468 146 468 c 0,5,6
 182 468 182 468 193.5 447 c 128,-1,7
 205 426 205 426 207 401 c 0,8,9
 210 385 210 385 211.5 350 c 128,-1,10
 213 315 213 315 213.5 275 c 128,-1,11
 214 235 214 235 214 201.5 c 128,-1,12
 214 168 214 168 214 154 c 0,13,14
 214 147 214 147 214 121 c 128,-1,15
 214 95 214 95 212.5 62.5 c 128,-1,16
 211 30 211 30 209 1 c 128,-1,17
 207 -28 207 -28 202 -41 c 0,18,19
 180 -106 180 -106 127 -152.5 c 128,-1,20
 74 -199 74 -199 6 -231 c 1,21,-1
 -10 -215 l 1,22,23
 46 -182 46 -182 77 -147.5 c 128,-1,24
 108 -113 108 -113 118 -76 c 0,25,26
 124 -53 124 -53 128 -20.5 c 128,-1,27
 132 12 132 12 134 46 c 128,-1,28
 136 80 136 80 137 109 c 128,-1,29
 138 138 138 138 138 154 c 0,30,31
 138 245 138 245 136 296.5 c 128,-1,32
 134 348 134 348 129.5 372 c 128,-1,33
 125 396 125 396 116.5 402 c 128,-1,34
 108 408 108 408 94 408 c 0,35,36
 82 408 82 408 59.5 396.5 c 128,-1,37
 37 385 37 385 18 375 c 1,0,-1
EndSplineSet
EndChar

StartChar: uni0259
Encoding: 601 601 339
Width: 462
GlyphClass: 2
Flags: W
AnchorPoint: "Anchor-10" 234 4 basechar 0
AnchorPoint: "Anchor-9" 254 466 basechar 0
LayerCount: 2
Fore
SplineSet
52 126 m 0,0,1
 52 135 52 135 58.5 139 c 128,-1,2
 65 143 65 143 73 147 c 2,3,-1
 355 269 l 1,4,5
 352 300 352 300 338.5 333 c 128,-1,6
 325 366 325 366 297.5 388 c 128,-1,7
 270 410 270 410 226 410 c 0,8,9
 185 410 185 410 145.5 389 c 128,-1,10
 106 368 106 368 72 342 c 1,11,-1
 61 344 l 1,12,-1
 48 362 l 1,13,14
 79 391 79 391 115.5 417.5 c 128,-1,15
 152 444 152 444 192.5 461 c 128,-1,16
 233 478 233 478 276 478 c 0,17,18
 326 478 326 478 358.5 457 c 128,-1,19
 391 436 391 436 409 401.5 c 128,-1,20
 427 367 427 367 434.5 324.5 c 128,-1,21
 442 282 442 282 442 240 c 0,22,23
 442 196 442 196 431 154 c 128,-1,24
 420 112 420 112 391 78 c 0,25,26
 354 35 354 35 302.5 11.5 c 128,-1,27
 251 -12 251 -12 194 -12 c 0,28,29
 129 -12 129 -12 90.5 28 c 128,-1,30
 52 68 52 68 52 126 c 0,0,1
229 28 m 0,31,32
 254 28 254 28 275.5 39 c 128,-1,33
 297 50 297 50 313 70 c 0,34,35
 342 101 342 101 350.5 135 c 128,-1,36
 359 169 359 169 359 206 c 0,37,38
 359 210 359 210 358.5 214.5 c 128,-1,39
 358 219 358 219 357 224 c 2,40,-1
 353 228 l 1,41,-1
 151 148 l 2,42,43
 146 146 146 146 142 140 c 128,-1,44
 138 134 138 134 138 122 c 0,45,46
 138 101 138 101 149 79 c 128,-1,47
 160 57 160 57 180.5 42.5 c 128,-1,48
 201 28 201 28 229 28 c 0,31,32
EndSplineSet
EndChar

StartChar: gravecomb
Encoding: 768 768 344
Width: 0
GlyphClass: 4
Flags: W
AnchorPoint: "Anchor-12" 0 701 basemark 0
AnchorPoint: "Anchor-12" 0 462 mark 0
AnchorPoint: "Anchor-10" 0 462 mark 0
LayerCount: 2
Fore
SplineSet
-130 665 m 1,0,-1
 -83 701 l 1,1,-1
 -70 699 l 1,2,-1
 50 542 l 1,3,-1
 32 511 l 1,4,-1
 -130 665 l 1,0,-1
EndSplineSet
EndChar

StartChar: acutecomb
Encoding: 769 769 345
Width: 0
GlyphClass: 4
Flags: W
AnchorPoint: "Anchor-12" 0 700 basemark 0
AnchorPoint: "Anchor-12" 0 462 mark 0
AnchorPoint: "Anchor-10" 0 462 mark 0
LayerCount: 2
Fore
SplineSet
115 664 m 1,0,-1
 -47 510 l 1,1,-1
 -65 541 l 1,2,-1
 55 698 l 1,3,-1
 68 700 l 1,4,-1
 115 664 l 1,0,-1
EndSplineSet
EndChar

StartChar: circumflexcomb
Encoding: 770 770 346
Width: 0
GlyphClass: 4
Flags: W
AnchorPoint: "Anchor-12" 0 692 basemark 0
AnchorPoint: "Anchor-12" 0 462 mark 0
AnchorPoint: "Anchor-10" 0 462 mark 0
LayerCount: 2
Fore
SplineSet
-163 511 m 1,0,-1
 6 692 l 1,1,-1
 163 532 l 1,2,-1
 124 506 l 1,3,-1
 3 630 l 1,4,-1
 -140 499 l 1,5,-1
 -163 511 l 1,0,-1
EndSplineSet
EndChar

StartChar: tildecomb
Encoding: 771 771 347
Width: 0
GlyphClass: 4
Flags: W
AnchorPoint: "Anchor-12" 0 642 basemark 0
AnchorPoint: "Anchor-12" 0 462 mark 0
AnchorPoint: "Anchor-10" 0 462 mark 0
LayerCount: 2
Fore
SplineSet
-2 620 m 2,0,-1
 45 599 l 2,1,2
 56 595 56 595 67.5 592 c 128,-1,3
 79 589 79 589 91 590 c 0,4,5
 109 592 109 592 117 602 c 128,-1,6
 125 612 125 612 132 629 c 1,7,-1
 145 624 l 1,8,9
 144 610 144 610 137 589.5 c 128,-1,10
 130 569 130 569 118 553 c 128,-1,11
 106 537 106 537 90 535 c 256,12,13
 74 533 74 533 57.5 536.5 c 128,-1,14
 41 540 41 540 26 547 c 2,15,-1
 -37 577 l 2,16,17
 -48 582 -48 582 -61 585 c 128,-1,18
 -74 588 -74 588 -87 586 c 0,19,20
 -105 584 -105 584 -114.5 573.5 c 128,-1,21
 -124 563 -124 563 -133 538 c 1,22,-1
 -147 543 l 1,23,24
 -143 561 -143 561 -135 583 c 128,-1,25
 -127 605 -127 605 -114.5 622 c 128,-1,26
 -102 639 -102 639 -85 641 c 0,27,28
 -65 644 -65 644 -43 636.5 c 128,-1,29
 -21 629 -21 629 -2 620 c 2,0,-1
EndSplineSet
EndChar

StartChar: macroncomb
Encoding: 772 772 348
Width: 0
GlyphClass: 4
Flags: W
AnchorPoint: "Anchor-12" 0 595 basemark 0
AnchorPoint: "Anchor-12" 0 462 mark 0
AnchorPoint: "Anchor-10" 0 462 mark 0
LayerCount: 2
Fore
SplineSet
121 595 m 1,0,-1
 115 555 l 1,1,-1
 -121 555 l 1,2,-1
 -114 595 l 1,3,-1
 121 595 l 1,0,-1
EndSplineSet
EndChar

StartChar: uni0306
Encoding: 774 774 349
Width: 0
GlyphClass: 2
Flags: W
LayerCount: 2
Fore
SplineSet
-140 671 m 1,0,-1
 -110 671 l 1,1,2
 -108 628 -108 628 -76.5 600.5 c 128,-1,3
 -45 573 -45 573 1 573 c 128,-1,4
 47 573 47 573 78.5 600.5 c 128,-1,5
 110 628 110 628 112 671 c 1,6,-1
 142 671 l 1,7,8
 140 624 140 624 125 590.5 c 128,-1,9
 110 557 110 557 87.5 541.5 c 128,-1,10
 65 526 65 526 44 519.5 c 128,-1,11
 23 513 23 513 1 513 c 0,12,13
 -22 513 -22 513 -43 519.5 c 128,-1,14
 -64 526 -64 526 -86.5 541.5 c 128,-1,15
 -109 557 -109 557 -123.5 590.5 c 128,-1,16
 -138 624 -138 624 -140 671 c 1,0,-1
EndSplineSet
EndChar

StartChar: uni0307
Encoding: 775 775 350
Width: 0
GlyphClass: 2
Flags: W
LayerCount: 2
Fore
SplineSet
49 596 m 0,0,1
 49 573 49 573 35.5 559.5 c 128,-1,2
 22 546 22 546 -1 546 c 128,-1,3
 -24 546 -24 546 -37.5 559.5 c 128,-1,4
 -51 573 -51 573 -51 596 c 128,-1,5
 -51 619 -51 619 -37 632.5 c 128,-1,6
 -23 646 -23 646 0 646 c 0,7,8
 22 646 22 646 35.5 632 c 128,-1,9
 49 618 49 618 49 596 c 0,0,1
EndSplineSet
EndChar

StartChar: dieresiscomb
Encoding: 776 776 351
Width: 0
GlyphClass: 4
Flags: W
AnchorPoint: "Anchor-12" 0 653 basemark 0
AnchorPoint: "Anchor-12" 0 462 mark 0
AnchorPoint: "Anchor-10" 0 462 mark 0
LayerCount: 2
Fore
SplineSet
160 595 m 0,0,1
 159 570 159 570 141.5 554.5 c 128,-1,2
 124 539 124 539 100 539 c 256,3,4
 76 539 76 539 59 556 c 128,-1,5
 42 573 42 573 42 597 c 0,6,7
 42 623 42 623 63 638 c 128,-1,8
 84 653 84 653 106 653 c 0,9,10
 132 653 132 653 146 635.5 c 128,-1,11
 160 618 160 618 160 595 c 0,0,1
-42 595 m 0,12,13
 -43 570 -43 570 -60.5 554.5 c 128,-1,14
 -78 539 -78 539 -102 539 c 256,15,16
 -126 539 -126 539 -143 556 c 128,-1,17
 -160 573 -160 573 -160 597 c 0,18,19
 -160 623 -160 623 -139 638 c 128,-1,20
 -118 653 -118 653 -96 653 c 0,21,22
 -70 653 -70 653 -56 635.5 c 128,-1,23
 -42 618 -42 618 -42 595 c 0,12,13
EndSplineSet
EndChar

StartChar: ringcomb
Encoding: 778 778 352
Width: 0
GlyphClass: 4
Flags: W
AnchorPoint: "Anchor-12" 0 672 basemark 0
AnchorPoint: "Anchor-12" 0 462 mark 0
AnchorPoint: "Anchor-10" 0 462 mark 0
LayerCount: 2
Fore
SplineSet
-97 575 m 0,0,1
 -97 616 -97 616 -68.5 644 c 128,-1,2
 -40 672 -40 672 0 672 c 0,3,4
 41 672 41 672 69 644 c 128,-1,5
 97 616 97 616 97 575 c 0,6,7
 97 535 97 535 69 506.5 c 128,-1,8
 41 478 41 478 0 478 c 0,9,10
 -40 478 -40 478 -68.5 506.5 c 128,-1,11
 -97 535 -97 535 -97 575 c 0,0,1
-67 575 m 256,12,13
 -67 547 -67 547 -47.5 527.5 c 128,-1,14
 -28 508 -28 508 0 508 c 256,15,16
 28 508 28 508 47.5 527.5 c 128,-1,17
 67 547 67 547 67 575 c 256,18,19
 67 603 67 603 47.5 622.5 c 128,-1,20
 28 642 28 642 0 642 c 256,21,22
 -28 642 -28 642 -47.5 622.5 c 128,-1,23
 -67 603 -67 603 -67 575 c 256,12,13
EndSplineSet
EndChar

StartChar: cedillacomb
Encoding: 807 807 353
Width: 0
GlyphClass: 4
Flags: W
AnchorPoint: "Anchor-11" 0 -259 basemark 0
AnchorPoint: "Anchor-11" 0 0 mark 0
AnchorPoint: "Anchor-9" 0 0 mark 0
LayerCount: 2
Fore
SplineSet
-72 -112 m 1,0,-1
 -20 6 l 1,1,-1
 16 6 l 1,2,-1
 -4 -41 l 1,3,4
 6 -45 6 -45 30 -57.5 c 128,-1,5
 54 -70 54 -70 68 -87 c 0,6,7
 85 -108 85 -108 89.5 -134 c 128,-1,8
 94 -160 94 -160 74 -187 c 0,9,10
 58 -209 58 -209 31 -223 c 128,-1,11
 4 -237 4 -237 -26.5 -245.5 c 128,-1,12
 -57 -254 -57 -254 -84 -259 c 1,13,-1
 -90 -244 l 1,14,-1
 -85 -234 l 1,15,16
 -65 -226 -65 -226 -44 -215.5 c 128,-1,17
 -23 -205 -23 -205 -13 -192 c 0,18,19
 1 -173 1 -173 -7 -157 c 128,-1,20
 -15 -141 -15 -141 -34 -129 c 128,-1,21
 -53 -117 -53 -117 -72 -112 c 1,0,-1
EndSplineSet
EndChar

StartChar: comma-ar
Encoding: 1548 1548 359
Width: 278
GlyphClass: 1
Flags: W
LayerCount: 2
Fore
SplineSet
127 0 m 0,0,1
 96 0 96 0 76 35 c 128,-1,2
 56 70 56 70 62 128 c 0,3,4
 67 182 67 182 86 250.5 c 128,-1,5
 105 319 105 319 130 389 c 1,6,-1
 161 419 l 1,7,8
 160 412 160 412 153 384 c 128,-1,9
 146 356 146 356 133 308 c 0,10,11
 126 283 126 283 122 250 c 128,-1,12
 118 217 118 217 119 187 c 128,-1,13
 120 157 120 157 128.5 138 c 128,-1,14
 137 119 137 119 155.5 119.5 c 128,-1,15
 174 120 174 120 205 150 c 0,16,17
 210 155 210 155 215 152 c 128,-1,18
 220 149 220 149 220 143 c 0,19,20
 217 75 217 75 194.5 37.5 c 128,-1,21
 172 0 172 0 127 0 c 0,0,1
EndSplineSet
Substitution2: "'locl' Localized Forms in Arabic lookup 8 subtable" comma-ar.alt
EndChar

StartChar: semicolon-ar
Encoding: 1563 1563 360
Width: 278
GlyphClass: 1
Flags: W
LayerCount: 2
Fore
SplineSet
127 229 m 0,0,1
 96 229 96 229 76 264 c 128,-1,2
 56 299 56 299 62 357 c 0,3,4
 67 411 67 411 86 479.5 c 128,-1,5
 105 548 105 548 130 618 c 1,6,-1
 161 648 l 1,7,8
 160 641 160 641 153 613 c 128,-1,9
 146 585 146 585 133 537 c 0,10,11
 126 512 126 512 122 479 c 128,-1,12
 118 446 118 446 119 416 c 128,-1,13
 120 386 120 386 128.5 367 c 128,-1,14
 137 348 137 348 155.5 348.5 c 128,-1,15
 174 349 174 349 205 379 c 0,16,17
 210 384 210 384 215 381 c 128,-1,18
 220 378 220 378 220 372 c 0,19,20
 217 304 217 304 194.5 266.5 c 128,-1,21
 172 229 172 229 127 229 c 0,0,1
57 85 m 2,22,-1
 146 177 l 2,23,24
 152 183 152 183 158 177 c 2,25,-1
 230 107 l 2,26,27
 237 101 237 101 231 95 c 2,28,-1
 142 3 l 2,29,30
 136 -3 136 -3 130 2 c 2,31,-1
 57 73 l 2,32,33
 51 79 51 79 57 85 c 2,22,-1
EndSplineSet
Substitution2: "'locl' Localized Forms in Arabic lookup 8 subtable" semicolon-ar.alt
EndChar

StartChar: question-ar
Encoding: 1567 1567 361
Width: 345
GlyphClass: 1
Flags: W
LayerCount: 2
Fore
SplineSet
320 755 m 1,0,1
 311 723 311 723 301.5 691 c 128,-1,2
 292 659 292 659 278 629 c 0,3,4
 275 623 275 623 265.5 619 c 128,-1,5
 256 615 256 615 255 625 c 0,6,7
 253 658 253 658 230 678 c 128,-1,8
 207 698 207 698 173 699 c 0,9,10
 123 701 123 701 89 674 c 1,11,12
 97 637 97 637 120 611.5 c 128,-1,13
 143 586 143 586 165 563 c 0,14,15
 200 528 200 528 228.5 485.5 c 128,-1,16
 257 443 257 443 264 380 c 1,17,18
 262 322 262 322 242 279 c 128,-1,19
 222 236 222 236 201 195 c 0,20,21
 200 192 200 192 195 192 c 128,-1,22
 190 192 190 192 191 197 c 0,23,24
 207 248 207 248 199 292.5 c 128,-1,25
 191 337 191 337 170 373 c 128,-1,26
 149 409 149 409 122 433 c 0,27,28
 97 456 97 456 75 483 c 128,-1,29
 53 510 53 510 39 544 c 1,30,31
 32 584 32 584 41.5 633.5 c 128,-1,32
 51 683 51 683 76 727.5 c 128,-1,33
 101 772 101 772 140.5 799.5 c 128,-1,34
 180 827 180 827 232 824 c 0,35,36
 262 822 262 822 281.5 805.5 c 128,-1,37
 301 789 301 789 313 768 c 0,38,39
 315 766 315 766 315.5 762.5 c 128,-1,40
 316 759 316 759 320 755 c 1,0,1
106 85 m 2,41,-1
 195 177 l 2,42,43
 199 183 199 183 207 177 c 2,44,-1
 280 107 l 2,45,46
 286 103 286 103 280 95 c 2,47,-1
 192 3 l 2,48,49
 187 -3 187 -3 179 3 c 2,50,-1
 107 73 l 2,51,52
 101 78 101 78 106 85 c 2,41,-1
EndSplineSet
EndChar

StartChar: hamza-ar
Encoding: 1569 1569 362
Width: 431
GlyphClass: 2
Flags: W
AnchorPoint: "Anchor-6" 294 576 basechar 0
AnchorPoint: "Anchor-4" 272 584 basechar 0
AnchorPoint: "Anchor-2" 149 -189 basechar 0
AnchorPoint: "Anchor-1" 119 -189 basechar 0
LayerCount: 2
Fore
SplineSet
84 0 m 0,0,1
 62 0 62 0 52 3.5 c 128,-1,2
 42 7 42 7 61 19 c 0,3,4
 83 33 83 33 114 47 c 128,-1,5
 145 61 145 61 177 74 c 128,-1,6
 209 87 209 87 233 99 c 0,7,8
 251 108 251 108 246.5 115 c 128,-1,9
 242 122 242 122 229 125 c 0,10,11
 203 131 203 131 183.5 144 c 128,-1,12
 164 157 164 157 156 171 c 0,13,14
 146 188 146 188 156 216 c 128,-1,15
 166 244 166 244 190 277 c 128,-1,16
 214 310 214 310 246 341.5 c 128,-1,17
 278 373 278 373 312 397 c 0,18,19
 323 405 323 405 344.5 416.5 c 128,-1,20
 366 428 366 428 376 428 c 0,21,22
 387 428 387 428 381.5 414.5 c 128,-1,23
 376 401 376 401 368 388 c 0,24,25
 361 375 361 375 346 356 c 128,-1,26
 331 337 331 337 325 326 c 1,27,28
 297 319 297 319 277 310.5 c 128,-1,29
 257 302 257 302 236 284 c 1,30,31
 246 267 246 267 262 259 c 128,-1,32
 278 251 278 251 295 245.5 c 128,-1,33
 312 240 312 240 324.5 231 c 128,-1,34
 337 222 337 222 339 203 c 0,35,36
 341 189 341 189 324.5 165.5 c 128,-1,37
 308 142 308 142 287 113 c 0,38,39
 265 82 265 82 242.5 56 c 128,-1,40
 220 30 220 30 194 18 c 0,41,42
 175 9 175 9 144 4.5 c 128,-1,43
 113 0 113 0 84 0 c 0,0,1
EndSplineSet
Position2: "Single Positioning lookup 18 per glyph data 0" dx=0 dy=195 dh=0 dv=0
EndChar

StartChar: alef-ar
Encoding: 1575 1575 368
Width: 248
GlyphClass: 2
Flags: W
AnchorPoint: "Anchor-6" 129 835 basechar 0
AnchorPoint: "Anchor-4" 121 791 basechar 0
AnchorPoint: "Anchor-2" 145 -31 basechar 0
AnchorPoint: "Anchor-1" 128 -22 basechar 0
LayerCount: 2
Fore
SplineSet
73 569 m 1,0,-1
 147 687 l 1,1,-1
 175 262 l 1,2,-1
 101 144 l 1,3,-1
 73 569 l 1,0,-1
EndSplineSet
MultipleSubs2: "'fina' Terminal Forms in Arabic lookup 4 subtable" alef-ar.fina
Position2: "Single Positioning lookup 20 per glyph data 1" dx=49 dy=0 dh=49 dv=0
Position2: "Single Positioning lookup 19 per glyph data 1" dx=98 dy=0 dh=98 dv=0
EndChar

StartChar: hah-ar
Encoding: 1581 1581 374
Width: 683
GlyphClass: 2
Flags: W
AnchorPoint: "Anchor-6" 325 738 basechar 0
AnchorPoint: "Anchor-4" 308 739 basechar 0
AnchorPoint: "Anchor-3" 382 73 basechar 0
AnchorPoint: "Anchor-2" 294 -545 basechar 0
LayerCount: 2
Fore
SplineSet
648 -186 m 0,0,1
 607 -235 607 -235 548 -272.5 c 128,-1,2
 489 -310 489 -310 421 -332.5 c 128,-1,3
 353 -355 353 -355 285.5 -360 c 128,-1,4
 218 -365 218 -365 159 -349 c 128,-1,5
 100 -333 100 -333 59 -294 c 128,-1,6
 18 -255 18 -255 4 -190 c 0,7,8
 -7 -137 -7 -137 6 -75 c 128,-1,9
 19 -13 19 -13 48 48 c 128,-1,10
 77 109 77 109 112.5 160 c 128,-1,11
 148 211 148 211 182 242 c 1,12,13
 154 273 154 273 145.5 314 c 128,-1,14
 137 355 137 355 144 397 c 128,-1,15
 151 439 151 439 169 473 c 128,-1,16
 187 507 187 507 212 525 c 0,17,18
 234 541 234 541 273 551 c 128,-1,19
 312 561 312 561 354 562 c 128,-1,20
 396 563 396 563 428 549 c 0,21,22
 453 539 453 539 456.5 512 c 128,-1,23
 460 485 460 485 450.5 452 c 128,-1,24
 441 419 441 419 427 389.5 c 128,-1,25
 413 360 413 360 403 346 c 0,26,27
 379 312 379 312 348.5 283.5 c 128,-1,28
 318 255 318 255 288 229 c 0,29,30
 274 217 274 217 247 193 c 128,-1,31
 220 169 220 169 188 137.5 c 128,-1,32
 156 106 156 106 126 70.5 c 128,-1,33
 96 35 96 35 75 0 c 128,-1,34
 54 -35 54 -35 49.5 -65.5 c 128,-1,35
 45 -96 45 -96 64 -118 c 0,36,37
 105 -164 105 -164 158.5 -188.5 c 128,-1,38
 212 -213 212 -213 273 -221.5 c 128,-1,39
 334 -230 334 -230 397.5 -226 c 128,-1,40
 461 -222 461 -222 522 -211 c 128,-1,41
 583 -200 583 -200 635 -186 c 0,42,43
 639 -185 639 -185 645 -184 c 128,-1,44
 651 -183 651 -183 648 -186 c 0,0,1
387 398 m 1,45,46
 380 420 380 420 354.5 428 c 128,-1,47
 329 436 329 436 298 434.5 c 128,-1,48
 267 433 267 433 240 425 c 128,-1,49
 213 417 213 417 202 408 c 1,50,51
 213 380 213 380 230.5 355.5 c 128,-1,52
 248 331 248 331 260 304 c 1,53,54
 291 327 291 327 326.5 350.5 c 128,-1,55
 362 374 362 374 387 398 c 1,45,46
EndSplineSet
MultipleSubs2: "'fina' Terminal Forms in Arabic lookup 4 subtable" hah-ar.fina
MultipleSubs2: "'medi' Medial Forms in Arabic lookup 3 subtable" hah-ar.medi
MultipleSubs2: "'init' Initial Forms in Arabic lookup 2 subtable" hah-ar.init
EndChar

StartChar: dal-ar
Encoding: 1583 1583 376
Width: 367
GlyphClass: 2
Flags: W
AnchorPoint: "Anchor-6" 233 571 basechar 0
AnchorPoint: "Anchor-4" 233 562 basechar 0
AnchorPoint: "Anchor-2" 180 -167 basechar 0
AnchorPoint: "Anchor-1" 198 -167 basechar 0
LayerCount: 2
Fore
SplineSet
242 311 m 1,0,-1
 319 425 l 1,1,2
 319 425 319 425 326.5 407.5 c 128,-1,3
 334 390 334 390 341 360 c 128,-1,4
 348 330 348 330 348 291 c 128,-1,5
 348 252 348 252 333.5 209 c 128,-1,6
 319 166 319 166 282 122 c 0,7,8
 266 104 266 104 247.5 88 c 128,-1,9
 229 72 229 72 207 61 c 0,10,11
 184 49 184 49 146 38 c 128,-1,12
 108 27 108 27 68 17.5 c 128,-1,13
 28 8 28 8 0 0 c 1,14,-1
 74 133 l 1,15,16
 104 139 104 139 141 148 c 128,-1,17
 178 157 178 157 213 168 c 128,-1,18
 248 179 248 179 273 190 c 1,19,20
 274 210 274 210 263.5 245.5 c 128,-1,21
 253 281 253 281 242 311 c 1,0,-1
EndSplineSet
MultipleSubs2: "'fina' Terminal Forms in Arabic lookup 4 subtable" dal-ar.fina
Position2: "Single Positioning lookup 27 subtable" dx=-98 dy=0 dh=-98 dv=0
Position2: "Single Positioning lookup 26 per glyph data 1" dx=-98 dy=0 dh=-98 dv=0
Position2: "Single Positioning lookup 25 subtable" dx=-73 dy=0 dh=-73 dv=0
Position2: "Single Positioning lookup 24 subtable" dx=-195 dy=0 dh=-195 dv=0
Position2: "Single Positioning lookup 23 subtable" dx=-49 dy=0 dh=-49 dv=0
Position2: "Single Positioning lookup 22 subtable" dx=-37 dy=0 dh=-37 dv=0
Position2: "Single Positioning lookup 21 subtable" dx=-134 dy=0 dh=-134 dv=0
Position2: "Single Positioning lookup 20 per glyph data 0" dx=-264 dy=0 dh=-264 dv=0
Position2: "Single Positioning lookup 19 per glyph data 0" dx=-146 dy=0 dh=-146 dv=0
Position2: "Single Positioning lookup 18 per glyph data 1" dx=-244 dy=0 dh=-244 dv=0
EndChar

StartChar: reh-ar
Encoding: 1585 1585 378
Width: 469
GlyphClass: 2
Flags: W
AnchorPoint: "Anchor-6" 277 431 basechar 0
AnchorPoint: "Anchor-4" 360 457 basechar 0
AnchorPoint: "Anchor-2" 242 -193 basechar 0
AnchorPoint: "Anchor-1" 233 -224 basechar 0
LayerCount: 2
Fore
SplineSet
448 272 m 0,0,1
 442 239 442 239 429.5 202.5 c 128,-1,2
 417 166 417 166 402 134.5 c 128,-1,3
 387 103 387 103 371 84 c 0,4,5
 337 44 337 44 285.5 21 c 128,-1,6
 234 -2 234 -2 158 0 c 0,7,8
 111 1 111 1 74 4.5 c 128,-1,9
 37 8 37 8 17 14 c 128,-1,10
 -3 20 -3 20 0.5 30.5 c 128,-1,11
 4 41 4 41 37.5 56.5 c 128,-1,12
 71 72 71 72 142 94 c 0,13,14
 203 113 203 113 260.5 135 c 128,-1,15
 318 157 318 157 366 189 c 0,16,17
 411 219 411 219 435 272 c 0,18,19
 437 278 437 278 442 277.5 c 128,-1,20
 447 277 447 277 448 272 c 0,0,1
EndSplineSet
MultipleSubs2: "'fina' Terminal Forms in Arabic lookup 4 subtable" reh-ar.fina
Position2: "Single Positioning lookup 27 subtable" dx=-98 dy=0 dh=-98 dv=0
Position2: "Single Positioning lookup 26 per glyph data 0" dx=-122 dy=0 dh=-122 dv=0
Position2: "Single Positioning lookup 25 subtable" dx=-73 dy=0 dh=-73 dv=0
Position2: "Single Positioning lookup 24 subtable" dx=-195 dy=0 dh=-195 dv=0
Position2: "Single Positioning lookup 23 subtable" dx=-49 dy=0 dh=-49 dv=0
Position2: "Single Positioning lookup 22 subtable" dx=-37 dy=0 dh=-37 dv=0
Position2: "Single Positioning lookup 21 subtable" dx=-134 dy=0 dh=-134 dv=0
Position2: "Single Positioning lookup 20 per glyph data 0" dx=-264 dy=0 dh=-264 dv=0
Position2: "Single Positioning lookup 19 per glyph data 0" dx=-146 dy=0 dh=-146 dv=0
Position2: "Single Positioning lookup 18 per glyph data 1" dx=-244 dy=0 dh=-244 dv=0
EndChar

StartChar: seen-ar
Encoding: 1587 1587 380
Width: 933
GlyphClass: 2
Flags: W
AnchorPoint: "Anchor-6" 655 725 basechar 0
AnchorPoint: "Anchor-4" 633 703 basechar 0
AnchorPoint: "Anchor-2" 602 26 basechar 0
AnchorPoint: "Anchor-1" 541 -4 basechar 0
LayerCount: 2
Fore
SplineSet
426 289 m 1,0,1
 414 256 414 256 404.5 230.5 c 128,-1,2
 395 205 395 205 382.5 181 c 128,-1,3
 370 157 370 157 349 126 c 0,4,5
 318 81 318 81 275.5 51 c 128,-1,6
 233 21 233 21 188.5 8.5 c 128,-1,7
 144 -4 144 -4 104 2 c 128,-1,8
 64 8 64 8 36.5 35.5 c 128,-1,9
 9 63 9 63 1 112.5 c 128,-1,10
 -7 162 -7 162 12.5 235.5 c 128,-1,11
 32 309 32 309 87 409 c 0,12,13
 93 421 93 421 99.5 418.5 c 128,-1,14
 106 416 106 416 99 398 c 0,15,16
 90 377 90 377 76 350 c 128,-1,17
 62 323 62 323 50.5 294 c 128,-1,18
 39 265 39 265 36 237 c 128,-1,19
 33 209 33 209 44 186 c 128,-1,20
 55 163 55 163 87 149 c 1,21,22
 146 139 146 139 198 148.5 c 128,-1,23
 250 158 250 158 293 181 c 128,-1,24
 336 204 336 204 368 233 c 1,25,26
 369 271 369 271 362 303.5 c 128,-1,27
 355 336 355 336 344 371 c 1,28,-1
 397 503 l 1,29,30
 409 480 409 480 416 460 c 128,-1,31
 423 440 423 440 433 429.5 c 128,-1,32
 443 419 443 419 464 423 c 0,33,34
 556 443 556 443 647 463.5 c 128,-1,35
 738 484 738 484 817 515 c 0,36,37
 837 523 837 523 854.5 533.5 c 128,-1,38
 872 544 872 544 882 560 c 0,39,40
 884 562 884 562 886.5 560.5 c 128,-1,41
 889 559 889 559 888 557 c 0,42,43
 868 496 868 496 844 436.5 c 128,-1,44
 820 377 820 377 794 321 c 0,45,46
 791 315 791 315 784.5 312.5 c 128,-1,47
 778 310 778 310 772 314 c 0,48,49
 766 319 766 319 767.5 327 c 128,-1,50
 769 335 769 335 771 342 c 0,51,52
 776 357 776 357 783.5 371 c 128,-1,53
 791 385 791 385 796 400 c 1,54,55
 748 378 748 378 691.5 362 c 128,-1,56
 635 346 635 346 577.5 332 c 128,-1,57
 520 318 520 318 467 303 c 2,58,-1
 426 289 l 1,0,1
EndSplineSet
MultipleSubs2: "'jalt' Justification Alternatives in Arabic lookup 78 subtable" seen-ar.jalt
MultipleSubs2: "'fina' Terminal Forms in Arabic lookup 4 subtable" seen-ar.fina
MultipleSubs2: "'medi' Medial Forms in Arabic lookup 3 subtable" seen-ar.medi
MultipleSubs2: "'init' Initial Forms in Arabic lookup 2 subtable" seen-ar.init
EndChar

StartChar: sheen-ar
Encoding: 1588 1588 381
Width: 1000
GlyphClass: 2
Flags: W
AnchorPoint: "Anchor-6" 655 725 basechar 0
AnchorPoint: "Anchor-2" 602 26 basechar 0
LayerCount: 2
Fore
SplineSet
973 504 m 0,0,1
 944 442 944 442 912.5 381 c 128,-1,2
 881 320 881 320 845 264 c 0,3,4
 834 250 834 250 829 253.5 c 128,-1,5
 824 257 824 257 826 262 c 0,6,7
 836 287 836 287 847.5 305.5 c 128,-1,8
 859 324 859 324 869 349 c 1,9,10
 793 305 793 305 707.5 277 c 128,-1,11
 622 249 622 249 528 222 c 0,12,13
 511 221 511 221 500.5 228 c 128,-1,14
 490 235 490 235 481.5 242.5 c 128,-1,15
 473 250 473 250 463 251 c 128,-1,16
 453 252 453 252 437 240 c 0,17,18
 410 219 410 219 387.5 183 c 128,-1,19
 365 147 365 147 342 108.5 c 128,-1,20
 319 70 319 70 294 40 c 128,-1,21
 269 10 269 10 238 0 c 1,22,23
 212 2 212 2 197 17 c 128,-1,24
 182 32 182 32 176 54 c 0,25,26
 171 74 171 74 168 102.5 c 128,-1,27
 165 131 165 131 161.5 157 c 128,-1,28
 158 183 158 183 149 196 c 0,29,30
 143 205 143 205 132.5 212.5 c 128,-1,31
 122 220 122 220 107 215 c 0,32,33
 75 205 75 205 54 182.5 c 128,-1,34
 33 160 33 160 17 134 c 0,35,36
 13 128 13 128 9.5 122.5 c 128,-1,37
 6 117 6 117 0 112 c 1,38,39
 16 159 16 159 29.5 195 c 128,-1,40
 43 231 43 231 65 261.5 c 128,-1,41
 87 292 87 292 128 322 c 0,42,43
 145 334 145 334 160.5 341 c 128,-1,44
 176 348 176 348 186 342 c 0,45,46
 201 333 201 333 206.5 313.5 c 128,-1,47
 212 294 212 294 213 270 c 0,48,49
 214 236 214 236 212 210 c 128,-1,50
 210 184 210 184 226 153 c 0,51,52
 234 139 234 139 252 136 c 128,-1,53
 270 133 270 133 283 143 c 0,54,55
 319 168 319 168 344.5 203 c 128,-1,56
 370 238 370 238 395 274 c 0,57,58
 420 309 420 309 442 334.5 c 128,-1,59
 464 360 464 360 493.5 366 c 128,-1,60
 523 372 523 372 568 346 c 1,61,62
 648 362 648 362 719.5 386 c 128,-1,63
 791 410 791 410 860 436 c 0,64,65
 892 448 892 448 919 465.5 c 128,-1,66
 946 483 946 483 970 504 c 1,67,68
 970 504 970 504 972.5 505.5 c 128,-1,69
 975 507 975 507 973 504 c 0,0,1
EndSplineSet
Ligature2: "'ss06' Style Set 6 in Arabic lookup 84 subtable" seen-ar threedotsupabove-ar
MultipleSubs2: "'ccmp' Glyph Composition/Decomposition in Arabic lookup 0 subtable" seen-ar threedotsupabove-ar
EndChar

StartChar: sad-ar
Encoding: 1589 1589 382
Width: 881
GlyphClass: 2
Flags: W
AnchorPoint: "Anchor-6" 633 791 basechar 0
AnchorPoint: "Anchor-4" 610 781 basechar 0
AnchorPoint: "Anchor-2" 589 97 basechar 0
AnchorPoint: "Anchor-1" 558 92 basechar 0
LayerCount: 2
Fore
SplineSet
349 126 m 0,0,1
 318 81 318 81 275.5 51 c 128,-1,2
 233 21 233 21 188.5 8.5 c 128,-1,3
 144 -4 144 -4 104 2.5 c 128,-1,4
 64 9 64 9 36.5 36 c 128,-1,5
 9 63 9 63 1 113 c 128,-1,6
 -7 163 -7 163 12.5 236.5 c 128,-1,7
 32 310 32 310 87 410 c 0,8,9
 93 422 93 422 99.5 419 c 128,-1,10
 106 416 106 416 99 398 c 0,11,12
 90 377 90 377 76.5 349.5 c 128,-1,13
 63 322 63 322 51.5 291.5 c 128,-1,14
 40 261 40 261 37 232.5 c 128,-1,15
 34 204 34 204 45 182 c 128,-1,16
 56 160 56 160 87 149 c 0,17,18
 122 137 122 137 161 140 c 128,-1,19
 200 143 200 143 238.5 157 c 128,-1,20
 277 171 277 171 310.5 191.5 c 128,-1,21
 344 212 344 212 368 234 c 1,22,23
 370 276 370 276 362 311 c 128,-1,24
 354 346 354 346 343 379 c 1,25,-1
 397 504 l 1,26,27
 414 468 414 468 422.5 445 c 128,-1,28
 431 422 431 422 444 414 c 128,-1,29
 457 406 457 406 486 412 c 1,30,31
 486 412 486 412 508.5 438 c 128,-1,32
 531 464 531 464 571.5 507.5 c 128,-1,33
 612 551 612 551 667 603 c 0,34,35
 683 618 683 618 710 627 c 128,-1,36
 737 636 737 636 764.5 634 c 128,-1,37
 792 632 792 632 809 612 c 0,38,39
 830 587 830 587 826 560 c 128,-1,40
 822 533 822 533 805.5 507 c 128,-1,41
 789 481 789 481 772 458 c 0,42,43
 732 405 732 405 669.5 368 c 128,-1,44
 607 331 607 331 542 314 c 0,45,46
 512 307 512 307 478.5 300 c 128,-1,47
 445 293 445 293 420 289 c 1,48,49
 411 246 411 246 393 204.5 c 128,-1,50
 375 163 375 163 349 126 c 0,0,1
721 499 m 0,51,52
 712 516 712 516 687.5 523 c 128,-1,53
 663 530 663 530 642 519 c 0,54,55
 607 500 607 500 579.5 473 c 128,-1,56
 552 446 552 446 525 418 c 1,57,58
 578 429 578 429 627.5 441 c 128,-1,59
 677 453 677 453 720 473 c 0,60,61
 728 477 728 477 726 485 c 128,-1,62
 724 493 724 493 721 499 c 0,51,52
EndSplineSet
MultipleSubs2: "'jalt' Justification Alternatives in Arabic lookup 78 subtable" sad-ar.jalt
MultipleSubs2: "'fina' Terminal Forms in Arabic lookup 4 subtable" sad-ar.fina
MultipleSubs2: "'medi' Medial Forms in Arabic lookup 3 subtable" sad-ar.medi
MultipleSubs2: "'init' Initial Forms in Arabic lookup 2 subtable" sad-ar.init
EndChar

StartChar: tah-ar
Encoding: 1591 1591 384
Width: 681
GlyphClass: 2
Flags: W
AnchorPoint: "Anchor-6" 356 677 basechar 0
AnchorPoint: "Anchor-4" 510 475 basechar 0
AnchorPoint: "Anchor-2" 325 -145 basechar 0
AnchorPoint: "Anchor-1" 286 -207 basechar 0
LayerCount: 2
Fore
SplineSet
295 479 m 1,0,-1
 369 597 l 1,1,-1
 390 276 l 1,2,-1
 316 159 l 1,3,-1
 295 479 l 1,0,-1
581 190 m 0,4,5
 531 123 531 123 456.5 81 c 128,-1,6
 382 39 382 39 284 13 c 0,7,8
 219 -3 219 -3 179 1 c 0,9,10
 147 4 147 4 121 17 c 128,-1,11
 95 30 95 30 67.5 49 c 128,-1,12
 40 68 40 68 3 90 c 0,13,14
 -1 92 -1 92 1 97 c 128,-1,15
 3 102 3 102 7 102 c 0,16,17
 84 100 84 100 156 105.5 c 128,-1,18
 228 111 228 111 294 122 c 1,19,20
 338 172 338 172 383 220.5 c 128,-1,21
 428 269 428 269 477 315 c 0,22,23
 493 330 493 330 520 339 c 128,-1,24
 547 348 547 348 574.5 346 c 128,-1,25
 602 344 602 344 619 324 c 0,26,27
 640 299 640 299 636 277 c 128,-1,28
 632 255 632 255 615 234 c 128,-1,29
 598 213 598 213 581 190 c 0,4,5
532 212 m 0,30,31
 523 229 523 229 498 235.5 c 128,-1,32
 473 242 473 242 452 231 c 0,33,34
 417 212 417 212 389.5 185 c 128,-1,35
 362 158 362 158 335 130 c 1,36,37
 388 141 388 141 437.5 153 c 128,-1,38
 487 165 487 165 530 185 c 0,39,40
 538 189 538 189 536.5 197.5 c 128,-1,41
 535 206 535 206 532 212 c 0,30,31
EndSplineSet
MultipleSubs2: "'fina' Terminal Forms in Arabic lookup 4 subtable" tah-ar.fina
MultipleSubs2: "'medi' Medial Forms in Arabic lookup 3 subtable" tah-ar.medi
MultipleSubs2: "'init' Initial Forms in Arabic lookup 2 subtable" tah-ar.init
Position2: "Single Positioning lookup 18 per glyph data 0" dx=0 dy=215 dh=0 dv=0
EndChar

